<svg width="18" height="18" viewBox="0 0 18 18" fill="none" xmlns="http://www.w3.org/2000/svg">
<g clip-path="url(#clip0_2822_57963)">
<path d="M15 16.5H4.5C3.90326 16.5 3.33097 16.2629 2.90901 15.841C2.48705 15.419 2.25 14.8467 2.25 14.25V3.75C2.25 3.15326 2.48705 2.58097 2.90901 2.15901C3.33097 1.73705 3.90326 1.5 4.5 1.5H15C15.1989 1.5 15.3897 1.57902 15.5303 1.71967C15.671 1.86032 15.75 2.05109 15.75 2.25V15.75C15.75 15.9489 15.671 16.1397 15.5303 16.2803C15.3897 16.421 15.1989 16.5 15 16.5ZM14.25 15V13.5H4.5C4.30109 13.5 4.11032 13.579 3.96967 13.7197C3.82902 13.8603 3.75 14.0511 3.75 14.25C3.75 14.4489 3.82902 14.6397 3.96967 14.7803C4.11032 14.921 4.30109 15 4.5 15H14.25ZM3.75 12.1275C3.98475 12.045 4.2375 12 4.5 12H14.25V3H4.5C4.30109 3 4.11032 3.07902 3.96967 3.21967C3.82902 3.36032 3.75 3.55109 3.75 3.75V12.1275ZM9 7.5C8.60218 7.5 8.22064 7.34196 7.93934 7.06066C7.65804 6.77936 7.5 6.39782 7.5 6C7.5 5.60218 7.65804 5.22064 7.93934 4.93934C8.22064 4.65804 8.60218 4.5 9 4.5C9.39782 4.5 9.77936 4.65804 10.0607 4.93934C10.342 5.22064 10.5 5.60218 10.5 6C10.5 6.39782 10.342 6.77936 10.0607 7.06066C9.77936 7.34196 9.39782 7.5 9 7.5ZM6.75 10.5C6.75 9.90326 6.98705 9.33097 7.40901 8.90901C7.83097 8.48705 8.40326 8.25 9 8.25C9.59674 8.25 10.169 8.48705 10.591 8.90901C11.0129 9.33097 11.25 9.90326 11.25 10.5H6.75Z" fill="#03053D"/>
</g>
<defs>
<clipPath id="clip0_2822_57963">
<rect width="18" height="18" fill="white"/>
</clipPath>
</defs>
</svg>
