<svg width="16" height="16" viewBox="0 0 16 16" fill="none" xmlns="http://www.w3.org/2000/svg">
<g clip-path="url(#clip0_4246_107)">
<path d="M8.00008 6.00004V1.33337L6.66675 2.66671" stroke="#9CA3AF" stroke-width="1.5" stroke-linecap="round" stroke-linejoin="round"/>
<path d="M8 1.33337L9.33333 2.66671" stroke="#9CA3AF" stroke-width="1.5" stroke-linecap="round" stroke-linejoin="round"/>
<path d="M1.32007 8.66663H4.26007C4.5134 8.66663 4.74007 8.80663 4.8534 9.03329L5.6334 10.5933C5.86007 11.0466 6.32007 11.3333 6.82673 11.3333H9.18007C9.68674 11.3333 10.1467 11.0466 10.3734 10.5933L11.1534 9.03329C11.2667 8.80663 11.5001 8.66663 11.7467 8.66663H14.6534" stroke="#9CA3AF" stroke-width="1.5" stroke-linecap="round" stroke-linejoin="round"/>
<path d="M4.66659 3.42004C2.30659 3.76671 1.33325 5.15338 1.33325 8.00004V10C1.33325 13.3334 2.66659 14.6667 5.99992 14.6667H9.99992C13.3333 14.6667 14.6666 13.3334 14.6666 10V8.00004C14.6666 5.15338 13.6933 3.76671 11.3333 3.42004" stroke="#9CA3AF" stroke-width="1.5" stroke-linecap="round" stroke-linejoin="round"/>
</g>
<defs>
<clipPath id="clip0_4246_107">
<rect width="16" height="16" fill="white"/>
</clipPath>
</defs>
</svg>
