<svg width="14" height="14" viewBox="0 0 14 14" fill="none" xmlns="http://www.w3.org/2000/svg">
<g clip-path="url(#clip0_2376_57390)">
<path d="M7 12.1917L9.8875 9.30417C10.4585 8.73309 10.8474 8.00551 11.0049 7.21343C11.1624 6.42135 11.0815 5.60035 10.7725 4.85425C10.4634 4.10814 9.94003 3.47043 9.26854 3.02177C8.59705 2.57311 7.80759 2.33363 7 2.33363C6.19241 2.33363 5.40296 2.57311 4.73147 3.02177C4.05998 3.47043 3.5366 4.10814 3.22753 4.85425C2.91846 5.60035 2.83758 6.42135 2.9951 7.21343C3.15262 8.00551 3.54148 8.73309 4.1125 9.30417L7 12.1917ZM7 13.8413L3.28767 10.129C2.55345 9.39478 2.05344 8.45932 1.85087 7.44092C1.64831 6.42252 1.75228 5.36692 2.14964 4.40761C2.547 3.44831 3.21991 2.62837 4.08327 2.0515C4.94662 1.47462 5.96165 1.16672 7 1.16672C8.03835 1.16672 9.05338 1.47462 9.91674 2.0515C10.7801 2.62837 11.453 3.44831 11.8504 4.40761C12.2477 5.36692 12.3517 6.42252 12.1491 7.44092C11.9466 8.45932 11.4466 9.39478 10.7123 10.129L7 13.8413ZM7 7.58334C7.30942 7.58334 7.60617 7.46042 7.82496 7.24163C8.04375 7.02284 8.16667 6.72609 8.16667 6.41667C8.16667 6.10725 8.04375 5.81051 7.82496 5.59171C7.60617 5.37292 7.30942 5.25001 7 5.25001C6.69058 5.25001 6.39384 5.37292 6.17504 5.59171C5.95625 5.81051 5.83334 6.10725 5.83334 6.41667C5.83334 6.72609 5.95625 7.02284 6.17504 7.24163C6.39384 7.46042 6.69058 7.58334 7 7.58334ZM7 8.75C6.38116 8.75 5.78767 8.50417 5.35009 8.06659C4.9125 7.629 4.66667 7.03551 4.66667 6.41667C4.66667 5.79783 4.9125 5.20434 5.35009 4.76676C5.78767 4.32917 6.38116 4.08334 7 4.08334C7.61884 4.08334 8.21233 4.32917 8.64992 4.76676C9.0875 5.20434 9.33334 5.79783 9.33334 6.41667C9.33334 7.03551 9.0875 7.629 8.64992 8.06659C8.21233 8.50417 7.61884 8.75 7 8.75Z" fill="#03053D"/>
</g>
<defs>
<clipPath id="clip0_2376_57390">
<rect width="14" height="14" fill="white"/>
</clipPath>
</defs>
</svg>
