<svg width="40" height="41" viewBox="0 0 40 41" fill="none" xmlns="http://www.w3.org/2000/svg">
<rect y="0.5" width="40" height="40" rx="4" fill="#FFB600"/>
<path d="M15.5 20.5L18.5 23.5L24.5 17.5M15.8 29.5H24.2C25.8802 29.5 26.7202 29.5 27.362 29.173C27.9265 28.8854 28.3854 28.4265 28.673 27.862C29 27.2202 29 26.3802 29 24.7V16.3C29 14.6198 29 13.7798 28.673 13.138C28.3854 12.5735 27.9265 12.1146 27.362 11.827C26.7202 11.5 25.8802 11.5 24.2 11.5H15.8C14.1198 11.5 13.2798 11.5 12.638 11.827C12.0735 12.1146 11.6146 12.5735 11.327 13.138C11 13.7798 11 14.6198 11 16.3V24.7C11 26.3802 11 27.2202 11.327 27.862C11.6146 28.4265 12.0735 28.8854 12.638 29.173C13.2798 29.5 14.1198 29.5 15.8 29.5Z" stroke="white" stroke-width="2" stroke-linecap="round" stroke-linejoin="round"/>
</svg>
