<svg width="24" height="24" viewBox="0 0 24 24" fill="none" xmlns="http://www.w3.org/2000/svg">
<path d="M19.9577 1.50001H8.05517C7.90375 1.5018 7.75293 1.5194 7.60517 1.55251C7.37406 1.51983 7.14107 1.50229 6.90767 1.50001C5.67171 1.49715 4.47911 1.95538 3.56305 2.78511C2.64699 3.61484 2.07335 4.75641 1.95426 5.98663C1.83518 7.21685 2.17922 8.44725 2.91913 9.43728C3.65904 10.4273 4.7416 11.1058 5.95517 11.34V20.4C5.95715 20.9564 6.17903 21.4894 6.57243 21.8828C6.96583 22.2762 7.49882 22.498 8.05517 22.5H19.9577C20.2334 22.5 20.5065 22.4457 20.7613 22.3402C21.0161 22.2346 21.2476 22.0799 21.4426 21.8849C21.6376 21.6899 21.7923 21.4584 21.8978 21.2036C22.0034 20.9489 22.0577 20.6758 22.0577 20.4V3.60001C22.0577 3.04306 21.8364 2.50892 21.4426 2.11509C21.0488 1.72126 20.5146 1.50001 19.9577 1.50001ZM3.34517 6.46501C3.34517 5.75862 3.55474 5.0681 3.94735 4.48085C4.33996 3.89361 4.89796 3.43604 5.55073 3.16605C6.2035 2.89607 6.92169 2.82581 7.6144 2.96417C8.30712 3.10253 8.94322 3.44328 9.44219 3.94331C9.94117 4.44333 10.2806 5.08014 10.4175 5.77315C10.5544 6.46616 10.4826 7.1842 10.2113 7.8364C9.93991 8.4886 9.48116 9.04564 8.89309 9.43701C8.30502 9.82838 7.61407 10.0365 6.90767 10.035C6.4392 10.035 5.97534 9.94262 5.54263 9.76312C5.10991 9.58362 4.71685 9.32054 4.38595 8.98893C4.05504 8.65733 3.79278 8.26372 3.61419 7.83063C3.4356 7.39754 3.34418 6.93348 3.34517 6.46501ZM20.6552 20.4C20.6552 20.585 20.5817 20.7624 20.4509 20.8932C20.3201 21.024 20.1427 21.0975 19.9577 21.0975H8.05517C7.87018 21.0975 7.69277 21.024 7.56196 20.8932C7.43116 20.7624 7.35767 20.585 7.35767 20.4V11.4C8.53974 11.291 9.64252 10.7582 10.4627 9.90001C10.5225 9.90724 10.5829 9.90724 10.6427 9.90001H17.3927C17.5657 9.90001 17.7317 9.83127 17.8541 9.7089C17.9764 9.58653 18.0452 9.42057 18.0452 9.24751C18.0452 9.07446 17.9764 8.90849 17.8541 8.78613C17.7317 8.66376 17.5657 8.59501 17.3927 8.59501H11.3927C11.8567 7.65348 12.0095 6.5888 11.8288 5.55478C11.6482 4.52076 11.1435 3.57093 10.3877 2.84251H19.9877C20.1727 2.84251 20.3501 2.916 20.4809 3.04681C20.6117 3.17761 20.6852 3.35502 20.6852 3.54001L20.6552 20.4Z" fill="black"/>
<path d="M7.81513 8.36252C7.94705 8.4926 8.12487 8.56552 8.31013 8.56552C8.4954 8.56552 8.67322 8.4926 8.80513 8.36252C8.93521 8.2306 9.00814 8.05278 9.00814 7.86752C9.00814 7.68226 8.93521 7.50444 8.80513 7.37252L7.89763 6.46502L8.80513 5.56502C8.93521 5.4331 9.00814 5.25528 9.00814 5.07002C9.00814 4.88476 8.93521 4.70694 8.80513 4.57502C8.74082 4.50879 8.66387 4.45615 8.57885 4.4202C8.49382 4.38425 8.40245 4.36572 8.31013 4.36572C8.21782 4.36572 8.12644 4.38425 8.04142 4.4202C7.95639 4.45615 7.87945 4.50879 7.81513 4.57502L6.90763 5.47502L6.00013 4.57502C5.93582 4.50879 5.85887 4.45615 5.77385 4.4202C5.68882 4.38425 5.59745 4.36572 5.50513 4.36572C5.41282 4.36572 5.32144 4.38425 5.23642 4.4202C5.15139 4.45615 5.07445 4.50879 5.01013 4.57502C4.88005 4.70694 4.80713 4.88476 4.80713 5.07002C4.80713 5.25528 4.88005 5.4331 5.01013 5.56502L5.91763 6.46502L5.01013 7.37252C4.88005 7.50444 4.80713 7.68226 4.80713 7.86752C4.80713 8.05278 4.88005 8.2306 5.01013 8.36252C5.14464 8.48856 5.32085 8.56064 5.50513 8.56502C5.59691 8.56549 5.68787 8.54785 5.77281 8.5131C5.85775 8.47835 5.935 8.42718 6.00013 8.36252L6.90763 7.45502L7.81513 8.36252Z" fill="black"/>
<path d="M17.3698 11.3475H10.6198C10.4467 11.3475 10.2808 11.4162 10.1584 11.5386C10.036 11.661 9.96729 11.8269 9.96729 12C9.96729 12.173 10.036 12.339 10.1584 12.4614C10.2808 12.5837 10.4467 12.6525 10.6198 12.6525H17.3698C17.5428 12.6525 17.7088 12.5837 17.8312 12.4614C17.9535 12.339 18.0223 12.173 18.0223 12C18.0223 11.8269 17.9535 11.661 17.8312 11.5386C17.7088 11.4162 17.5428 11.3475 17.3698 11.3475Z" fill="black"/>
<path d="M17.3698 14.04H10.6198C10.4467 14.04 10.2808 14.1087 10.1584 14.2311C10.036 14.3535 9.96729 14.5194 9.96729 14.6925C9.96729 14.8655 10.036 15.0315 10.1584 15.1539C10.2808 15.2762 10.4467 15.345 10.6198 15.345H17.3698C17.5428 15.345 17.7088 15.2762 17.8312 15.1539C17.9535 15.0315 18.0223 14.8655 18.0223 14.6925C18.0223 14.5194 17.9535 14.3535 17.8312 14.2311C17.7088 14.1087 17.5428 14.04 17.3698 14.04Z" fill="black"/>
</svg>
