<svg width="18" height="18" viewBox="0 0 18 18" fill="none" xmlns="http://www.w3.org/2000/svg">
<g clip-path="url(#clip0_2822_57971)">
<path d="M4.69875 2.85525L5.559 4.0845C4.51364 4.81633 3.72882 5.86238 3.31856 7.0707C2.90829 8.27902 2.89395 9.58667 3.27762 10.8037C3.66128 12.0207 4.42297 13.0837 5.45203 13.8383C6.48109 14.5929 7.72393 14.9997 9 14.9997C10.2761 14.9997 11.5189 14.5929 12.548 13.8383C13.577 13.0837 14.3387 12.0207 14.7224 10.8037C15.1061 9.58667 15.0917 8.27902 14.6814 7.0707C14.2712 5.86238 13.4864 4.81633 12.441 4.0845L13.3013 2.85525C14.2897 3.54632 15.0967 4.46584 15.6536 5.53565C16.2105 6.60546 16.5009 7.79392 16.5 9C16.5 13.1422 13.1423 16.5 9 16.5C4.85775 16.5 1.5 13.1422 1.5 9C1.49913 7.79392 1.78949 6.60546 2.3464 5.53565C2.90331 4.46584 3.71029 3.54632 4.69875 2.85525V2.85525ZM8.25 9V1.5H9.75V9H8.25Z" fill="#03053D"/>
</g>
<defs>
<clipPath id="clip0_2822_57971">
<rect width="18" height="18" fill="white"/>
</clipPath>
</defs>
</svg>
