<svg width="14" height="16" viewBox="0 0 14 16" fill="none" xmlns="http://www.w3.org/2000/svg">
<path d="M12.3333 8.33325V4.53325C12.3333 3.41315 12.3333 2.85309 12.1153 2.42527C11.9236 2.04895 11.6176 1.74299 11.2413 1.55124C10.8135 1.33325 10.2534 1.33325 9.13332 1.33325H4.86666C3.74655 1.33325 3.1865 1.33325 2.75868 1.55124C2.38235 1.74299 2.07639 2.04895 1.88464 2.42527C1.66666 2.85309 1.66666 3.41315 1.66666 4.53325V11.4666C1.66666 12.5867 1.66666 13.1467 1.88464 13.5746C2.07639 13.9509 2.38235 14.2569 2.75868 14.4486C3.1865 14.6666 3.74655 14.6666 4.86666 14.6666H6.99999M8.33332 7.33325H4.33332M5.66666 9.99992H4.33332M9.66666 4.66659H4.33332M8.66666 12.6666L9.99999 13.9999L13 10.9999" stroke="#9CA3AF" stroke-width="1.5" stroke-linecap="round" stroke-linejoin="round"/>
</svg>
