<svg width="16" height="16" viewBox="0 0 16 16" fill="none" xmlns="http://www.w3.org/2000/svg">
<path d="M13.3333 8.33203V4.53203C13.3333 3.41193 13.3333 2.85187 13.1153 2.42405C12.9236 2.04773 12.6176 1.74176 12.2413 1.55002C11.8135 1.33203 11.2534 1.33203 10.1333 1.33203H5.86666C4.74655 1.33203 4.1865 1.33203 3.75868 1.55002C3.38235 1.74176 3.07639 2.04773 2.88464 2.42405C2.66666 2.85187 2.66666 3.41193 2.66666 4.53203V11.4654C2.66666 12.5855 2.66666 13.1455 2.88464 13.5733C3.07639 13.9497 3.38235 14.2556 3.75868 14.4474C4.1865 14.6654 4.74655 14.6654 5.86666 14.6654H7.99999M9.33332 7.33203H5.33332M6.66666 9.9987H5.33332M10.6667 4.66536H5.33332M9.66666 12.6654L11 13.9987L14 10.9987" stroke="#011530" stroke-width="1.5" stroke-linecap="round" stroke-linejoin="round"/>
</svg>
