<svg width="16" height="16" viewBox="0 0 16 16" fill="none" xmlns="http://www.w3.org/2000/svg">
<g clip-path="url(#clip0_3299_60221)">
<path d="M10.6673 5.33398V3.46732C10.6673 2.72058 10.6673 2.34721 10.522 2.062C10.3942 1.81111 10.1902 1.60714 9.93931 1.47931C9.65409 1.33398 9.28072 1.33398 8.53398 1.33398H3.46732C2.72058 1.33398 2.34721 1.33398 2.062 1.47931C1.81111 1.60714 1.60714 1.81111 1.47931 2.062C1.33398 2.34721 1.33398 2.72058 1.33398 3.46732V8.53398C1.33398 9.28072 1.33398 9.65409 1.47931 9.93931C1.60714 10.1902 1.81111 10.3942 2.062 10.522C2.34721 10.6673 2.72058 10.6673 3.46732 10.6673H5.33398M7.46732 14.6673H12.534C13.2807 14.6673 13.6541 14.6673 13.9393 14.522C14.1902 14.3942 14.3942 14.1902 14.522 13.9393C14.6673 13.6541 14.6673 13.2807 14.6673 12.534V7.46732C14.6673 6.72058 14.6673 6.34721 14.522 6.062C14.3942 5.81111 14.1902 5.60714 13.9393 5.47931C13.6541 5.33398 13.2807 5.33398 12.534 5.33398H7.46732C6.72058 5.33398 6.34721 5.33398 6.062 5.47931C5.81111 5.60714 5.60714 5.81111 5.47931 6.062C5.33398 6.34721 5.33398 6.72058 5.33398 7.46732V12.534C5.33398 13.2807 5.33398 13.6541 5.47931 13.9393C5.60714 14.1902 5.81111 14.3942 6.062 14.522C6.34721 14.6673 6.72058 14.6673 7.46732 14.6673Z" stroke="#111827" stroke-width="2" stroke-linecap="round" stroke-linejoin="round"/>
</g>
<defs>
<clipPath id="clip0_3299_60221">
<rect width="16" height="16" fill="white"/>
</clipPath>
</defs>
</svg>
