<svg width="16" height="16" viewBox="0 0 16 16" fill="none" xmlns="http://www.w3.org/2000/svg">
<path d="M11.3333 14H4.66668C2.00001 14 1.33334 13.3333 1.33334 10.6667V5.33333C1.33334 2.66667 2.00001 2 4.66668 2H11.3333C14 2 14.6667 2.66667 14.6667 5.33333V10.6667C14.6667 13.3333 14 14 11.3333 14Z" stroke="#011530" stroke-width="1.5" stroke-linecap="round" stroke-linejoin="round"/>
<path d="M9.33334 5.33594H12.6667" stroke="#011530" stroke-width="1.5" stroke-linecap="round" stroke-linejoin="round"/>
<path d="M10 8H12.6667" stroke="#011530" stroke-width="1.5" stroke-linecap="round" stroke-linejoin="round"/>
<path d="M11.3333 10.6641H12.6667" stroke="#011530" stroke-width="1.5" stroke-linecap="round" stroke-linejoin="round"/>
<path d="M5.66666 7.53052C6.33308 7.53052 6.87332 6.99028 6.87332 6.32385C6.87332 5.65743 6.33308 5.11719 5.66666 5.11719C5.00023 5.11719 4.45999 5.65743 4.45999 6.32385C4.45999 6.99028 5.00023 7.53052 5.66666 7.53052Z" stroke="#011530" stroke-width="1.5" stroke-linecap="round" stroke-linejoin="round"/>
<path d="M8.00001 10.8852C7.90668 9.91854 7.14001 9.15854 6.17334 9.07187C5.84001 9.03854 5.50001 9.03854 5.16001 9.07187C4.19334 9.16521 3.42668 9.91854 3.33334 10.8852" stroke="#011530" stroke-width="1.5" stroke-linecap="round" stroke-linejoin="round"/>
</svg>
