<svg width="16" height="16" viewBox="0 0 16 16" fill="none" xmlns="http://www.w3.org/2000/svg">
<path d="M11.3333 14H4.66668C2.00001 14 1.33334 13.3333 1.33334 10.6667V5.33333C1.33334 2.66667 2.00001 2 4.66668 2H11.3333C14 2 14.6667 2.66667 14.6667 5.33333V10.6667C14.6667 13.3333 14 14 11.3333 14Z" stroke="#9CA3AF" stroke-width="1.5" stroke-linecap="round" stroke-linejoin="round"/>
<path d="M9.33334 5.33325H12.6667" stroke="#9CA3AF" stroke-width="1.5" stroke-linecap="round" stroke-linejoin="round"/>
<path d="M10 8H12.6667" stroke="#9CA3AF" stroke-width="1.5" stroke-linecap="round" stroke-linejoin="round"/>
<path d="M11.3333 10.6667H12.6667" stroke="#9CA3AF" stroke-width="1.5" stroke-linecap="round" stroke-linejoin="round"/>
<path d="M5.66666 7.52661C6.33308 7.52661 6.87332 6.98637 6.87332 6.31995C6.87332 5.65352 6.33308 5.11328 5.66666 5.11328C5.00023 5.11328 4.45999 5.65352 4.45999 6.31995C4.45999 6.98637 5.00023 7.52661 5.66666 7.52661Z" stroke="#9CA3AF" stroke-width="1.5" stroke-linecap="round" stroke-linejoin="round"/>
<path d="M8.00001 10.8867C7.90668 9.92001 7.14001 9.16001 6.17334 9.07334C5.84001 9.04001 5.50001 9.04001 5.16001 9.07334C4.19334 9.16667 3.42668 9.92001 3.33334 10.8867" stroke="#9CA3AF" stroke-width="1.5" stroke-linecap="round" stroke-linejoin="round"/>
</svg>
