<!DOCTYPE svg PUBLIC "-//W3C//DTD SVG 1.1//EN" "http://www.w3.org/Graphics/SVG/1.1/DTD/svg11.dtd">
<svg fill="#000000" width="24px" height="24px" viewBox="0 0 64 64" xmlns="http://www.w3.org/2000/svg">

<g id="bgCarrier" stroke-width="0"/>
<g id="tracerCarrier" stroke-linecap="round" stroke-linejoin="round"/>
<g id="iconCarrier"> <g data-name="40 shopping online" id="_40_shopping_online"> <path d="M54.41,45.24a1.02,1.02,0,1,1-1.02-1.02A1.024,1.024,0,0,1,54.41,45.24Z"/> <path d="M50.33,45.24a1.015,1.015,0,1,1-1.02-1.02A1.018,1.018,0,0,1,50.33,45.24Z"/> <path d="M58.5,40.68H55.41V17.19a3.009,3.009,0,0,0-3-3H11.59a3.009,3.009,0,0,0-3,3V40.68H5.5a2,2,0,0,0-2,2v1.13a6.011,6.011,0,0,0,6,6h45a6.011,6.011,0,0,0,6-6V42.68A2,2,0,0,0,58.5,40.68ZM10.59,17.19a1,1,0,0,1,1-1H52.41a1,1,0,0,1,1,1V40.68H10.59ZM38.53,42.68l-1.04,2.07H26.51l-1.04-2.07ZM58.5,43.81a4.005,4.005,0,0,1-4,4H9.5a4.005,4.005,0,0,1-4-4V42.68H23.23l1.76,3.52a1,1,0,0,0,.9.55H38.11a1,1,0,0,0,.9-.55l1.76-3.52H58.5Z"/> <path d="M43.2,26.42H40.16l-4.84-7.25a1,1,0,1,0-1.66,1.11l4.09,6.14H26.25l4.09-6.14a1,1,0,1,0-1.66-1.11l-4.84,7.25H20.8a1,1,0,1,0,0,2h.78l1.3,7.42a3.2,3.2,0,0,0,3.07,2.76h12.1a3.2,3.2,0,0,0,3.07-2.76l1.3-7.42h.78a1,1,0,0,0,0-2ZM39.15,35.5a1.212,1.212,0,0,1-1.1,1.1H25.95a1.212,1.212,0,0,1-1.1-1.1l-1.24-7.08H40.39Z"/> <path d="M32,35.546a1,1,0,0,0,1-1V30.473a1,1,0,0,0-2,0v4.073A1,1,0,0,0,32,35.546Z"/> <path d="M27.926,35.546a1,1,0,0,0,1-1V30.473a1,1,0,0,0-2,0v4.073A1,1,0,0,0,27.926,35.546Z"/> <path d="M36.074,35.546a1,1,0,0,0,1-1V30.473a1,1,0,0,0-2,0v4.073A1,1,0,0,0,36.074,35.546Z"/> </g> </g>
</svg>