<svg width="18" height="18" viewBox="0 0 18 18" fill="none" xmlns="http://www.w3.org/2000/svg">
<path d="M8.25 3.00017H5.1C3.83988 3.00017 3.20982 3.00017 2.72852 3.24541C2.30516 3.46112 1.96095 3.80533 1.74524 4.22869C1.5 4.70999 1.5 5.34005 1.5 6.60017V12.9002C1.5 14.1603 1.5 14.7903 1.74524 15.2716C1.96095 15.695 2.30516 16.0392 2.72852 16.2549C3.20982 16.5002 3.83988 16.5002 5.1 16.5002H11.4C12.6601 16.5002 13.2902 16.5002 13.7715 16.2549C14.1948 16.0392 14.539 15.695 14.7548 15.2716C15 14.7903 15 14.1603 15 12.9002V9.75017M5.99998 12.0002H7.25589C7.62277 12.0002 7.80622 12.0002 7.97885 11.9587C8.1319 11.922 8.27822 11.8614 8.41243 11.7791C8.5638 11.6864 8.69352 11.5567 8.95294 11.2972L16.125 4.12517C16.7463 3.50385 16.7463 2.49649 16.125 1.87517C15.5037 1.25385 14.4963 1.25385 13.875 1.87517L6.70293 9.04723C6.4435 9.30665 6.31378 9.43637 6.22102 9.58774C6.13878 9.72195 6.07817 9.86827 6.04143 10.0213C5.99998 10.194 5.99998 10.3774 5.99998 10.7443V12.0002Z" stroke="black" stroke-width="1.5" stroke-linecap="round" stroke-linejoin="round"/>
</svg>
