<svg width="16" height="16" viewBox="0 0 16 16" fill="none" xmlns="http://www.w3.org/2000/svg">
<path d="M8.00001 1.33325C8.87549 1.33325 9.7424 1.50569 10.5512 1.84072C11.3601 2.17575 12.095 2.66682 12.7141 3.28588C13.3331 3.90493 13.8242 4.63986 14.1592 5.4487C14.4942 6.25754 14.6667 7.12444 14.6667 7.99992M8.00001 1.33325V7.99992M8.00001 1.33325C4.31811 1.33325 1.33334 4.31802 1.33334 7.99992C1.33334 11.6818 4.31811 14.6666 8.00001 14.6666C11.6819 14.6666 14.6667 11.6818 14.6667 7.99992M8.00001 1.33325C11.6819 1.33325 14.6667 4.31802 14.6667 7.99992M14.6667 7.99992L8.00001 7.99992M14.6667 7.99992C14.6667 9.05199 14.4177 10.0891 13.9401 11.0265C13.4624 11.9639 12.7697 12.775 11.9186 13.3934L8.00001 7.99992" stroke="#9CA3AF" stroke-width="1.5" stroke-linecap="round" stroke-linejoin="round"/>
</svg>
