<?xml version="1.0" encoding="utf-8"?>
<svg viewBox="0.1 0.709 40 40" width="40" height="40" xmlns="http://www.w3.org/2000/svg">
  <defs>
    <clipPath id="clip0_370_14383">
      <rect width="24" height="24" fill="white" transform="translate(8.00006 8)"/>
    </clipPath>
  </defs>
  <rect x="0.1" width="40" height="40" rx="20" fill="#31E3CA" y="0.709" transform="matrix(1, 0, 0, 0.9999999999999999, 0, 4.440892098500626e-16)"/>
  <g clip-path="url(#clip0_370_14383)" transform="matrix(1, 0, 0, 0.9999999999999999, -0.23389602369290774, 0.7091640434658637)">
    <mask id="path-2-inside-1_370_14383" fill="white">
      <path d="M31.1804 18.7493C31.592 18.7033 31.9655 18.9997 31.9857 19.4134C32.0928 21.6018 31.5988 23.7831 30.5503 25.7178C29.3824 27.8728 27.5826 29.6184 25.3929 30.7199C23.2032 31.8215 20.7288 32.2261 18.3023 31.8793C15.8759 31.5325 13.6138 30.451 11.8204 28.7802C10.0269 27.1094 8.78812 24.9295 8.27059 22.5337C7.75306 20.1378 7.98163 17.6409 8.92554 15.3789C9.86945 13.1168 11.4834 11.198 13.5504 9.88061C15.4061 8.69788 17.547 8.05079 19.7375 8.00287C20.1516 7.99381 20.4737 8.34539 20.4569 8.75924C20.44 9.17308 20.0906 9.49214 19.6766 9.50489C17.7926 9.56294 15.9538 10.1274 14.3566 11.1455C12.5479 12.2982 11.1357 13.9771 10.3098 15.9565C9.48384 17.9358 9.28385 20.1206 9.73669 22.217C10.1895 24.3134 11.2735 26.2208 12.8428 27.6828C14.412 29.1447 16.3914 30.091 18.5145 30.3945C20.6377 30.6979 22.8029 30.3439 24.7188 29.38C26.6348 28.4162 28.2096 26.8887 29.2316 25.0031C30.1341 23.3378 30.5671 21.4638 30.4918 19.5804C30.4752 19.1665 30.7687 18.7954 31.1804 18.7493Z"/>
    </mask>
    <path d="M31.1804 18.7493C31.592 18.7033 31.9655 18.9997 31.9857 19.4134C32.0928 21.6018 31.5988 23.7831 30.5503 25.7178C29.3824 27.8728 27.5826 29.6184 25.3929 30.7199C23.2032 31.8215 20.7288 32.2261 18.3023 31.8793C15.8759 31.5325 13.6138 30.451 11.8204 28.7802C10.0269 27.1094 8.78812 24.9295 8.27059 22.5337C7.75306 20.1378 7.98163 17.6409 8.92554 15.3789C9.86945 13.1168 11.4834 11.198 13.5504 9.88061C15.4061 8.69788 17.547 8.05079 19.7375 8.00287C20.1516 7.99381 20.4737 8.34539 20.4569 8.75924C20.44 9.17308 20.0906 9.49214 19.6766 9.50489C17.7926 9.56294 15.9538 10.1274 14.3566 11.1455C12.5479 12.2982 11.1357 13.9771 10.3098 15.9565C9.48384 17.9358 9.28385 20.1206 9.73669 22.217C10.1895 24.3134 11.2735 26.2208 12.8428 27.6828C14.412 29.1447 16.3914 30.091 18.5145 30.3945C20.6377 30.6979 22.8029 30.3439 24.7188 29.38C26.6348 28.4162 28.2096 26.8887 29.2316 25.0031C30.1341 23.3378 30.5671 21.4638 30.4918 19.5804C30.4752 19.1665 30.7687 18.7954 31.1804 18.7493Z" stroke="#111827" stroke-width="3" mask="url(#path-2-inside-1_370_14383)"/>
    <path d="M31.0001 13V9H27.0001" stroke="#111827" stroke-width="1.5" stroke-linecap="round" stroke-linejoin="round"/>
    <path d="M26.0001 14L31.0001 9" stroke="#111827" stroke-width="1.5" stroke-linecap="round" stroke-linejoin="round"/>
    <path d="M 23.542 21.731 C 23.542 22.93 22.553 23.955 20.748 24.224 L 20.748 25.599 L 19.211 25.599 L 19.211 24.319 C 18.158 24.278 17.139 24.036 16.542 23.74 L 17.013 22.162 C 17.672 22.473 18.598 22.756 19.618 22.756 C 20.513 22.756 21.125 22.458 21.125 21.919 C 21.125 21.407 20.623 21.082 19.461 20.746 C 17.782 20.26 16.636 19.586 16.636 18.28 C 16.636 17.092 17.61 16.163 19.289 15.879 L 19.289 14.599 L 20.826 14.599 L 20.826 15.785 C 21.878 15.826 22.585 16.014 23.102 16.23 L 22.647 17.755 C 22.24 17.605 21.518 17.295 20.387 17.295 C 19.367 17.295 19.038 17.672 19.038 18.05 C 19.038 18.494 19.587 18.777 20.92 19.21 C 22.79 19.775 23.542 20.517 23.542 21.731 Z" style="stroke: rgb(17, 24, 39); fill: rgb(17, 24, 39);"/>
  </g>
</svg>