<svg width="16" height="16" viewBox="0 0 16 16" fill="none" xmlns="http://www.w3.org/2000/svg">
<path d="M8.00001 1.33398C8.87549 1.33398 9.7424 1.50642 10.5512 1.84145C11.3601 2.17649 12.095 2.66755 12.7141 3.28661C13.3331 3.90567 13.8242 4.64059 14.1592 5.44943C14.4942 6.25827 14.6667 7.12518 14.6667 8.00066M8.00001 1.33398V8.00065M8.00001 1.33398C4.31811 1.33398 1.33334 4.31875 1.33334 8.00065C1.33334 11.6825 4.31811 14.6673 8.00001 14.6673C11.6819 14.6673 14.6667 11.6826 14.6667 8.00066M8.00001 1.33398C11.6819 1.33398 14.6667 4.31876 14.6667 8.00066M14.6667 8.00066L8.00001 8.00065M14.6667 8.00066C14.6667 9.05273 14.4177 10.0899 13.9401 11.0273C13.4624 11.9647 12.7697 12.7757 11.9186 13.3941L8.00001 8.00065" stroke="#011530" stroke-width="1.5" stroke-linecap="round" stroke-linejoin="round"/>
</svg>
