<svg width="15" height="15" viewBox="0 0 15 15" fill="none" xmlns="http://www.w3.org/2000/svg">
<g clip-path="url(#clip0_2376_57394)">
<path d="M7.50016 1.875C10.8702 1.875 13.6739 4.3 14.262 7.5C13.6745 10.7 10.8702 13.125 7.50016 13.125C4.13016 13.125 1.32641 10.7 0.738281 7.5C1.32578 4.3 4.13016 1.875 7.50016 1.875ZM7.50016 11.875C8.77482 11.8747 10.0116 11.4418 11.0082 10.647C12.0047 9.8522 12.702 8.74267 12.9858 7.5C12.7009 6.25832 12.0032 5.15 11.0068 4.35627C10.0104 3.56253 8.7741 3.13033 7.50016 3.13033C6.22622 3.13033 4.98996 3.56253 3.99352 4.35627C2.99707 5.15 2.29939 6.25832 2.01453 7.5C2.29834 8.74267 2.99558 9.8522 3.99212 10.647C4.98867 11.4418 6.22549 11.8747 7.50016 11.875V11.875ZM7.50016 10.3125C6.75424 10.3125 6.03886 10.0162 5.51142 9.48874C4.98397 8.96129 4.68766 8.24592 4.68766 7.5C4.68766 6.75408 4.98397 6.03871 5.51142 5.51126C6.03886 4.98382 6.75424 4.6875 7.50016 4.6875C8.24608 4.6875 8.96145 4.98382 9.48889 5.51126C10.0163 6.03871 10.3127 6.75408 10.3127 7.5C10.3127 8.24592 10.0163 8.96129 9.48889 9.48874C8.96145 10.0162 8.24608 10.3125 7.50016 10.3125ZM7.50016 9.0625C7.91456 9.0625 8.31199 8.89788 8.60501 8.60485C8.89804 8.31183 9.06266 7.9144 9.06266 7.5C9.06266 7.0856 8.89804 6.68817 8.60501 6.39515C8.31199 6.10212 7.91456 5.9375 7.50016 5.9375C7.08576 5.9375 6.68833 6.10212 6.3953 6.39515C6.10228 6.68817 5.93766 7.0856 5.93766 7.5C5.93766 7.9144 6.10228 8.31183 6.3953 8.60485C6.68833 8.89788 7.08576 9.0625 7.50016 9.0625Z" fill="black"/>
</g>
<defs>
<clipPath id="clip0_2376_57394">
<rect width="15" height="15" fill="white"/>
</clipPath>
</defs>
</svg>
