<svg width="24" height="24" viewBox="0 0 24 24" fill="none" xmlns="http://www.w3.org/2000/svg">
<path d="M20.4545 5H3.54545C3.24421 5 3 5.24421 3 5.54545V6.25455C3 6.55579 3.24421 6.8 3.54545 6.8H20.4545C20.7558 6.8 21 6.55579 21 6.25455V5.54545C21 5.24421 20.7558 5 20.4545 5Z" fill="#1F2937"/>
<path d="M18.4049 10.6729H5.59499C5.36677 10.6729 5.18176 10.9171 5.18176 11.2183V11.9274C5.18176 12.2286 5.36677 12.4729 5.59499 12.4729H18.4049C18.6331 12.4729 18.8181 12.2286 18.8181 11.9274V11.2183C18.8181 10.9171 18.6331 10.6729 18.4049 10.6729Z" fill="#1F2937"/>
<path d="M16.8669 16.3455H7.13137C6.95793 16.3455 6.81732 16.5897 6.81732 16.8909V17.6C6.81732 17.9013 6.95793 18.1455 7.13137 18.1455H16.8669C17.0404 18.1455 17.181 17.9013 17.181 17.6V16.8909C17.181 16.5897 17.0404 16.3455 16.8669 16.3455Z" fill="#1F2937"/>
</svg>
