<svg width="18" height="18" viewBox="0 0 18 18" fill="none" xmlns="http://www.w3.org/2000/svg">
<g clip-path="url(#clip0_2822_57967)">
<path d="M3.75 6.75C3.94891 6.75 4.13968 6.82902 4.28033 6.96967C4.42098 7.11032 4.5 7.30109 4.5 7.5C5.67836 7.49826 6.82274 7.8947 7.7475 8.625H9.375C10.3747 8.625 11.2725 9.06 11.8905 9.75H14.25C14.9589 9.7498 15.6534 9.95058 16.2529 10.329C16.8524 10.7075 17.3323 11.2481 17.637 11.8882C15.8633 14.229 12.9915 15.75 9.75 15.75C7.6575 15.75 5.8875 15.2977 4.455 14.5065C4.40253 14.6513 4.30668 14.7764 4.18051 14.8647C4.05435 14.953 3.90401 15.0003 3.75 15H1.5C1.30109 15 1.11032 14.921 0.96967 14.7803C0.829018 14.6397 0.75 14.4489 0.75 14.25V7.5C0.75 7.30109 0.829018 7.11032 0.96967 6.96967C1.11032 6.82902 1.30109 6.75 1.5 6.75H3.75ZM4.50075 9L4.5 12.7665L4.53375 12.7905C5.88 13.7355 7.6335 14.25 9.75 14.25C12.003 14.25 14.0992 13.383 15.6262 11.9025L15.726 11.8028L15.636 11.7278C15.2819 11.4504 14.8526 11.2858 14.4037 11.2552L14.25 11.25H12.6667C12.7207 11.4915 12.75 11.742 12.75 12V12.75H6V11.25L11.0925 11.2492L11.067 11.1907C10.9233 10.8904 10.7022 10.6337 10.4264 10.4471C10.1507 10.2605 9.83025 10.1506 9.498 10.1288L9.375 10.125H7.1775C6.82899 9.76854 6.4127 9.48539 5.95314 9.29219C5.49358 9.09898 5.00002 8.99964 4.5015 9H4.50075ZM3 8.25H2.25V13.5H3V8.25ZM13.5 3.75C14.0967 3.75 14.669 3.98705 15.091 4.40901C15.5129 4.83097 15.75 5.40326 15.75 6C15.75 6.59674 15.5129 7.16903 15.091 7.59099C14.669 8.01295 14.0967 8.25 13.5 8.25C12.9033 8.25 12.331 8.01295 11.909 7.59099C11.4871 7.16903 11.25 6.59674 11.25 6C11.25 5.40326 11.4871 4.83097 11.909 4.40901C12.331 3.98705 12.9033 3.75 13.5 3.75ZM13.5 5.25C13.3011 5.25 13.1103 5.32902 12.9697 5.46967C12.829 5.61032 12.75 5.80109 12.75 6C12.75 6.19891 12.829 6.38968 12.9697 6.53033C13.1103 6.67098 13.3011 6.75 13.5 6.75C13.6989 6.75 13.8897 6.67098 14.0303 6.53033C14.171 6.38968 14.25 6.19891 14.25 6C14.25 5.80109 14.171 5.61032 14.0303 5.46967C13.8897 5.32902 13.6989 5.25 13.5 5.25ZM8.25 1.5C8.84674 1.5 9.41903 1.73705 9.84099 2.15901C10.2629 2.58097 10.5 3.15326 10.5 3.75C10.5 4.34674 10.2629 4.91903 9.84099 5.34099C9.41903 5.76295 8.84674 6 8.25 6C7.65326 6 7.08097 5.76295 6.65901 5.34099C6.23705 4.91903 6 4.34674 6 3.75C6 3.15326 6.23705 2.58097 6.65901 2.15901C7.08097 1.73705 7.65326 1.5 8.25 1.5V1.5ZM8.25 3C8.05109 3 7.86032 3.07902 7.71967 3.21967C7.57902 3.36032 7.5 3.55109 7.5 3.75C7.5 3.94891 7.57902 4.13968 7.71967 4.28033C7.86032 4.42098 8.05109 4.5 8.25 4.5C8.44891 4.5 8.63968 4.42098 8.78033 4.28033C8.92098 4.13968 9 3.94891 9 3.75C9 3.55109 8.92098 3.36032 8.78033 3.21967C8.63968 3.07902 8.44891 3 8.25 3V3Z" fill="#09121F"/>
</g>
<defs>
<clipPath id="clip0_2822_57967">
<rect width="18" height="18" fill="white"/>
</clipPath>
</defs>
</svg>
