<svg width="20" height="20" viewBox="0 0 20 20" fill="none" xmlns="http://www.w3.org/2000/svg">
<path d="M11.5002 12.5001C11.5002 13.0524 11.9479 13.5001 12.5002 13.5001C13.0525 13.5001 13.5002 13.0524 13.5002 12.5001H11.5002ZM12.5002 7.50013H13.5002C13.5002 6.94784 13.0525 6.50013 12.5002 6.50013V7.50013ZM7.50018 6.50013C6.94789 6.50013 6.50018 6.94784 6.50018 7.50013C6.50018 8.05241 6.94789 8.50013 7.50018 8.50013V6.50013ZM6.79308 11.7929C6.40255 12.1834 6.40254 12.8166 6.79306 13.2071C7.18358 13.5977 7.81675 13.5977 8.20728 13.2071L6.79308 11.7929ZM17.3334 10.0001C17.3334 14.0502 14.0501 17.3334 10 17.3334V19.3334C15.1547 19.3334 19.3334 15.1547 19.3334 10.0001H17.3334ZM10 17.3334C5.94993 17.3334 2.66669 14.0502 2.66669 10.0001H0.666687C0.666687 15.1547 4.84536 19.3334 10 19.3334V17.3334ZM2.66669 10.0001C2.66669 5.94999 5.94993 2.66675 10 2.66675V0.666748C4.84536 0.666748 0.666687 4.84542 0.666687 10.0001H2.66669ZM10 2.66675C14.0501 2.66675 17.3334 5.94999 17.3334 10.0001H19.3334C19.3334 4.84542 15.1547 0.666748 10 0.666748V2.66675ZM13.5002 12.5001V7.50013H11.5002V12.5001H13.5002ZM12.5002 6.50013H7.50018V8.50013H12.5002V6.50013ZM8.20728 13.2071L13.2073 8.20724L11.7931 6.79301L6.79308 11.7929L8.20728 13.2071Z" fill="#4ADE80"/>
</svg>
