<svg width="16" height="16" viewBox="0 0 16 16" fill="none" xmlns="http://www.w3.org/2000/svg">
<path d="M12 4.77325C11.96 4.76659 11.9133 4.76659 11.8733 4.77325C10.9533 4.73992 10.22 3.98659 10.22 3.05325C10.22 2.09992 10.9867 1.33325 11.94 1.33325C12.8933 1.33325 13.66 2.10659 13.66 3.05325C13.6533 3.98659 12.92 4.73992 12 4.77325Z" stroke="#9CA3AF" stroke-width="1.5" stroke-linecap="round" stroke-linejoin="round"/>
<path d="M11.3133 9.62669C12.2267 9.78003 13.2333 9.62003 13.94 9.14669C14.88 8.52003 14.88 7.49336 13.94 6.86669C13.2267 6.39336 12.2067 6.23336 11.2933 6.39336" stroke="#9CA3AF" stroke-width="1.5" stroke-linecap="round" stroke-linejoin="round"/>
<path d="M3.97998 4.77325C4.01998 4.76659 4.06664 4.76659 4.10664 4.77325C5.02664 4.73992 5.75998 3.98659 5.75998 3.05325C5.75998 2.09992 4.99331 1.33325 4.03998 1.33325C3.08664 1.33325 2.31998 2.10659 2.31998 3.05325C2.32664 3.98659 3.05998 4.73992 3.97998 4.77325Z" stroke="#9CA3AF" stroke-width="1.5" stroke-linecap="round" stroke-linejoin="round"/>
<path d="M4.66666 9.62669C3.75332 9.78003 2.74666 9.62003 2.03999 9.14669C1.09999 8.52003 1.09999 7.49336 2.03999 6.86669C2.75332 6.39336 3.77332 6.23336 4.68666 6.39336" stroke="#9CA3AF" stroke-width="1.5" stroke-linecap="round" stroke-linejoin="round"/>
<path d="M8 9.75324C7.96 9.74657 7.91333 9.74657 7.87333 9.75324C6.95333 9.7199 6.22 8.96657 6.22 8.03323C6.22 7.0799 6.98667 6.31323 7.94 6.31323C8.89333 6.31323 9.66 7.08657 9.66 8.03323C9.65333 8.96657 8.92 9.72657 8 9.75324Z" stroke="#9CA3AF" stroke-width="1.5" stroke-linecap="round" stroke-linejoin="round"/>
<path d="M6.06001 11.8532C5.12001 12.4799 5.12001 13.5066 6.06001 14.1332C7.12668 14.8466 8.87334 14.8466 9.94001 14.1332C10.88 13.5066 10.88 12.4799 9.94001 11.8532C8.88001 11.1466 7.12668 11.1466 6.06001 11.8532Z" stroke="#9CA3AF" stroke-width="1.5" stroke-linecap="round" stroke-linejoin="round"/>
</svg>
