<svg width="20" height="20" viewBox="0 0 20 20" fill="none" xmlns="http://www.w3.org/2000/svg">
<path d="M13.5002 7.50013C13.5002 6.94784 13.0524 6.50013 12.5002 6.50013C11.9479 6.50013 11.5002 6.94784 11.5002 7.50013H13.5002ZM12.5002 12.5001V13.5001C13.0524 13.5001 13.5002 13.0524 13.5002 12.5001H12.5002ZM7.50015 11.5001C6.94787 11.5001 6.50015 11.9478 6.50015 12.5001C6.50015 13.0524 6.94787 13.5001 7.50015 13.5001V11.5001ZM8.20727 6.79293C7.81675 6.40241 7.18358 6.4024 6.79306 6.79292C6.40253 7.18344 6.40252 7.81661 6.79304 8.20713L8.20727 6.79293ZM17.3333 10.0001C17.3333 14.0502 14.0501 17.3334 10 17.3334V19.3334C15.1547 19.3334 19.3333 15.1547 19.3333 10.0001H17.3333ZM10 17.3334C5.94991 17.3334 2.66667 14.0502 2.66667 10.0001H0.666667C0.666667 15.1547 4.84534 19.3334 10 19.3334V17.3334ZM2.66667 10.0001C2.66667 5.94999 5.94991 2.66675 10 2.66675V0.666748C4.84534 0.666748 0.666667 4.84542 0.666667 10.0001H2.66667ZM10 2.66675C14.0501 2.66675 17.3333 5.94999 17.3333 10.0001H19.3333C19.3333 4.84542 15.1547 0.666748 10 0.666748V2.66675ZM11.5002 7.50013V12.5001H13.5002V7.50013H11.5002ZM12.5002 11.5001H7.50015V13.5001H12.5002V11.5001ZM6.79304 8.20713L11.793 13.2072L13.2073 11.793L8.20727 6.79293L6.79304 8.20713Z" fill="#F87171"/>
</svg>
