<svg width="41" height="40" viewBox="0 0 41 40" fill="none" xmlns="http://www.w3.org/2000/svg">
<rect x="0.5" width="40" height="40" rx="8" fill="#14532D"/>
<g clip-path="url(#clip0_3556_60811)">
<mask id="path-2-inside-1_3556_60811" fill="white">
<path d="M31.6803 18.7493C32.0919 18.7033 32.4654 18.9997 32.4857 19.4134C32.5928 21.6018 32.0987 23.7831 31.0502 25.7178C29.8823 27.8728 28.0825 29.6184 25.8928 30.7199C23.7032 31.8215 21.2287 32.2261 18.8023 31.8793C16.3758 31.5325 14.1137 30.451 12.3203 28.7802C10.5268 27.1094 9.28806 24.9295 8.77053 22.5337C8.253 20.1378 8.48156 17.6409 9.42547 15.3789C10.3694 13.1168 11.9834 11.198 14.0503 9.88061C15.906 8.69788 18.0469 8.05079 20.2374 8.00287C20.6515 7.99381 20.9736 8.34539 20.9568 8.75924C20.94 9.17308 20.5905 9.49214 20.1765 9.50489C18.2925 9.56294 16.4538 10.1274 14.8565 11.1455C13.0479 12.2982 11.6356 13.9771 10.8097 15.9565C9.98378 17.9358 9.78379 20.1206 10.2366 22.217C10.6895 24.3134 11.7734 26.2208 13.3427 27.6828C14.912 29.1447 16.8913 30.091 19.0145 30.3945C21.1376 30.6979 23.3028 30.3439 25.2188 29.38C27.1347 28.4162 28.7096 26.8887 29.7315 25.0031C30.634 23.3378 31.0671 21.4638 30.9917 19.5804C30.9751 19.1665 31.2687 18.7954 31.6803 18.7493Z"/>
</mask>
<path d="M31.6803 18.7493C32.0919 18.7033 32.4654 18.9997 32.4857 19.4134C32.5928 21.6018 32.0987 23.7831 31.0502 25.7178C29.8823 27.8728 28.0825 29.6184 25.8928 30.7199C23.7032 31.8215 21.2287 32.2261 18.8023 31.8793C16.3758 31.5325 14.1137 30.451 12.3203 28.7802C10.5268 27.1094 9.28806 24.9295 8.77053 22.5337C8.253 20.1378 8.48156 17.6409 9.42547 15.3789C10.3694 13.1168 11.9834 11.198 14.0503 9.88061C15.906 8.69788 18.0469 8.05079 20.2374 8.00287C20.6515 7.99381 20.9736 8.34539 20.9568 8.75924C20.94 9.17308 20.5905 9.49214 20.1765 9.50489C18.2925 9.56294 16.4538 10.1274 14.8565 11.1455C13.0479 12.2982 11.6356 13.9771 10.8097 15.9565C9.98378 17.9358 9.78379 20.1206 10.2366 22.217C10.6895 24.3134 11.7734 26.2208 13.3427 27.6828C14.912 29.1447 16.8913 30.091 19.0145 30.3945C21.1376 30.6979 23.3028 30.3439 25.2188 29.38C27.1347 28.4162 28.7096 26.8887 29.7315 25.0031C30.634 23.3378 31.0671 21.4638 30.9917 19.5804C30.9751 19.1665 31.2687 18.7954 31.6803 18.7493Z" stroke="white" stroke-width="3" mask="url(#path-2-inside-1_3556_60811)"/>
<path d="M15.5842 25V14.5H16.8142L23.7442 23.125H23.1142V14.5H24.6142V25H23.3842L16.4392 16.375H17.0692V25H15.5842ZM13.9492 21.205V20.365H26.2492V21.205H13.9492ZM13.9492 19.135V18.295H26.2492V19.135H13.9492Z" fill="white"/>
<path d="M31.5 13V9H27.5" stroke="white" stroke-width="1.5" stroke-linecap="round" stroke-linejoin="round"/>
<path d="M26.5 14L31.5 9" stroke="white" stroke-width="1.5" stroke-linecap="round" stroke-linejoin="round"/>
</g>
<defs>
<clipPath id="clip0_3556_60811">
<rect width="24" height="24" fill="white" transform="translate(8.5 8)"/>
</clipPath>
</defs>
</svg>
