<svg width="657" height="503" viewBox="0 0 657 503" fill="none" xmlns="http://www.w3.org/2000/svg">
<path d="M657 443.66H0V443.987H657V443.66Z" fill="#FFB600"/>
<path d="M591.168 464.668H547.648V464.995H591.168V464.668Z" fill="#FFB600"/>
<path d="M435.223 468.219H423.805V468.546H435.223V468.219Z" fill="#FFB600"/>
<path d="M546.335 452.551H521.119V452.878H546.335V452.551Z" fill="#FFB600"/>
<path d="M125.683 454.744H68.9316V455.071H125.683V454.744Z" fill="#FFB600"/>
<path d="M145.708 454.744H137.391V455.071H145.708V454.744Z" fill="#FFB600"/>
<path d="M295.847 460.254H172.752V460.581H295.847V460.254Z" fill="#FFB600"/>
<path d="M311.417 385.424H57.6968C55.7092 385.421 53.8042 384.634 52.3999 383.236C50.9957 381.838 50.207 379.944 50.207 377.969V23.5641C50.2243 21.6003 51.0207 19.7227 52.423 18.339C53.8254 16.9552 55.7205 16.1772 57.6968 16.1738H311.417C313.407 16.1738 315.315 16.9593 316.722 18.3575C318.13 19.7557 318.92 21.652 318.92 23.6293V377.969C318.92 379.946 318.13 381.843 316.722 383.241C315.315 384.639 313.407 385.424 311.417 385.424ZM57.6968 16.435C55.7963 16.4384 53.9749 17.191 52.6322 18.5276C51.2896 19.8642 50.5355 21.6756 50.5355 23.5641V377.969C50.5355 379.857 51.2896 381.669 52.6322 383.005C53.9749 384.342 55.7963 385.094 57.6968 385.098H311.417C313.319 385.094 315.142 384.342 316.486 383.006C317.831 381.67 318.588 379.859 318.592 377.969V23.5641C318.588 21.6744 317.831 19.8631 316.486 18.5268C315.142 17.1906 313.319 16.4384 311.417 16.435H57.6968Z" fill="#FFB600"/>
<path d="M595.648 385.424H341.915C339.926 385.421 338.02 384.634 336.614 383.237C335.207 381.839 334.416 379.945 334.412 377.969V23.5641C334.433 21.5991 335.232 19.7215 336.637 18.3381C338.041 16.9548 339.938 16.1772 341.915 16.1738H595.648C597.622 16.1806 599.514 16.9602 600.914 18.3435C602.313 19.7269 603.108 21.6026 603.125 23.5641V377.969C603.125 379.942 602.338 381.834 600.937 383.231C599.535 384.629 597.634 385.417 595.648 385.424ZM341.915 16.435C340.013 16.4384 338.191 17.1906 336.846 18.5268C335.501 19.8631 334.744 21.6744 334.741 23.5641V377.969C334.744 379.859 335.501 381.67 336.846 383.006C338.191 384.342 340.013 385.094 341.915 385.098H595.648C597.55 385.094 599.373 384.342 600.718 383.006C602.062 381.67 602.819 379.859 602.823 377.969V23.5641C602.819 21.6744 602.062 19.8631 600.718 18.5268C599.373 17.1906 597.55 16.4384 595.648 16.435H341.915Z" fill="#FFB600"/>
<path d="M339.472 443.66H377.434V309.278H339.472V443.66Z" fill="#FFB600"/>
<path d="M346.673 443.659H339.459V431.203H354.228L346.673 443.659Z" fill="#F0F0F0"/>
<path d="M556.058 443.66H594.02V309.278H556.058V443.66Z" fill="#FFB600"/>
<path d="M339.471 440.381H562.352V309.263H339.471V440.381Z" fill="#F0F0F0"/>
<path d="M488.861 317.059V433.109H554.929V317.059H488.861Z" fill="#FFB600"/>
<path d="M515.365 323.717H528.426C531.335 323.667 534.194 322.967 536.794 321.669C539.394 320.372 541.667 318.511 543.445 316.223H500.346C502.126 318.508 504.399 320.368 506.998 321.665C509.598 322.962 512.457 323.664 515.365 323.717Z" fill="#F0F0F0"/>
<path d="M417.865 317.071V433.121H483.933V317.071H417.865Z" fill="#FFB600"/>
<path d="M443.699 323.717H456.774C459.671 323.657 462.518 322.952 465.106 321.655C467.693 320.358 469.956 318.502 471.727 316.223H428.693C430.47 318.509 432.741 320.369 435.338 321.666C437.935 322.964 440.793 323.665 443.699 323.717Z" fill="#F0F0F0"/>
<path d="M346.871 317.071V433.121H412.939V317.071H346.871Z" fill="#FFB600"/>
<path d="M372.703 323.717H385.777C388.682 323.663 391.536 322.961 394.131 321.664C396.726 320.367 398.995 318.507 400.77 316.223H357.697C359.474 318.509 361.745 320.369 364.342 321.666C366.939 322.964 369.797 323.665 372.703 323.717Z" fill="#F0F0F0"/>
<path d="M555.139 443.659H562.34V431.203H547.57L555.139 443.659Z" fill="#F0F0F0"/>
<path d="M100.719 274.334L355.412 274.334V58.8551L100.719 58.8551L100.719 274.334Z" fill="#FFB600"/>
<path d="M94.989 274.334L352.914 274.334V58.8551L94.989 58.8551V274.334Z" fill="#F5F5F5"/>
<path d="M342.625 263.996V69.1992L105.277 69.1992V263.996H342.625Z" fill="#FAFAFA"/>
<path d="M313.507 263.996L220.094 69.1992H188.361L281.774 263.996H313.507Z" fill="white"/>
<path d="M272.786 263.996L179.36 69.1992H157.521L250.934 263.996H272.786Z" fill="white"/>
<path d="M193.422 263.982V69.1855H181.149V263.982H193.422Z" fill="#FFB600"/>
<path d="M274.994 263.982V69.1855H262.721V263.982H274.994Z" fill="#FFB600"/>
<path d="M191.199 270.563V61.5078H175.681V270.563H191.199Z" fill="#F5F5F5"/>
<path d="M272.773 270.563V61.5078H257.255V270.563H272.773Z" fill="#F5F5F5"/>
<path d="M106.369 263.996L106.369 69.1992H105.279L105.279 263.996H106.369Z" fill="#FFB600"/>
<path d="M90.6656 45.5508H366.606C366.954 45.5508 367.288 45.6883 367.535 45.9332C367.781 46.1781 367.92 46.5102 367.92 46.8565C367.92 47.2028 367.781 47.5349 367.535 47.7797C367.288 48.0246 366.954 48.1622 366.606 48.1622H90.6656C90.3171 48.1622 89.9828 48.0246 89.7364 47.7797C89.49 47.5349 89.3516 47.2028 89.3516 46.8565C89.3516 46.5102 89.49 46.1781 89.7364 45.9332C89.9828 45.6883 90.3171 45.5508 90.6656 45.5508Z" fill="#FFB600"/>
<path d="M355.412 54.2613C355.887 54.2579 356.341 54.0679 356.676 53.7328C357.011 53.3977 357.199 52.9447 357.199 52.4725V48.6468C357.199 48.1759 357.01 47.7242 356.675 47.3912C356.34 47.0582 355.885 46.8711 355.412 46.8711C354.936 46.8711 354.48 47.0577 354.143 47.3904C353.806 47.723 353.615 48.1747 353.611 48.6468V52.4725C353.615 52.9459 353.806 53.3989 354.142 53.7336C354.479 54.0684 354.935 54.2579 355.412 54.2613Z" fill="#FFB600"/>
<path d="M110.678 54.2613C111.154 54.2579 111.61 54.0684 111.947 53.7336C112.284 53.3989 112.474 52.9459 112.478 52.4725V48.6468C112.474 48.1747 112.283 47.723 111.946 47.3904C111.609 47.0577 111.153 46.8711 110.678 46.8711C110.204 46.8711 109.749 47.0582 109.414 47.3912C109.079 47.7242 108.891 48.1759 108.891 48.6468V52.4725C108.891 52.9447 109.078 53.3977 109.413 53.7328C109.748 54.0679 110.203 54.2579 110.678 54.2613Z" fill="#FFB600"/>
<path opacity="0.6" d="M91.087 153.82L348.828 153.82V46.8708L91.087 46.8708V153.82Z" fill="#E0E0E0"/>
<path d="M94.6216 443.66H101.244L101.244 335.757H94.6216L94.6216 443.66Z" fill="#FFB600"/>
<path d="M249.976 314.748H214.117V335.744H249.976V314.748Z" fill="#FFB600"/>
<path d="M71.6927 335.756H214.117V314.76H71.6927V335.756Z" fill="#F5F5F5"/>
<path d="M249.976 348.801H214.117V369.796H249.976V348.801Z" fill="#FFB600"/>
<path d="M71.6927 369.809H214.117V348.813H71.6927V369.809Z" fill="#F5F5F5"/>
<path d="M249.976 382.865H214.117V403.861H249.976V382.865Z" fill="#FFB600"/>
<path d="M71.6927 403.861H214.117V382.866H71.6927V403.861Z" fill="#F5F5F5"/>
<path d="M237.045 443.66H243.668V335.757H237.045V443.66Z" fill="#FFB600"/>
<path d="M207.495 443.66H214.117V335.757H207.495V443.66Z" fill="#F5F5F5"/>
<path d="M71.6919 443.66H78.3145L78.3145 335.757H71.6919L71.6919 443.66Z" fill="#F5F5F5"/>
<path d="M328.502 502.621C469.208 502.621 583.273 496.004 583.273 487.841C583.273 479.678 469.208 473.061 328.502 473.061C187.796 473.061 73.7305 479.678 73.7305 487.841C73.7305 496.004 187.796 502.621 328.502 502.621Z" fill="#F5F5F5"/>
<path d="M520.343 428.565H306.949C304.852 428.59 302.772 428.177 300.846 427.353C298.919 426.529 297.188 425.312 295.765 423.78C294.341 422.249 293.258 420.438 292.584 418.464C291.909 416.49 291.66 414.398 291.852 412.322L317.987 71.8359C318.394 67.4491 320.416 63.3659 323.665 60.3687C326.914 57.3714 331.162 55.6709 335.595 55.5931H548.988C551.086 55.5659 553.167 55.9774 555.095 56.8008C557.022 57.6243 558.754 58.8414 560.178 60.3731C561.602 61.9048 562.685 63.7168 563.359 65.6916C564.032 67.6664 564.28 69.7598 564.086 71.8359L537.951 412.322C537.541 416.708 535.518 420.789 532.27 423.786C529.021 426.783 524.775 428.484 520.343 428.565Z" fill="#011530"/>
<path opacity="0.5" d="M520.343 428.565H306.949C304.852 428.59 302.772 428.177 300.846 427.353C298.919 426.529 297.188 425.312 295.765 423.78C294.341 422.249 293.258 420.438 292.584 418.464C291.909 416.49 291.66 414.398 291.852 412.322L317.987 71.8359C318.394 67.4491 320.416 63.3659 323.665 60.3687C326.914 57.3714 331.162 55.6709 335.595 55.5931H548.988C551.086 55.5659 553.167 55.9774 555.095 56.8008C557.022 57.6243 558.754 58.8414 560.178 60.3731C561.602 61.9048 562.685 63.7168 563.359 65.6916C564.032 67.6664 564.28 69.7598 564.086 71.8359L537.951 412.322C537.541 416.708 535.518 420.789 532.27 423.786C529.021 426.783 524.775 428.484 520.343 428.565Z" fill="white"/>
<path d="M517.177 428.565H303.77C301.672 428.59 299.593 428.177 297.666 427.353C295.739 426.529 294.008 425.312 292.585 423.78C291.162 422.249 290.078 420.438 289.404 418.464C288.73 416.49 288.48 414.398 288.672 412.322L314.821 71.8359C315.228 67.4469 317.252 63.3619 320.503 60.3644C323.755 57.3668 328.006 55.6677 332.441 55.5931H545.835C547.933 55.5659 550.013 55.9774 551.941 56.8008C553.869 57.6243 555.601 58.8414 557.024 60.3731C558.448 61.9048 559.532 63.7168 560.205 65.6916C560.878 67.6664 561.126 69.7598 560.933 71.8359L534.797 412.322C534.39 416.711 532.366 420.796 529.114 423.794C525.863 426.791 521.611 428.49 517.177 428.565Z" fill="#011530"/>
<path opacity="0.7" d="M517.177 428.565H303.77C301.672 428.59 299.593 428.177 297.666 427.353C295.739 426.529 294.008 425.312 292.585 423.78C291.162 422.249 290.078 420.438 289.404 418.464C288.73 416.49 288.48 414.398 288.672 412.322L314.821 71.8359C315.228 67.4469 317.252 63.3619 320.503 60.3644C323.755 57.3668 328.006 55.6677 332.441 55.5931H545.835C547.933 55.5659 550.013 55.9774 551.941 56.8008C553.869 57.6243 555.601 58.8414 557.024 60.3731C558.448 61.9048 559.532 63.7168 560.205 65.6916C560.878 67.6664 561.126 69.7598 560.933 71.8359L534.797 412.322C534.39 416.711 532.366 420.796 529.114 423.794C525.863 426.791 521.611 428.49 517.177 428.565Z" fill="white"/>
<path d="M304.189 423.147C302.79 423.168 301.402 422.896 300.116 422.348C298.83 421.8 297.674 420.989 296.725 419.968C295.775 418.947 295.053 417.738 294.605 416.421C294.157 415.104 293.993 413.707 294.124 412.323L319.918 76.3546C320.184 73.4291 321.529 70.7048 323.696 68.7063C325.862 66.7078 328.696 65.5766 331.652 65.5304H545.045C546.445 65.5096 547.832 65.782 549.118 66.3298C550.405 66.8776 551.56 67.6885 552.51 68.7098C553.459 69.731 554.182 70.9396 554.63 72.2568C555.078 73.574 555.242 74.9703 555.111 76.3546L529.317 412.323C529.051 415.246 527.708 417.969 525.544 419.967C523.38 421.965 520.549 423.098 517.596 423.147H304.189Z" fill="#011530"/>
<path opacity="0.2" d="M516.085 122.039H363.372C362.543 122.05 361.72 121.887 360.958 121.561C360.196 121.236 359.511 120.754 358.948 120.148C358.386 119.542 357.958 118.826 357.692 118.045C357.426 117.263 357.329 116.436 357.407 115.615C357.571 113.884 358.37 112.275 359.652 111.092C360.934 109.91 362.609 109.238 364.358 109.204H517.071C517.9 109.191 518.722 109.352 519.484 109.676C520.247 110 520.931 110.481 521.494 111.086C522.057 111.69 522.485 112.406 522.751 113.187C523.017 113.967 523.114 114.795 523.036 115.615C522.881 117.35 522.085 118.966 520.801 120.152C519.518 121.338 517.838 122.01 516.085 122.039Z" fill="#FFB600"/>
<path opacity="0.3" d="M450.938 62.2145H426.274C426.07 62.2171 425.868 62.1772 425.68 62.0971C425.492 62.0171 425.324 61.8987 425.185 61.7498C425.046 61.6009 424.941 61.4246 424.875 61.2325C424.809 61.0404 424.784 60.8367 424.803 60.6346C424.844 60.2094 425.041 59.8141 425.356 59.5231C425.67 59.232 426.081 59.0654 426.511 59.0547H451.188C451.391 59.0539 451.592 59.0952 451.778 59.1761C451.964 59.2569 452.131 59.3755 452.269 59.5243C452.406 59.673 452.51 59.8486 452.576 60.0398C452.641 60.231 452.665 60.4336 452.646 60.6346C452.611 61.0619 452.416 61.4605 452.1 61.7527C451.784 62.0448 451.37 62.2095 450.938 62.2145Z" fill="#011530"/>
<path d="M362.664 115.617C362.882 113.346 362.616 111.055 361.883 108.893C361.149 106.731 359.965 104.748 358.407 103.072C356.85 101.396 354.954 100.065 352.843 99.1672C350.733 98.269 348.456 97.8234 346.16 97.8594H501.212C503.508 97.8234 505.785 98.269 507.895 99.1672C510.006 100.065 511.902 101.396 513.459 103.072C515.017 104.748 516.201 106.731 516.935 108.893C517.668 111.055 517.934 113.346 517.716 115.617H362.664Z" fill="#F0F0F0"/>
<path d="M346.198 97.8594C341.348 97.9336 336.698 99.7889 333.144 103.068C329.589 106.347 327.382 110.817 326.947 115.617L311.061 322.53C310.63 327.329 308.425 331.799 304.873 335.078C301.321 338.357 296.672 340.213 291.824 340.288H446.876C451.726 340.214 456.376 338.358 459.93 335.079C463.485 331.801 465.692 327.33 466.126 322.53L482.013 115.617C482.444 110.818 484.648 106.348 488.201 103.069C491.753 99.7896 496.402 97.9339 501.25 97.8594H346.198Z" fill="white"/>
<path d="M430.36 322.529C430.142 324.8 430.408 327.091 431.142 329.253C431.875 331.415 433.059 333.398 434.617 335.074C436.175 336.75 438.071 338.081 440.181 338.979C442.291 339.877 444.569 340.323 446.864 340.287H291.812C289.517 340.323 287.239 339.877 285.129 338.979C283.019 338.081 281.123 336.75 279.565 335.074C278.007 333.398 276.823 331.415 276.09 329.253C275.356 327.091 275.09 324.8 275.308 322.529H430.36Z" fill="#F0F0F0"/>
<path d="M339.602 318.442C340.193 310.882 337.802 304.771 330.207 304.771H449.597C457.192 304.771 462.908 311.679 459.005 318.442H339.602Z" fill="#E0E0E0"/>
<path d="M430.361 322.529C430.783 317.723 432.983 313.244 436.536 309.956C440.09 306.669 444.743 304.808 449.598 304.732H294.546C289.698 304.807 285.049 306.663 281.497 309.942C277.944 313.221 275.74 317.691 275.309 322.49L430.361 322.529Z" fill="#F0F0F0"/>
<path d="M503.668 373.829H325.686C325.084 373.837 324.487 373.719 323.933 373.483C323.38 373.246 322.882 372.897 322.474 372.458C322.065 372.018 321.753 371.498 321.56 370.931C321.366 370.364 321.295 369.763 321.35 369.167C321.466 367.91 322.045 366.738 322.976 365.878C323.907 365.018 325.125 364.53 326.396 364.506H504.39C504.992 364.5 505.587 364.619 506.139 364.856C506.691 365.093 507.187 365.443 507.594 365.882C508.002 366.321 508.312 366.841 508.505 367.407C508.698 367.973 508.769 368.572 508.713 369.167C508.597 370.425 508.018 371.596 507.087 372.456C506.156 373.316 504.939 373.805 503.668 373.829Z" fill="white"/>
<path d="M413.79 396.237H323.965C323.362 396.247 322.764 396.131 322.209 395.895C321.655 395.66 321.157 395.31 320.747 394.87C320.338 394.43 320.027 393.91 319.834 393.342C319.641 392.774 319.571 392.172 319.629 391.576C319.745 390.318 320.324 389.147 321.255 388.287C322.186 387.427 323.404 386.938 324.675 386.914H414.5C415.102 386.906 415.699 387.024 416.253 387.261C416.806 387.497 417.304 387.846 417.712 388.285C418.121 388.725 418.433 389.245 418.626 389.812C418.82 390.379 418.891 390.98 418.836 391.576C418.72 392.834 418.141 394.005 417.21 394.865C416.279 395.725 415.061 396.213 413.79 396.237Z" fill="white"/>
<path d="M475.983 396.237H439.598C438.995 396.247 438.397 396.13 437.842 395.895C437.288 395.659 436.79 395.31 436.38 394.87C435.971 394.43 435.66 393.909 435.467 393.342C435.274 392.774 435.204 392.172 435.262 391.576C435.378 390.318 435.957 389.147 436.888 388.287C437.819 387.427 439.036 386.938 440.307 386.914H476.692C477.294 386.908 477.89 387.028 478.443 387.264C478.995 387.501 479.492 387.851 479.9 388.29C480.309 388.729 480.62 389.248 480.814 389.814C481.009 390.38 481.081 390.98 481.028 391.576C480.912 392.833 480.333 394.005 479.402 394.865C478.471 395.725 477.253 396.213 475.983 396.237Z" fill="white"/>
<path d="M512.367 307.58L503.077 309.029C502.851 308.174 502.492 307.359 502.013 306.614C501.538 306.045 500.953 305.579 500.291 305.243L499.74 312.333C504.645 313.664 507.878 315.066 509.437 316.537C510.45 317.493 511.225 318.67 511.702 319.976C512.179 321.281 512.343 322.678 512.183 324.058C512.067 325.797 511.526 327.482 510.606 328.967C509.741 330.407 508.609 331.67 507.269 332.688C506.031 333.648 504.635 334.386 503.143 334.869C501.432 335.356 499.666 335.624 497.887 335.665L497.532 340.287H494.063L494.418 335.665C492.443 335.537 490.494 335.146 488.623 334.503C487.222 333.984 485.943 333.184 484.865 332.153C483.902 331.236 483.13 330.14 482.592 328.928C482.037 327.596 481.696 326.186 481.58 324.75L491.632 323.601C491.689 324.822 492.002 326.019 492.552 327.113C493.138 327.952 493.948 328.612 494.891 329.019L495.548 320.363C493.19 319.762 490.887 318.967 488.663 317.986C487.261 317.243 486.096 316.126 485.299 314.761C484.358 313.118 483.971 311.219 484.195 309.342C484.283 307.95 484.649 306.588 485.272 305.338C485.894 304.087 486.761 302.972 487.822 302.057C490.477 299.929 493.792 298.78 497.204 298.806L497.387 296.377H500.988L500.804 298.806C503.761 298.8 506.646 299.713 509.056 301.417C510.905 302.981 512.088 305.183 512.367 307.58ZM496.691 305.125C495.827 305.355 495.039 305.805 494.405 306.431C493.952 306.928 493.683 307.563 493.643 308.233C493.573 308.897 493.746 309.564 494.129 310.113C494.675 310.743 495.398 311.198 496.205 311.419L496.691 305.125ZM498.439 329.267C499.63 329.07 500.739 328.535 501.632 327.727C502.294 327.095 502.705 326.246 502.788 325.337C502.854 324.57 502.619 323.807 502.131 323.209C501.286 322.341 500.218 321.718 499.043 321.407L498.439 329.267Z" fill="white"/>
<path d="M337.329 155.453H341.758L340.667 169.633H336.252L337.329 155.453Z" fill="#011530"/>
<path d="M344.95 155.453H349.063L353.833 163.287L354.437 155.453H358.589L357.499 169.633H353.346L348.603 161.799L347.998 169.633H343.859L344.95 155.453Z" fill="#011530"/>
<path d="M360.115 155.453H364.727L367.158 165.664L371.1 155.453H375.568L369.234 169.633H364.465L360.115 155.453Z" fill="#011530"/>
<path d="M375.239 162.556C375.3 160.519 376.147 158.584 377.604 157.15C379.139 155.814 381.137 155.121 383.175 155.218C384.151 155.143 385.131 155.273 386.052 155.599C386.973 155.926 387.815 156.441 388.523 157.111C389.142 157.841 389.597 158.694 389.857 159.613C390.118 160.531 390.178 161.494 390.035 162.438C389.979 163.868 389.582 165.264 388.878 166.512C388.247 167.562 387.338 168.42 386.25 168.993C385 169.615 383.614 169.92 382.216 169.881C380.86 169.932 379.51 169.668 378.274 169.11C377.24 168.581 376.406 167.733 375.896 166.695C375.303 165.4 375.076 163.969 375.239 162.556ZM379.654 162.556C379.462 163.621 379.663 164.72 380.219 165.65C380.471 165.962 380.795 166.209 381.163 166.37C381.531 166.532 381.933 166.603 382.335 166.577C382.755 166.597 383.176 166.525 383.566 166.368C383.956 166.21 384.307 165.969 384.595 165.663C385.29 164.707 385.655 163.552 385.633 162.373C385.81 161.355 385.6 160.307 385.041 159.435C384.785 159.126 384.459 158.881 384.088 158.722C383.718 158.563 383.315 158.494 382.913 158.521C382.496 158.51 382.083 158.589 381.699 158.751C381.316 158.913 380.973 159.155 380.692 159.461C380.011 160.355 379.646 161.448 379.654 162.569V162.556Z" fill="#011530"/>
<path d="M393.122 155.453H397.537L396.459 169.633H392.031L393.122 155.453Z" fill="#011530"/>
<path d="M409.559 163.835L413.331 164.997C413.04 165.98 412.552 166.895 411.898 167.687C411.311 168.4 410.558 168.96 409.704 169.319C408.686 169.724 407.594 169.915 406.498 169.881C405.215 169.928 403.937 169.696 402.753 169.202C401.726 168.692 400.895 167.862 400.388 166.838C399.716 165.502 399.46 163.998 399.652 162.517C399.689 160.484 400.513 158.544 401.951 157.098C403.456 155.785 405.418 155.111 407.418 155.218C408.883 155.122 410.341 155.502 411.57 156.301C412.617 157.137 413.338 158.31 413.607 159.618L409.665 160.48C409.599 160.149 409.479 159.832 409.31 159.54C409.104 159.212 408.814 158.946 408.469 158.769C408.103 158.583 407.697 158.488 407.286 158.495C406.818 158.481 406.354 158.583 405.936 158.793C405.519 159.003 405.16 159.313 404.895 159.696C404.368 160.53 404.086 161.493 404.08 162.477C403.877 163.579 404.043 164.717 404.553 165.716C404.783 166.009 405.082 166.241 405.423 166.394C405.764 166.546 406.138 166.614 406.511 166.59C406.871 166.613 407.231 166.563 407.57 166.441C407.909 166.32 408.22 166.131 408.482 165.885C409.001 165.297 409.37 164.594 409.559 163.835Z" fill="#011530"/>
<path d="M416.197 155.453H428.023L427.8 158.482H420.402L420.231 160.741H427.051L426.827 163.627H419.968L419.745 166.421H427.366L427.116 169.633H415.08L416.197 155.453Z" fill="#011530"/>
<path d="M463 187.939H334.846L335.108 184.414H463.276L463 187.939Z" fill="#011530"/>
<path d="M463.001 187.939H334.847L334.006 198.764H462.173L463.001 187.939Z" fill="#F0F0F0"/>
<path d="M461.345 209.572H333.177L332.35 220.383H460.517L461.345 209.572Z" fill="#F0F0F0"/>
<path d="M459.676 231.195H331.521L330.693 242.02H458.848L459.676 231.195Z" fill="#F0F0F0"/>
<path d="M458.021 252.832H329.853L329.025 263.643H457.193L458.021 252.832Z" fill="#F0F0F0"/>
<path d="M456.089 277.992H327.922L328.198 274.453H456.365L456.089 277.992Z" fill="#011530"/>
<path d="M441.424 122.039H468.059L466.85 137.825H440.215L441.424 122.039Z" fill="#F0F0F0"/>
<path d="M180.256 222.473L185.012 224.366C186.749 225.06 188.271 226.194 189.427 227.656L191.608 230.398C192.313 231.279 192.683 232.377 192.654 233.502C192.625 234.626 192.199 235.704 191.451 236.548L189.138 239.16C188.715 239.639 188.2 240.029 187.624 240.31C187.048 240.59 186.421 240.753 185.781 240.791C185.14 240.828 184.499 240.739 183.893 240.529C183.287 240.318 182.73 239.99 182.253 239.564L180.019 237.606C180.019 237.606 173.186 232.84 171.176 226.533L172.49 225.228C173.474 224.192 174.69 223.403 176.04 222.924C177.39 222.445 178.834 222.29 180.256 222.473Z" fill="#FFB600"/>
<path d="M193.289 176.67L191.738 177.688L190.017 178.863C188.874 179.673 187.718 180.508 186.601 181.357C184.354 183.094 182.172 184.882 180.149 186.789C176.153 190.355 172.724 194.502 169.979 199.088C169.65 199.637 169.361 200.185 169.085 200.747L168.875 201.164C168.928 200.988 168.972 200.81 169.006 200.629C169.051 200.414 169.051 200.192 169.006 199.976C168.888 199.598 168.875 200.577 169.177 201.543C169.983 204.051 171.034 206.474 172.317 208.777C175.024 213.921 178.414 219.222 181.621 224.445L181.699 224.589C182.335 225.628 182.53 226.875 182.242 228.057C181.954 229.24 181.206 230.26 180.162 230.895C179.357 231.375 178.425 231.603 177.487 231.549C176.55 231.496 175.651 231.163 174.906 230.595C172.28 228.565 169.775 226.385 167.403 224.066C164.977 221.721 162.687 219.241 160.544 216.637C158.157 213.791 156.132 210.664 154.513 207.327C154.028 206.286 153.615 205.213 153.278 204.115C152.844 202.687 152.614 201.206 152.594 199.715C152.585 198.705 152.695 197.697 152.923 196.712C153.055 196.15 153.222 195.596 153.422 195.054L153.672 194.388C154 193.487 154.368 192.612 154.749 191.776C157.819 185.121 162.065 179.067 167.285 173.901C169.754 171.394 172.388 169.051 175.169 166.89C176.562 165.819 177.968 164.775 179.426 163.795C180.162 163.299 180.898 162.803 181.66 162.333L182.829 161.628L184.143 160.871C186.207 159.764 188.617 159.482 190.883 160.082C193.148 160.682 195.097 162.119 196.332 164.1C197.567 166.08 197.994 168.455 197.526 170.737C197.058 173.02 195.73 175.039 193.814 176.382L193.289 176.67Z" fill="#FFB600"/>
<path d="M193.448 155.947C185.774 155.947 177.365 159.251 166.59 172.53C166.59 180.455 183.422 190.992 183.422 190.992C183.422 190.992 211.016 155.882 193.448 155.947Z" fill="#263238"/>
<path d="M136.434 469.823C136.296 469.82 136.159 469.798 136.027 469.758C134.437 469.197 132.939 465.175 132.847 462.929C132.841 462.859 132.856 462.789 132.891 462.728C132.927 462.668 132.98 462.619 133.044 462.59C133.105 462.552 133.176 462.531 133.248 462.531C133.32 462.531 133.391 462.552 133.452 462.59C133.622 462.733 137.578 465.959 137.762 468.126C137.787 468.336 137.769 468.548 137.708 468.751C137.647 468.953 137.544 469.14 137.407 469.301C137.293 469.453 137.146 469.579 136.979 469.669C136.811 469.759 136.625 469.812 136.434 469.823ZM133.688 463.804C134.043 465.932 135.265 468.701 136.316 469.027C136.42 469.06 136.533 469.058 136.635 469.02C136.738 468.982 136.824 468.911 136.881 468.818C136.955 468.732 137.009 468.632 137.041 468.524C137.072 468.416 137.081 468.303 137.065 468.191C136.921 466.951 134.976 464.953 133.688 463.804Z" fill="#263238"/>
<path d="M138.904 465.031C136.818 464.918 134.793 464.299 133.004 463.229C132.946 463.189 132.9 463.133 132.873 463.069C132.845 463.004 132.836 462.933 132.846 462.864C132.858 462.793 132.891 462.727 132.94 462.674C132.989 462.621 133.052 462.582 133.122 462.564C133.332 462.564 138.286 461.258 140.152 462.355C140.339 462.456 140.503 462.596 140.632 462.765C140.761 462.933 140.853 463.127 140.901 463.334C140.968 463.573 140.958 463.828 140.873 464.062C140.788 464.295 140.633 464.497 140.428 464.64C139.97 464.917 139.439 465.054 138.904 465.031ZM134.213 463.06C136.144 464.026 139.127 464.679 140.007 464.078C140.139 463.987 140.257 463.856 140.178 463.504C140.154 463.392 140.105 463.287 140.035 463.196C139.964 463.106 139.874 463.032 139.771 462.981C138.68 462.315 135.908 462.72 134.213 463.06Z" fill="#263238"/>
<path d="M119.233 462.056C123.126 457.917 126.424 453.264 129.036 448.229C129.036 448.229 141.23 451.206 138.838 454.757C134.489 461.09 132.373 474.107 137.971 481.08C141.164 485.062 136.118 485.728 132.715 484.018C127.459 481.315 127.63 480.296 124.831 475.818C122.466 471.992 121.533 470.491 118.261 468.845C115.633 467.422 116.947 464.759 119.233 462.056Z" fill="#011530"/>
<path d="M222.645 234.654C222.645 234.654 204.985 320.308 192.029 356.959C178.442 395.372 140.928 454.664 139.469 457.21C134.134 455.787 129.378 453.933 126.211 450.864C126.211 450.864 143.819 386.559 160.979 344.842C167.549 257.752 181.859 234.72 181.859 234.72L222.645 234.654Z" fill="#263238"/>
<path opacity="0.2" d="M195.668 280.484C194.866 297.053 194.354 319.838 195.103 347.571C200.504 330.283 206.377 306.846 211.318 285.811C208.02 281.437 202.895 279.335 195.668 280.484Z" fill="#FFB600"/>
<path d="M196.732 129.623C198.585 137.079 200.398 149.208 197.442 155.737C197.442 155.737 208.506 156.233 222.645 167.488C229.306 157.774 221.593 155.868 221.593 155.868C215.72 154.562 216.009 146.728 216.022 141.178L196.732 129.623Z" fill="#FFB600"/>
<path d="M193.946 159.068C188.427 158.467 192.237 148.048 195.102 149.066C202.355 151.677 218.623 148.779 223.655 151.534C228.688 154.289 227.413 159.943 227.413 159.943C227.413 159.943 199.885 159.721 193.946 159.068Z" fill="#011530"/>
<path opacity="0.7" d="M193.946 159.068C188.427 158.467 192.237 148.048 195.102 149.066C202.355 151.677 218.623 148.779 223.655 151.534C228.688 154.289 227.413 159.943 227.413 159.943C227.413 159.943 199.885 159.721 193.946 159.068Z" fill="white"/>
<path d="M226.139 116.477C226.323 117.469 226.993 118.187 227.65 118.069C228.307 117.952 228.688 117.051 228.517 116.059C228.347 115.066 227.663 114.348 227.006 114.466C226.349 114.583 226.008 115.484 226.139 116.477Z" fill="#263238"/>
<path d="M226.732 114.569L229.019 113.459C229.019 113.459 228.112 115.548 226.732 114.569Z" fill="#263238"/>
<path d="M227.48 108.511C227.509 108.44 227.525 108.365 227.525 108.289C227.525 108.212 227.509 108.137 227.48 108.067C227.437 107.915 227.336 107.786 227.198 107.708C227.06 107.63 226.897 107.609 226.744 107.649C225.822 107.873 224.967 108.312 224.249 108.929C223.532 109.547 222.973 110.325 222.618 111.2C222.575 111.351 222.59 111.512 222.66 111.652C222.731 111.793 222.852 111.902 222.999 111.958C223.151 112.007 223.316 111.995 223.459 111.924C223.601 111.853 223.71 111.729 223.761 111.579C224.047 110.887 224.496 110.273 225.069 109.789C225.643 109.305 226.326 108.965 227.059 108.798C227.146 108.782 227.228 108.748 227.3 108.698C227.372 108.649 227.434 108.585 227.48 108.511Z" fill="#263238"/>
<path d="M227.322 118.904C228.469 121.105 229.915 123.14 231.619 124.95C231.141 125.372 230.575 125.684 229.962 125.864C229.349 126.045 228.704 126.089 228.071 125.994L227.322 118.904Z" fill="#ED893E"/>
<path d="M191.845 115.968C194.775 128.085 195.787 133.269 202.975 138.478C213.841 146.313 227.875 140.124 228.584 127.406C229.215 115.942 224.327 98.0671 211.634 95.2729C198.941 92.4787 188.915 103.851 191.845 115.968Z" fill="#FFB600"/>
<path d="M215.498 118.2C222.672 108.773 227.324 101.147 223.815 92.804C220.859 85.8316 212.673 87.8685 211.529 91.3547C189.769 89.5137 181.951 97.3478 186.445 110.3C189.31 118.565 178.193 114.217 180.9 124.767C182.963 132.811 175.644 135.879 179.363 140.501C184.724 147.173 195.788 138.477 208.415 143.478C218.717 147.578 234.248 141.376 215.498 118.2Z" fill="#263238"/>
<path d="M214.3 120.106C214.893 121.074 215.685 121.906 216.625 122.547C217.565 123.189 218.631 123.625 219.753 123.827C222.605 124.245 223.59 121.059 222.381 118.108C221.33 115.497 218.584 112.037 215.89 112.99C213.197 113.943 212.684 117.56 214.3 120.106Z" fill="#FFB600"/>
<path d="M218.546 477.815C216.253 477.536 214.092 476.597 212.33 475.112C212.28 475.064 212.243 475.004 212.225 474.937C212.206 474.87 212.206 474.8 212.225 474.733C212.247 474.664 212.289 474.603 212.345 474.557C212.401 474.51 212.469 474.481 212.541 474.472C212.751 474.472 217.797 473.911 219.531 475.295C219.704 475.421 219.846 475.584 219.949 475.771C220.051 475.958 220.11 476.166 220.123 476.378C220.177 476.638 220.142 476.908 220.023 477.145C219.904 477.382 219.707 477.572 219.466 477.684C219.172 477.793 218.858 477.838 218.546 477.815ZM213.539 475.125C215.326 476.365 218.178 477.449 219.137 476.979C219.282 476.901 219.413 476.783 219.387 476.431C219.378 476.317 219.344 476.206 219.288 476.107C219.231 476.007 219.152 475.922 219.058 475.856C218.125 475.047 215.274 475.02 213.539 475.125Z" fill="#263238"/>
<path d="M212.58 475.216C212.521 475.213 212.464 475.198 212.412 475.171C212.359 475.143 212.314 475.106 212.278 475.059C212.239 474.999 212.219 474.929 212.219 474.857C212.219 474.785 212.239 474.715 212.278 474.655C212.383 474.472 214.906 470.058 217.048 469.523C217.254 469.461 217.471 469.444 217.684 469.473C217.897 469.502 218.102 469.577 218.283 469.693C218.518 469.811 218.707 470.003 218.821 470.239C218.936 470.475 218.968 470.742 218.913 470.999C218.624 472.657 214.866 474.785 212.672 475.242L212.58 475.216ZM217.481 470.202H217.218C215.983 470.515 214.314 472.748 213.382 474.198C215.431 473.492 217.994 471.847 218.178 470.803C218.178 470.646 218.178 470.463 217.875 470.267C217.752 470.213 217.616 470.19 217.481 470.202Z" fill="#263238"/>
<path d="M228.308 482.397C217.664 481.574 210.49 474.315 211.226 466.624C211.633 462.381 197.994 462.002 197.994 462.002C200.149 475.15 197.442 477.03 196.548 480.425C195.655 483.82 195.878 487.58 198.703 487.646C202.08 487.737 203.657 487.097 207.901 487.254C212.816 487.45 218.124 487.633 226.862 487.646C230.318 487.659 233.038 482.762 228.308 482.397Z" fill="#011530"/>
<path d="M241.041 234.654C241.041 234.654 240.108 299.534 234.957 342.165C229.806 384.796 212.093 468.413 212.093 468.413C207.435 469.506 202.579 469.461 197.942 468.282C197.942 468.282 192.344 402.998 201.739 339.841C194.841 273.682 190.518 234.654 190.518 234.654H241.041Z" fill="#263238"/>
<path d="M243.46 174.645C243.237 179.659 251.2 191.253 241.371 197.965C243.211 202.051 244.761 229.719 241.042 234.655C235.616 238.572 206.248 237.854 181.912 234.655C180.874 224.653 186.419 203.932 179.626 171.629C179.254 169.86 179.26 168.033 179.645 166.267C180.029 164.501 180.783 162.835 181.857 161.378C182.931 159.92 184.302 158.703 185.88 157.805C187.459 156.908 189.209 156.351 191.018 156.169C193.068 155.973 195.236 155.791 197.457 155.686C205.213 155.144 212.998 155.144 220.754 155.686C223.264 155.921 225.866 156.235 228.349 156.587C232.676 157.193 236.62 159.378 239.414 162.716C242.207 166.055 243.65 170.307 243.46 174.645Z" fill="#011530"/>
<g opacity="0.3">
<path d="M180.229 169.878L179.69 170.178C179.642 170.193 179.597 170.218 179.56 170.252C179.522 170.285 179.493 170.327 179.473 170.373C179.454 170.42 179.445 170.47 179.448 170.52C179.45 170.57 179.464 170.619 179.487 170.663C179.511 170.707 179.545 170.746 179.585 170.776C179.626 170.806 179.672 170.826 179.722 170.836C179.772 170.846 179.823 170.845 179.872 170.833C179.921 170.821 179.966 170.798 180.005 170.766L180.61 170.44C183.238 171.393 186.037 173.56 187.653 173.782C185.025 171.497 183.172 169.865 181.083 170.152C181.7 169.787 182.305 169.421 182.909 169.029C185.301 169.917 187.903 171.902 189.387 172.098C186.97 169.983 185.235 168.468 183.33 168.755L184.644 167.854L185.38 167.319C187.548 168.246 189.834 170.218 191.201 170.492C189.019 168.35 187.482 166.836 185.642 167.136C186.221 166.705 186.786 166.274 187.338 165.83C189.322 166.692 191.424 168.442 192.672 168.742C190.675 166.771 189.269 165.387 187.574 165.648L188.993 164.473L189.335 164.185C191.082 165.099 192.817 166.901 193.96 167.228C192.304 165.256 191.148 163.885 189.414 164.107C189.86 163.728 190.307 163.337 190.728 162.932C192.344 163.781 193.934 165.439 194.985 165.739C193.461 163.924 192.357 162.671 190.807 162.867L192.199 161.561C193.605 162.423 194.946 163.989 195.879 164.316C194.565 162.592 193.724 161.404 192.291 161.469C192.541 161.221 192.791 160.986 193.027 160.738L193.448 160.307C194.762 161.104 195.984 162.553 196.838 162.853C195.681 161.274 194.854 160.164 193.54 160.242C193.921 159.85 194.302 159.446 194.67 159.041C195.852 159.681 196.969 160.895 197.758 161.13C196.72 159.824 195.984 158.858 194.722 158.989L194.932 158.767L195.721 157.853C196.624 158.532 197.563 159.164 198.533 159.746C197.587 158.532 196.917 157.683 195.787 157.774C196.089 157.409 196.391 157.017 196.654 156.625C196.665 156.616 196.674 156.603 196.68 156.59C196.686 156.576 196.689 156.562 196.689 156.547C196.689 156.532 196.686 156.518 196.68 156.504C196.674 156.49 196.665 156.478 196.654 156.469C196.633 156.453 196.608 156.444 196.582 156.444C196.555 156.444 196.53 156.453 196.509 156.469C196.246 156.834 195.971 157.187 195.681 157.526C195.742 156.912 195.569 156.297 195.195 155.803H194.749C195.029 156.432 195.27 157.077 195.471 157.735C195.235 158.009 194.985 158.27 194.749 158.532L194.578 158.714C194.827 157.761 194.328 156.939 193.566 155.894H193.316C193.526 156.704 194.144 157.814 194.394 158.884L193.343 159.942C193.684 158.741 192.843 157.683 191.674 156.181C191.674 157.082 192.778 158.636 193.198 160.098L192.83 160.464L192.107 161.143C192.436 159.837 191.542 158.701 190.268 157.095C190.268 158.062 191.464 159.707 191.923 161.313L190.609 162.449C190.885 161.143 190.005 159.837 188.809 158.14C188.809 159.171 189.874 160.999 190.307 162.71L189.269 163.585C189.571 162.175 188.625 160.79 187.324 158.897C187.324 160.02 188.481 162.005 188.941 163.859L188.665 164.081C188.192 164.473 187.705 164.851 187.219 165.23C187.6 163.781 186.694 162.148 185.445 159.929C185.353 161.13 186.431 163.48 186.759 165.556C186.208 165.974 185.656 166.366 185.091 166.771C185.721 165.125 184.696 163.284 183.277 160.725C183.159 162.031 184.394 164.721 184.749 167.006L184.25 167.345L182.686 168.35C183.409 166.692 182.528 164.734 181.241 162.07C181.175 162.161 181.109 162.253 181.057 162.344C181.149 163.911 182.068 166.418 182.266 168.599C181.687 168.964 181.083 169.304 180.492 169.63C181.175 168.246 180.781 166.679 179.94 164.721C179.747 165.275 179.593 165.842 179.48 166.418C179.819 167.55 180.069 168.707 180.229 169.878Z" fill="#263238"/>
<path d="M213.801 160.83C211.816 159.525 209.859 157.266 208.545 156.783C210.345 159.237 211.632 160.974 213.498 160.974C212.854 161.3 212.184 161.64 211.606 161.992C209.793 160.83 208.006 158.715 206.81 158.271C208.466 160.53 209.648 162.123 211.357 162.188C210.818 162.488 210.292 162.802 209.767 163.115L209.386 163.35C207.796 162.175 206.376 160.125 205.299 159.616C206.613 161.836 207.546 163.363 209.241 163.416C208.729 163.716 208.229 164.042 207.73 164.369C206.284 163.285 204.971 161.392 203.985 160.935C205.194 162.959 206.035 164.369 207.651 164.421L206.074 165.479C204.826 164.408 203.748 162.645 202.881 162.175C203.854 164.068 204.537 165.4 205.969 165.557L205.115 166.157L204.642 166.51C203.486 165.531 202.487 163.899 201.686 163.468C202.592 165.217 203.223 166.432 204.537 166.588C204.09 166.915 203.657 167.241 203.223 167.581C202.145 166.771 201.239 165.4 200.49 165.048C201.318 166.536 201.883 167.568 203.118 167.659L202.881 167.842L201.948 168.625C200.976 167.868 200.148 166.628 199.465 166.301C200.214 167.607 200.779 168.599 201.869 168.691C201.515 169.004 201.16 169.343 200.818 169.696C200.807 169.704 200.798 169.715 200.792 169.728C200.786 169.74 200.783 169.754 200.783 169.768C200.783 169.782 200.786 169.795 200.792 169.808C200.798 169.82 200.807 169.831 200.818 169.84C200.838 169.858 200.864 169.868 200.891 169.868C200.917 169.868 200.943 169.858 200.963 169.84C201.272 169.515 201.601 169.21 201.948 168.926C201.62 169.813 202.093 170.714 202.724 171.942C202.615 170.86 202.435 169.787 202.185 168.73C202.461 168.495 202.737 168.286 203.026 168.064L203.223 167.907C202.776 168.912 203.289 169.918 204.011 171.328C203.883 170.13 203.685 168.939 203.42 167.763C203.827 167.45 204.222 167.163 204.642 166.876C204.116 167.998 204.773 169.187 205.693 170.793C205.785 169.905 204.984 168.181 204.813 166.693L205.233 166.392L206.048 165.844C205.522 167.058 206.219 168.338 207.217 170.127C207.309 169.161 206.455 167.32 206.258 165.7L207.69 164.786C207.204 166.027 207.861 167.398 208.768 169.317C208.926 168.299 208.177 166.327 208.019 164.578L209.188 163.872C208.663 165.178 209.372 166.732 210.371 168.808C210.542 167.698 209.714 165.544 209.556 163.651L209.859 163.481L211.475 162.567C210.87 163.938 211.475 165.687 212.368 168.09C212.657 166.915 211.974 164.421 211.948 162.319C212.565 161.992 213.17 161.679 213.801 161.379C212.907 162.906 213.617 164.878 214.628 167.633C214.944 166.327 214.155 163.52 214.169 161.209L214.707 160.948L216.429 160.19C215.404 161.783 216.048 163.977 216.967 167.019C217.388 165.609 216.705 162.528 216.875 160.008C217.506 159.747 218.189 159.511 218.794 159.276C217.559 161.013 218.268 163.429 219.28 166.797C219.753 165.27 218.991 161.875 219.188 159.146L219.779 158.937C219.823 158.924 219.863 158.902 219.897 158.873C219.931 158.844 219.959 158.808 219.979 158.767C219.999 158.727 220.01 158.683 220.012 158.638C220.014 158.593 220.006 158.548 219.99 158.506C219.957 158.423 219.894 158.356 219.814 158.317C219.733 158.279 219.641 158.271 219.556 158.297L218.912 158.532C217.391 157.569 215.933 156.509 214.55 155.359H213.498C215.207 157.383 216.613 158.741 218.36 158.767C217.69 159.015 217.046 159.303 216.376 159.59C214.155 158.284 211.908 155.973 210.476 155.529C212.526 158.01 213.998 159.773 215.929 159.786L214.458 160.465L213.801 160.83Z" fill="#263238"/>
<path d="M197.389 185.246C195.944 183.679 194.932 182.634 193.513 182.804L194.17 182.007L194.538 181.537C195.852 182.177 197.297 183.483 198.191 183.679C196.877 182.242 195.918 181.224 194.604 181.433C194.945 181.002 195.274 180.571 195.602 180.127C196.85 180.623 198.099 181.707 198.913 181.851C197.718 180.636 196.89 179.788 195.642 180.062C195.71 179.985 195.772 179.902 195.826 179.814C196.062 179.487 196.285 179.161 196.509 178.822C197.488 179.401 198.496 179.928 199.531 180.401C198.44 179.292 197.691 178.521 196.575 178.743C196.837 178.338 197.087 177.921 197.31 177.438C197.323 177.412 197.324 177.382 197.314 177.355C197.304 177.328 197.284 177.306 197.258 177.294C197.232 177.282 197.202 177.28 197.175 177.29C197.148 177.3 197.125 177.32 197.113 177.346C196.902 177.74 196.665 178.119 196.404 178.482C196.483 177.542 195.786 176.798 194.84 175.779C195.238 176.797 195.704 177.787 196.233 178.743L195.602 179.605L195.445 179.801C195.615 178.717 194.84 177.881 193.776 176.719C194.216 177.846 194.725 178.945 195.3 180.01L194.367 181.185C194.564 179.944 193.618 178.991 192.278 177.62C192.435 178.508 193.592 179.944 194.236 181.342L193.907 181.746L193.263 182.491C193.447 181.185 192.435 180.14 190.99 178.678C191.161 179.631 192.475 181.185 193.106 182.686L191.976 183.992C192.107 182.686 191.095 181.498 189.702 179.905C189.834 180.937 191.095 182.634 191.713 184.279L190.78 185.272C190.924 183.835 189.821 182.569 188.309 180.832C188.441 181.942 189.807 183.796 190.478 185.572L190.228 185.833C189.807 186.277 189.361 186.708 188.914 187.139C189.137 185.663 188.06 184.149 186.575 182.073C186.575 183.274 187.889 185.494 188.533 187.517C188.034 187.988 187.521 188.458 187.009 188.902C187.455 187.204 186.233 185.494 184.525 183.104C184.525 184.41 186.089 186.943 186.693 189.176L186.233 189.567C185.76 189.972 185.274 190.364 184.788 190.756C185.353 188.941 184.131 187.008 182.436 184.319C182.436 185.781 183.894 188.575 184.407 191.043C183.873 191.461 183.321 191.865 182.751 192.257C182.925 191.644 182.971 191.002 182.885 190.371C182.799 189.74 182.584 189.133 182.252 188.588C182.41 190.142 182.541 191.657 182.646 193.145L182.83 193.014C185.524 193.68 188.572 195.508 190.202 195.548C187.363 193.563 185.314 192.153 183.303 192.675C183.881 192.244 184.446 191.8 184.998 191.369C187.482 191.983 190.254 193.667 191.778 193.706C189.15 191.865 187.245 190.547 185.379 191.095C185.8 190.743 186.207 190.403 186.614 190.037L187.285 189.424C189.545 190.116 192.041 191.826 193.421 191.931C191.029 190.051 189.321 188.719 187.521 189.215C188.047 188.732 188.559 188.236 189.072 187.726C191.135 188.366 193.434 189.933 194.696 190.037C192.488 188.301 190.924 187.074 189.269 187.531C189.702 187.087 190.136 186.656 190.583 186.225L190.885 185.898C192.725 186.617 194.656 188.21 195.826 188.418C193.96 186.643 192.659 185.402 190.964 185.807C191.358 185.376 191.765 184.932 192.146 184.501C193.841 185.167 195.615 186.63 196.693 186.812C194.985 185.18 193.789 184.057 192.225 184.423C192.646 183.953 193.053 183.47 193.447 182.987C194.919 183.613 196.43 185.024 197.389 185.246Z" fill="#263238"/>
<path d="M220.267 184.293C219.321 184.711 218.046 186.396 216.64 187.466L215.418 186.866C216.85 186.591 217.744 185.181 218.979 183.236C217.941 183.68 216.561 185.521 215.037 186.683L214.722 186.513C214.17 186.239 213.631 185.939 213.092 185.651C214.577 185.429 215.72 183.954 217.284 181.93C216.128 182.322 214.393 184.241 212.619 185.39C212.015 185.051 211.423 184.711 210.832 184.346C212.593 184.28 213.894 182.609 215.694 180.285C214.38 180.729 212.448 182.896 210.438 184.124L209.925 183.81L208.375 182.779C210.267 182.779 211.778 181.068 213.867 178.666C212.448 179.058 210.201 181.277 207.981 182.505C207.411 182.113 206.859 181.708 206.325 181.29C208.454 181.395 210.123 179.502 212.448 176.838C210.885 177.256 208.414 179.723 205.983 181.029L205.497 180.637C205.432 180.576 205.345 180.542 205.254 180.542C205.164 180.542 205.077 180.576 205.011 180.637C204.95 180.701 204.916 180.785 204.916 180.872C204.916 180.96 204.95 181.044 205.011 181.108L205.55 181.525C205.708 184.28 204.827 187.714 205.261 189.281C206.338 185.991 207.114 183.628 206.023 181.878C206.601 182.296 207.192 182.7 207.784 183.092C207.915 185.704 207.114 188.785 207.521 190.221C208.519 187.179 209.229 184.998 208.191 183.366L209.505 184.228L210.293 184.698C210.293 187.035 209.374 189.921 209.663 191.227C210.78 188.406 211.568 186.396 210.569 184.842C211.187 185.194 211.883 185.534 212.448 185.873C212.448 188.028 211.607 190.652 211.87 191.893C212.895 189.281 213.618 187.44 212.698 186.004L214.354 186.84L214.748 187.035C214.603 188.981 213.631 191.292 213.776 192.454C214.945 190.169 215.747 188.537 214.853 187.075L216.469 187.819C216.325 189.621 215.431 191.736 215.576 192.82C216.64 190.704 217.376 189.242 216.561 187.871C217.139 188.132 217.718 188.38 218.309 188.615C218.072 190.234 217.152 192.088 217.218 193.068C218.309 191.227 219.058 189.947 218.427 188.667L219.399 189.059L219.951 189.268C219.741 190.77 218.9 192.467 218.953 193.368C219.951 191.684 220.648 190.495 220.07 189.307C220.582 189.503 221.094 189.699 221.62 189.869C221.515 191.174 220.832 192.702 220.937 193.525C221.751 192.036 222.251 190.992 221.699 189.895L221.988 189.999C222.369 190.117 222.75 190.247 223.144 190.352C222.876 191.45 222.666 192.561 222.514 193.681C223.249 192.376 223.828 191.383 223.236 190.378C223.701 190.523 224.175 190.637 224.655 190.717C224.681 190.721 224.708 190.716 224.73 190.701C224.752 190.687 224.767 190.664 224.774 190.639C224.778 190.612 224.773 190.583 224.758 190.559C224.744 190.535 224.721 190.517 224.695 190.509C224.248 190.417 223.814 190.3 223.381 190.169C224.301 189.96 224.813 189.098 225.51 187.897C224.853 188.184 224.025 189.346 223.079 190.078L222.067 189.738L221.83 189.647C222.921 189.49 223.499 188.511 224.301 187.153C223.552 187.479 222.645 188.772 221.581 189.555C221.121 189.386 220.648 189.216 220.188 189.02C221.423 188.85 222.08 187.714 222.987 186.004C222.185 186.409 221.16 187.989 219.991 188.942L219.505 188.746L218.598 188.354C219.912 188.158 220.621 186.879 221.607 185.09C220.74 185.521 219.636 187.218 218.375 188.263C217.849 188.041 217.336 187.806 216.824 187.558C218.309 187.375 219.137 186.082 220.267 184.293Z" fill="#263238"/>
<path d="M212.685 201.699C213.694 202.213 214.729 202.675 215.786 203.083C214.643 202.051 213.828 201.333 212.737 201.607C212.974 201.19 213.197 200.772 213.394 200.302C213.401 200.289 213.404 200.275 213.405 200.261C213.405 200.247 213.403 200.232 213.398 200.219C213.393 200.206 213.386 200.194 213.376 200.183C213.366 200.173 213.355 200.164 213.342 200.158C213.329 200.152 213.315 200.149 213.301 200.148C213.286 200.147 213.272 200.15 213.259 200.154C213.245 200.159 213.233 200.167 213.222 200.176C213.212 200.186 213.203 200.197 213.197 200.21C213 200.615 212.79 201.007 212.567 201.398C212.567 200.458 211.831 199.753 210.832 198.787C211.29 199.773 211.812 200.728 212.396 201.647L211.831 202.548L211.686 202.756C211.778 201.66 210.964 200.876 209.82 199.793C210.333 200.882 210.908 201.941 211.542 202.965L210.701 204.206C210.819 202.965 209.807 202.051 208.388 200.785C208.598 201.66 209.912 203.018 210.569 204.375L210.267 204.793C210.083 205.054 209.873 205.316 209.676 205.577C209.781 204.271 208.703 203.279 207.166 201.921C207.403 202.861 208.809 204.323 209.531 205.838C209.19 206.295 208.835 206.739 208.48 207.144C208.48 205.838 207.455 204.715 205.957 203.226C206.154 204.232 207.521 205.838 208.23 207.457C207.95 207.814 207.661 208.166 207.363 208.515C207.363 207.065 206.246 205.903 204.63 204.232C204.827 205.329 206.312 207.091 207.1 208.828L206.864 209.102C206.457 209.572 206.049 210.029 205.629 210.473C205.76 208.998 204.578 207.535 203.001 205.564C203.106 206.765 204.591 208.893 205.3 210.878C204.827 211.374 204.354 211.87 203.868 212.353C204.196 210.643 202.869 208.998 201.017 206.726C201.148 208.031 202.83 210.46 203.566 212.654L203.145 213.071L201.766 214.377C202.212 212.536 200.872 210.682 199.019 208.11C199.019 209.572 200.741 212.275 201.411 214.638C200.898 215.095 200.373 215.539 199.834 215.944C200.425 213.907 198.967 211.857 196.891 208.998C196.891 210.604 198.783 213.555 199.519 216.205L199.019 216.597C198.984 216.624 198.954 216.658 198.932 216.697C198.91 216.736 198.896 216.779 198.89 216.823C198.885 216.867 198.888 216.912 198.9 216.955C198.912 216.998 198.933 217.038 198.96 217.073C198.988 217.109 199.022 217.138 199.061 217.16C199.1 217.182 199.143 217.196 199.188 217.201C199.232 217.207 199.277 217.204 199.321 217.192C199.364 217.18 199.404 217.16 199.44 217.132L199.965 216.701C202.699 217.184 205.865 218.83 207.495 218.764C204.525 216.962 202.396 215.67 200.425 216.323C200.964 215.866 201.503 215.382 202.028 214.899C204.538 215.356 207.442 216.858 208.94 216.806C206.194 215.134 204.21 213.946 202.37 214.573C202.764 214.194 203.158 213.829 203.539 213.437L204.183 212.784C206.47 213.333 209.071 214.873 210.451 214.899C207.941 213.176 206.167 211.949 204.394 212.562C204.893 212.04 205.366 211.518 205.839 210.982C207.955 211.478 210.333 212.902 211.607 212.928C209.295 211.335 207.665 210.212 206.036 210.76C206.443 210.303 206.838 209.833 207.232 209.363L207.508 209.011C209.4 209.611 211.45 211.087 212.606 211.217C210.622 209.559 209.255 208.41 207.587 208.932L208.69 207.548C210.425 208.097 212.278 209.442 213.368 209.559C211.555 208.044 210.293 206.948 208.756 207.457C209.137 206.961 209.518 206.452 209.886 205.942C211.423 206.543 213.027 207.862 213.999 208.018C212.448 206.556 211.371 205.524 209.965 205.838C210.175 205.564 210.372 205.276 210.569 205.002C210.766 204.728 210.793 204.663 210.911 204.506C212.317 205.054 213.789 206.269 214.695 206.412C213.263 205.107 212.264 204.114 210.977 204.402C211.292 203.949 211.594 203.492 211.883 203.031C213.197 203.448 214.511 204.454 215.3 204.545C213.986 203.409 213.145 202.613 211.923 202.965L212.094 202.704L212.685 201.699Z" fill="#263238"/>
<path d="M220.646 216.269C220.927 215.912 221.216 215.573 221.514 215.251C221.317 216.165 221.882 217.001 222.67 218.15C222.42 217.088 222.109 216.042 221.737 215.016L222.486 214.259L222.657 214.076C222.341 215.133 222.972 216.073 223.866 217.366C223.591 216.194 223.248 215.039 222.841 213.906L223.931 212.875C223.564 214.063 224.352 215.16 225.482 216.7C225.482 215.799 224.457 214.193 224.089 212.783L224.483 212.444L225.219 211.791C224.838 213.097 225.692 214.246 226.901 215.904C226.901 214.924 225.81 213.201 225.403 211.634C225.837 211.255 226.27 210.903 226.717 210.537C226.389 211.843 227.216 213.149 228.346 214.911C228.346 213.88 227.387 212 227.032 210.289L228.11 209.454C227.742 210.851 228.649 212.261 229.884 214.206C229.884 213.083 228.833 211.047 228.438 209.192L228.728 208.971L230.212 207.887C229.779 209.31 230.62 210.968 231.789 213.24C231.921 212.039 230.935 209.649 230.659 207.573C231.224 207.182 231.789 206.79 232.367 206.411C231.671 208.03 232.63 209.911 233.97 212.522C234.128 211.216 232.985 208.487 232.656 206.189L233.156 205.876C233.694 205.55 234.233 205.223 234.772 204.923C233.944 206.62 234.864 208.709 236.086 211.621C236.336 210.172 235.284 207.195 235.14 204.688C235.731 204.348 236.336 204.022 236.953 203.722C235.941 205.589 236.953 207.9 238.372 211.125C238.648 209.545 237.479 206.268 237.334 203.539L237.886 203.265C237.926 203.246 237.963 203.22 237.992 203.188C238.022 203.156 238.045 203.117 238.06 203.076C238.075 203.035 238.081 202.991 238.078 202.947C238.075 202.903 238.064 202.86 238.044 202.821C238.024 202.78 237.997 202.744 237.963 202.714C237.929 202.684 237.89 202.661 237.847 202.647C237.804 202.632 237.759 202.626 237.714 202.629C237.668 202.632 237.624 202.644 237.584 202.664L236.979 202.977C234.417 201.933 231.658 199.661 230.055 199.387C232.578 201.763 234.391 203.474 236.454 203.304C235.823 203.63 235.206 203.996 234.588 204.348C232.223 203.382 229.7 201.306 228.228 201.058C230.567 203.265 232.249 204.831 234.168 204.609L232.788 205.471L232.026 205.98C229.897 204.962 227.676 202.912 226.336 202.599C228.425 204.818 229.91 206.385 231.763 206.15C231.172 206.555 230.593 206.973 230.015 207.456C228.057 206.529 226.073 204.649 224.759 204.361C226.691 206.398 228.057 207.835 229.752 207.639C229.266 208.004 228.767 208.37 228.294 208.749L227.939 209.036C226.231 208.057 224.562 206.189 223.432 205.824C225.009 207.861 226.06 209.258 227.86 209.101L226.481 210.224C224.904 209.336 223.366 207.613 222.328 207.273C223.787 209.14 224.799 210.433 226.402 210.302C225.916 210.707 225.443 211.112 224.97 211.608C223.656 210.694 222.342 209.075 221.395 208.722C222.591 210.485 223.445 211.712 224.878 211.699L224.102 212.391L223.669 212.809C222.355 211.961 221.225 210.472 220.371 210.198C221.487 211.817 222.263 212.953 223.59 212.94C223.182 213.318 222.788 213.697 222.407 214.089C221.251 213.423 220.173 212.169 219.385 211.908C220.384 213.214 221.08 214.232 222.355 214.154L222.144 214.363C221.868 214.65 221.579 214.951 221.317 215.251C220.252 214.624 219.28 213.488 218.57 213.253C219.477 214.494 220.108 215.368 221.198 215.329C220.871 215.681 220.563 216.052 220.279 216.439C220.267 216.449 220.258 216.461 220.252 216.474C220.246 216.488 220.243 216.503 220.243 216.517C220.243 216.532 220.246 216.547 220.252 216.56C220.258 216.574 220.267 216.586 220.279 216.596C220.287 216.607 220.298 216.615 220.311 216.621C220.323 216.627 220.337 216.631 220.351 216.631C220.365 216.631 220.378 216.627 220.391 216.621C220.403 216.615 220.414 216.607 220.423 216.596L220.646 216.269Z" fill="#263238"/>
<path d="M205.248 234.876C205.774 234.389 206.286 233.892 206.786 233.388C208.862 234.027 211.148 235.594 212.423 235.699C210.215 233.962 208.652 232.735 206.996 233.179C207.43 232.748 207.863 232.304 208.31 231.873L208.612 231.547C210.452 232.265 212.37 233.858 213.553 234.067C211.687 232.278 210.386 231.05 208.678 231.455C209.085 231.024 209.479 230.58 209.874 230.149C211.569 230.815 213.343 232.278 214.42 232.461C212.699 230.828 211.503 229.692 209.952 230.071L211.175 228.635C212.672 229.327 214.184 230.737 215.117 230.959C213.671 229.405 212.646 228.348 211.175 228.53L211.832 227.734L212.199 227.264C213.579 227.904 214.972 229.196 215.865 229.405C214.551 227.956 213.592 226.951 212.278 227.159C212.62 226.729 212.948 226.298 213.264 225.854C214.578 226.35 215.76 227.434 216.575 227.577C215.392 226.363 214.565 225.514 213.316 225.788L213.5 225.54C213.724 225.214 213.96 224.888 214.184 224.548C215.159 225.121 216.164 225.644 217.193 226.115C216.115 225.018 215.353 224.248 214.236 224.457C214.504 224.057 214.75 223.643 214.972 223.216C214.979 223.204 214.983 223.191 214.985 223.177C214.987 223.164 214.986 223.15 214.982 223.136C214.979 223.123 214.972 223.11 214.964 223.1C214.955 223.089 214.945 223.079 214.933 223.073C214.92 223.066 214.907 223.061 214.893 223.06C214.88 223.058 214.866 223.059 214.852 223.062C214.839 223.066 214.826 223.072 214.815 223.081C214.804 223.089 214.795 223.1 214.788 223.112C214.569 223.503 214.332 223.882 214.078 224.248C214.078 223.308 213.461 222.563 212.515 221.545C212.894 222.557 213.333 223.547 213.829 224.509L213.211 225.371L213.054 225.566C213.224 224.483 212.449 223.647 211.372 222.485C211.82 223.604 212.329 224.698 212.896 225.762C212.594 226.167 212.291 226.559 211.976 226.937C212.173 225.71 211.227 224.744 209.887 223.386C210.044 224.274 211.266 225.71 211.845 227.107C211.726 227.238 211.621 227.381 211.516 227.512L210.872 228.256C211.056 226.95 210.044 225.906 208.599 224.444C208.77 225.397 210.084 226.937 210.715 228.452L209.585 229.758C209.716 228.452 208.704 227.264 207.311 225.671C207.43 226.689 208.625 228.4 209.309 230.045L208.376 231.037C208.52 229.588 207.43 228.335 205.919 226.598C206.05 227.708 207.416 229.562 208.087 231.338L207.837 231.599L206.523 232.904C206.746 231.429 205.656 229.901 204.171 227.838C204.171 229.04 205.551 231.259 206.129 233.283L204.618 234.667C205.051 232.97 203.842 231.259 202.121 228.87C202.121 230.176 203.698 232.709 204.302 234.941L203.842 235.333C203.369 235.738 202.883 236.13 202.397 236.508C202.962 234.706 201.74 232.774 200.045 230.084C200.045 231.533 201.464 234.275 201.99 236.717H203.001C203.409 236.378 203.816 236.038 204.21 235.686C204.604 235.333 204.67 235.281 204.894 235.072C206.447 235.654 207.965 236.325 209.44 237.083H210.439C208.468 235.529 206.891 234.419 205.248 234.876Z" fill="#263238"/>
<path d="M197.98 230.855C197.98 232.161 198.966 234.303 199.662 236.483L200.661 236.561C200.543 234.942 199.426 233.153 197.98 230.855Z" fill="#263238"/>
<path d="M203.197 236.744L205.181 236.862C204.545 236.636 203.856 236.595 203.197 236.744Z" fill="#263238"/>
<path d="M241.433 234.002C241.474 233.926 241.509 233.847 241.539 233.767L241.066 233.597L240.829 233.519C241.199 233.457 241.545 233.294 241.828 233.049C241.946 232.709 242.064 232.344 242.169 231.939C241.678 232.474 241.147 232.972 240.579 233.427L239.147 232.918C240.382 232.735 241.039 231.612 241.946 229.889C241.144 230.294 240.119 231.874 238.95 232.84L238.464 232.644L237.557 232.252C238.871 232.043 239.581 230.777 240.566 228.975C239.699 229.419 238.595 231.116 237.334 232.161L235.783 231.456C237.097 231.181 237.912 229.889 239.042 228.1C238.096 228.518 236.821 230.215 235.415 231.286L234.193 230.685C235.626 230.398 236.519 228.988 237.754 227.042C236.716 227.499 235.337 229.34 233.812 230.489L233.497 230.333L231.868 229.458C233.352 229.236 234.496 227.761 236.059 225.75C234.903 226.141 233.168 228.061 231.395 229.197C230.79 228.87 230.199 228.518 229.607 228.165C231.368 228.087 232.669 226.429 234.469 224.105C233.155 224.535 231.224 226.716 229.213 227.943L228.701 227.63C228.175 227.291 227.663 226.951 227.15 226.585C229.042 226.585 230.554 224.875 232.643 222.486C231.224 222.877 228.977 225.097 226.756 226.324L225.087 225.097C227.229 225.201 228.898 223.308 231.224 220.645C229.66 221.075 227.19 223.53 224.759 224.836L224.273 224.457C224.237 224.43 224.197 224.409 224.154 224.398C224.11 224.386 224.065 224.382 224.021 224.388C223.931 224.399 223.849 224.445 223.793 224.516C223.737 224.587 223.712 224.677 223.723 224.766C223.734 224.856 223.781 224.937 223.852 224.992L224.391 225.397C224.549 228.152 223.668 231.599 224.102 233.153C225.179 229.876 225.955 227.512 224.864 225.75C225.442 226.181 226.033 226.585 226.625 226.977C226.756 229.51 225.955 232.67 226.362 234.106C227.361 231.051 228.07 228.883 227.032 227.251C227.492 227.539 227.939 227.839 228.346 228.113L229.134 228.583C229.134 230.92 228.215 233.806 228.504 235.112C229.621 232.278 230.409 230.281 229.41 228.714C230.028 229.079 230.724 229.419 231.289 229.745C231.289 231.9 230.448 234.537 230.711 235.764C231.736 233.153 232.459 231.325 231.539 229.889L233.195 230.711L233.589 230.907C233.444 232.866 232.472 235.164 232.617 236.339C233.786 234.041 234.588 232.422 233.694 230.96L235.31 231.704C235.179 233.453 234.338 235.477 234.404 236.587H234.469C235.507 234.55 236.204 233.114 235.402 231.756L237.15 232.513C236.953 233.819 236.322 235.281 236.125 236.313L236.48 236.248C237.321 234.785 237.794 233.636 237.268 232.566L238.227 232.944L238.792 233.166C238.611 234.087 238.365 234.995 238.057 235.882L238.661 235.699C238.902 235.334 239.051 234.917 239.094 234.483C239.138 234.048 239.075 233.61 238.911 233.205L240.461 233.767C240.415 234.208 240.332 234.645 240.211 235.072C240.412 234.973 240.605 234.859 240.79 234.733C240.796 234.399 240.709 234.069 240.54 233.78L240.829 233.871L241.433 234.002Z" fill="#263238"/>
<path d="M190.871 206.804C190.957 206.777 191.028 206.719 191.072 206.641C191.116 206.564 191.129 206.473 191.108 206.386C191.083 206.3 191.025 206.227 190.947 206.183C190.868 206.139 190.775 206.127 190.687 206.151L190.03 206.347C187.705 204.846 185.431 202.104 183.907 201.529C185.931 204.337 187.389 206.347 189.465 206.517C188.782 206.726 188.151 206.961 187.429 207.209C185.852 206.178 184.301 204.598 183.027 203.553C183.027 203.853 183.027 204.141 183.027 204.441C184.341 206.138 185.484 207.274 186.969 207.379C186.456 207.562 185.957 207.757 185.458 207.966L184.604 208.319C184.043 207.899 183.511 207.441 183.014 206.948C183.014 207.314 183.014 207.666 183.014 208.032C183.414 208.268 183.864 208.41 184.328 208.449L183.014 209.063C183.014 209.246 183.014 209.429 183.014 209.612L184.788 208.854C183.802 210.317 184.393 212.34 185.208 215.148C185.615 213.842 184.998 211.009 185.208 208.698L185.76 208.476L187.521 207.836C186.391 209.363 186.89 211.596 187.613 214.678C188.125 213.307 187.613 210.186 187.967 207.692C188.624 207.47 189.281 207.261 189.938 207.079C188.624 208.737 189.15 211.178 189.938 214.625C190.503 213.124 189.938 209.69 190.346 206.974L190.871 206.804Z" fill="#263238"/>
<path d="M182.752 214.939C182.752 215.096 182.831 215.239 182.883 215.409C183.051 214.275 183.051 213.122 182.883 211.988C182.844 212.994 182.805 213.986 182.752 214.939Z" fill="#263238"/>
<path d="M187.404 234.041L186.917 233.271C187.982 231.182 190.11 229.027 190.452 227.695C188.166 229.719 186.51 231.156 186.747 232.997C186.352 232.396 185.945 231.821 185.538 231.234C186.523 229.315 188.468 227.317 188.796 226.129C186.694 227.983 185.209 229.301 185.367 230.999L184.276 229.51L184.013 229.158C185.025 227.487 186.944 225.868 187.351 224.758C185.262 226.272 183.816 227.369 183.948 229.08L182.844 227.682C183.79 226.142 185.551 224.653 185.919 223.635C184 225.032 182.673 225.998 182.778 227.552L181.964 226.586V227.134L182.437 227.709C182.272 227.67 182.106 227.644 181.937 227.63C181.937 227.826 181.937 228.009 181.937 228.205L182.699 228.022L183.527 229.119C182.995 228.963 182.43 228.963 181.898 229.119V229.928C182.523 229.71 183.165 229.54 183.816 229.419L184.027 229.693L185.091 231.208C184.004 230.973 182.869 231.125 181.885 231.639C181.885 231.874 181.885 232.122 181.885 232.357C183.045 232.059 184.221 231.824 185.406 231.652C185.787 232.226 186.155 232.801 186.51 233.388C185.262 232.814 183.882 233.245 181.977 234.054C181.977 234.224 181.977 234.42 181.977 234.576H182.266C183.725 234.205 185.203 233.913 186.694 233.702L187.009 234.211L187.574 235.216L188.31 235.308C187.969 234.955 187.693 234.498 187.404 234.041Z" fill="#263238"/>
<path d="M182.266 222.186V222.8C182.636 222.456 182.946 222.055 183.185 221.611L182.266 222.186Z" fill="#263238"/>
<path d="M189.992 235.606L191.162 235.737C192.148 234.434 192.948 233.001 193.54 231.48C192.173 232.688 190.979 234.076 189.992 235.606Z" fill="#263238"/>
<path d="M188.665 235.529C189.755 233.322 191.687 231.05 191.963 229.666C189.676 231.938 188.021 233.583 188.231 235.476L188.665 235.529Z" fill="#263238"/>
<path d="M182.095 224.522C182.095 224.875 182.095 225.214 182.029 225.554C182.961 224.674 183.806 223.708 184.552 222.668C183.654 223.175 182.828 223.799 182.095 224.522Z" fill="#263238"/>
</g>
<path d="M273.313 192.598L279.121 186.475L287.176 197.743C287.176 197.743 280.383 202.522 273.878 202.339L273.129 200.681C272.528 199.411 272.232 198.02 272.264 196.618C272.296 195.215 272.655 193.839 273.313 192.598Z" fill="#FFB600"/>
<path d="M288.49 187.075L290.763 191.318C291.262 192.251 291.369 193.341 291.061 194.351C290.754 195.362 290.056 196.21 289.121 196.711L287.229 197.742L279.174 186.474L283.786 185.169C284.671 184.9 285.622 184.943 286.479 185.29C287.336 185.637 288.047 186.268 288.49 187.075Z" fill="#FFB600"/>
<path d="M242.67 170.623L243.169 173.117L243.721 175.729C244.115 177.491 244.496 179.267 244.943 180.951C245.797 184.451 246.822 187.885 247.912 191.201C249 194.386 250.318 197.488 251.854 200.485C253.083 202.949 254.707 205.198 256.664 207.144L253.878 205.838C253.063 205.733 252.906 205.982 253.339 205.968C254.03 205.895 254.701 205.7 255.323 205.394C257.292 204.496 259.167 203.407 260.921 202.143C262.879 200.837 264.863 199.296 266.821 197.716C268.779 196.137 270.763 194.452 272.681 192.898L272.892 192.742C273.714 192.074 274.743 191.708 275.805 191.706C276.867 191.703 277.898 192.063 278.724 192.726C279.55 193.39 280.121 194.315 280.342 195.347C280.562 196.38 280.419 197.456 279.935 198.395C278.615 200.897 277.145 203.317 275.533 205.642C273.889 207.997 272.099 210.247 270.172 212.379C268.069 214.732 265.691 216.827 263.089 218.621C261.459 219.714 259.692 220.592 257.833 221.232C256.635 221.648 255.391 221.919 254.128 222.042C252.56 222.18 250.981 222.065 249.45 221.702C248.555 221.488 247.712 221.102 246.966 220.566L246.651 220.331C242.615 217.327 239.216 213.56 236.652 209.246C235.451 207.305 234.374 205.346 233.419 203.37C232.464 201.394 231.588 199.418 230.791 197.442C229.271 193.542 227.981 189.558 226.928 185.508C226.415 183.497 225.929 181.5 225.522 179.476C225.325 178.457 225.115 177.452 224.944 176.421C224.773 175.389 224.615 174.423 224.444 173.195C224.141 170.85 224.764 168.478 226.183 166.579C227.602 164.68 229.707 163.402 232.055 163.013C234.403 162.624 236.811 163.155 238.774 164.494C240.736 165.833 242.099 167.875 242.578 170.192L242.67 170.623Z" fill="#FFB600"/>
<path d="M230.069 156.913C237.716 157.696 243.826 162.736 248.097 178.783C244.812 183.301 224.116 193.211 224.116 193.211C224.116 193.211 212.592 155.124 230.069 156.913Z" fill="#263238"/>
</svg>
