<svg width="41" height="40" viewBox="0 0 41 40" fill="none" xmlns="http://www.w3.org/2000/svg">
<rect x="0.5" width="40" height="40" rx="8" fill="#011530"/>
<path d="M21.5 24.0001H15.5C15.2348 24.0001 14.9804 24.1054 14.7929 24.293C14.6054 24.4805 14.5 24.7349 14.5 25.0001C14.5 25.2653 14.6054 25.5196 14.7929 25.7072C14.9804 25.8947 15.2348 26.0001 15.5 26.0001H21.5C21.7652 26.0001 22.0196 25.8947 22.2071 25.7072C22.3947 25.5196 22.5 25.2653 22.5 25.0001C22.5 24.7349 22.3947 24.4805 22.2071 24.293C22.0196 24.1054 21.7652 24.0001 21.5 24.0001ZM17.5 18.0001H19.5C19.7652 18.0001 20.0196 17.8947 20.2071 17.7072C20.3947 17.5196 20.5 17.2653 20.5 17.0001C20.5 16.7349 20.3947 16.4805 20.2071 16.293C20.0196 16.1054 19.7652 16.0001 19.5 16.0001H17.5C17.2348 16.0001 16.9804 16.1054 16.7929 16.293C16.6054 16.4805 16.5 16.7349 16.5 17.0001C16.5 17.2653 16.6054 17.5196 16.7929 17.7072C16.9804 17.8947 17.2348 18.0001 17.5 18.0001ZM29.5 20.0001H26.5V11.0001C26.5007 10.8239 26.4548 10.6506 26.367 10.4978C26.2792 10.345 26.1526 10.2182 26 10.1301C25.848 10.0423 25.6755 9.99609 25.5 9.99609C25.3245 9.99609 25.152 10.0423 25 10.1301L22 11.8501L19 10.1301C18.848 10.0423 18.6755 9.99609 18.5 9.99609C18.3245 9.99609 18.152 10.0423 18 10.1301L15 11.8501L12 10.1301C11.848 10.0423 11.6755 9.99609 11.5 9.99609C11.3245 9.99609 11.152 10.0423 11 10.1301C10.8474 10.2182 10.7208 10.345 10.633 10.4978C10.5452 10.6506 10.4993 10.8239 10.5 11.0001V27.0001C10.5 27.7957 10.8161 28.5588 11.3787 29.1214C11.9413 29.684 12.7044 30.0001 13.5 30.0001H27.5C28.2957 30.0001 29.0587 29.684 29.6213 29.1214C30.1839 28.5588 30.5 27.7957 30.5 27.0001V21.0001C30.5 20.7349 30.3947 20.4805 30.2071 20.293C30.0196 20.1054 29.7652 20.0001 29.5 20.0001ZM13.5 28.0001C13.2348 28.0001 12.9804 27.8947 12.7929 27.7072C12.6054 27.5196 12.5 27.2653 12.5 27.0001V12.7301L14.5 13.8701C14.6543 13.9507 14.8259 13.9928 15 13.9928C15.1741 13.9928 15.3457 13.9507 15.5 13.8701L18.5 12.1501L21.5 13.8701C21.6543 13.9507 21.8259 13.9928 22 13.9928C22.1741 13.9928 22.3457 13.9507 22.5 13.8701L24.5 12.7301V27.0001C24.5027 27.3412 24.5636 27.6794 24.68 28.0001H13.5ZM28.5 27.0001C28.5 27.2653 28.3947 27.5196 28.2071 27.7072C28.0196 27.8947 27.7652 28.0001 27.5 28.0001C27.2348 28.0001 26.9804 27.8947 26.7929 27.7072C26.6054 27.5196 26.5 27.2653 26.5 27.0001V22.0001H28.5V27.0001ZM21.5 20.0001H15.5C15.2348 20.0001 14.9804 20.1054 14.7929 20.293C14.6054 20.4805 14.5 20.7349 14.5 21.0001C14.5 21.2653 14.6054 21.5196 14.7929 21.7072C14.9804 21.8947 15.2348 22.0001 15.5 22.0001H21.5C21.7652 22.0001 22.0196 21.8947 22.2071 21.7072C22.3947 21.5196 22.5 21.2653 22.5 21.0001C22.5 20.7349 22.3947 20.4805 22.2071 20.293C22.0196 20.1054 21.7652 20.0001 21.5 20.0001Z" fill="#FEF9C3"/>
</svg>
