<svg width="4" height="14" viewBox="0 0 4 14" fill="none" xmlns="http://www.w3.org/2000/svg">
<path d="M2 0.25C1.38125 0.25 0.875 0.75625 0.875 1.375C0.875 1.99375 1.38125 2.5 2 2.5C2.61875 2.5 3.125 1.99375 3.125 1.375C3.125 0.75625 2.61875 0.25 2 0.25ZM2 11.5C1.38125 11.5 0.875 12.0063 0.875 12.625C0.875 13.2437 1.38125 13.75 2 13.75C2.61875 13.75 3.125 13.2437 3.125 12.625C3.125 12.0063 2.61875 11.5 2 11.5ZM2 5.875C1.38125 5.875 0.875 6.38125 0.875 7C0.875 7.61875 1.38125 8.125 2 8.125C2.61875 8.125 3.125 7.61875 3.125 7C3.125 6.38125 2.61875 5.875 2 5.875Z" fill="#03053D"/>
</svg>
