<?xml version="1.0" encoding="utf-8"?>
<svg viewBox="0.2 -9.6022 39.5 49.5562" width="39.5" height="49.5562" xmlns="http://www.w3.org/2000/svg" xmlns:bx="https://boxy-svg.com">
  <mask id="path-2-inside-1_370_14080" fill="white">
    <path d="M 27.043 11.325 C 27.305 11.01 27.773 10.965 28.071 11.245 C 29.646 12.728 30.789 14.618 31.369 16.712 C 32.016 19.044 31.932 21.519 31.129 23.802 C 30.327 26.086 28.845 28.069 26.882 29.485 C 24.919 30.901 22.569 31.683 20.149 31.723 C 17.729 31.764 15.354 31.062 13.345 29.713 C 11.335 28.365 9.787 26.432 8.908 24.177 C 8.03 21.921 7.862 19.451 8.43 17.098 C 8.938 14.986 10.018 13.058 11.542 11.524 C 11.831 11.233 12.301 11.263 12.572 11.568 C 12.844 11.874 12.814 12.34 12.529 12.634 C 11.228 13.966 10.308 15.627 9.87 17.445 C 9.373 19.504 9.519 21.665 10.288 23.639 C 11.058 25.612 12.411 27.303 14.17 28.483 C 15.929 29.664 18.007 30.277 20.124 30.242 C 22.242 30.206 24.298 29.523 26.015 28.285 C 27.733 27.045 29.03 25.31 29.732 23.311 C 30.434 21.314 30.507 19.148 29.942 17.107 C 29.443 15.305 28.467 13.675 27.123 12.388 C 26.828 12.104 26.782 11.639 27.043 11.325 Z"/>
  </mask>
  <g transform="matrix(1, 0, 0, 0.9999999999999999, 5.114731933361744, 10.179908086817836)"/>
  <g transform="matrix(0.051268000155687325, 0, 0, 0.05126800015568733, 15.332880454000883, 14.00177136939978)">
    <g transform="translate(-201.05 -213.47)"/>
  </g>
  <g transform="matrix(1.000000024803, 0, 0, 1.000000003627, 21.07922422927, -9.602227482703)" style="transform-origin: -7.07922px 15.6855px;"/>
  <path fill="#FFB494" style="transform-origin: 20.4px 20.204px;" d="M 19.95 0.454 H 19.95 A 19.75 19.75 0 0 1 39.7 20.204 V 20.204 A 19.75 19.75 0 0 1 19.95 39.954 H 19.9 A 19.7 19.7 0 0 1 0.2 20.254 V 20.204 A 19.75 19.75 0 0 1 19.95 0.454 Z" bx:shape="rect 0.2 0.454 39.5 39.5 20 20 20 19.7 1@384e3033"/>
  <path d="M 27.043 11.324 C 27.304 11.01 27.773 10.965 28.071 11.245 C 29.646 12.728 30.79 14.618 31.369 16.712 C 32.016 19.045 31.932 21.519 31.129 23.802 C 30.328 26.087 28.845 28.069 26.882 29.486 C 24.919 30.902 22.569 31.683 20.149 31.723 C 17.729 31.764 15.354 31.063 13.345 29.714 C 11.335 28.365 9.787 26.432 8.908 24.177 C 8.03 21.921 7.862 19.452 8.43 17.098 C 8.938 14.985 10.018 13.058 11.542 11.523 C 11.831 11.234 12.301 11.262 12.572 11.568 C 12.844 11.874 12.814 12.341 12.529 12.633 C 11.228 13.965 10.308 15.627 9.87 17.445 C 9.373 19.504 9.519 21.666 10.288 23.639 C 11.058 25.613 12.412 27.303 14.17 28.483 C 15.929 29.664 18.007 30.277 20.124 30.242 C 22.242 30.206 24.298 29.523 26.015 28.284 C 27.733 27.045 29.03 25.31 29.732 23.312 C 30.434 21.314 30.507 19.148 29.943 17.107 C 29.443 15.305 28.467 13.676 27.123 12.388 C 26.828 12.105 26.783 11.639 27.043 11.324 Z" stroke="#111827" stroke-width="3" mask="url(#path-2-inside-1_370_14080)" style="transform-origin: 20.104px 20.204px;"/>
  <path d="M 22.574 10.239 L 19.78 13.033 L 16.988 10.239" stroke="#111827" stroke-width="1.5" stroke-linecap="round" stroke-linejoin="round" style="transform-origin: 20.104px 20.204px;"/>
  <path d="M 19.8 5.232 L 19.8 12.214" stroke="#111827" stroke-width="1.5" stroke-linecap="round" stroke-linejoin="round" style="transform-origin: 20.413px 20.204px;"/>
  <g transform="matrix(0.5247809886932373, 0, 0, 0.4143950045108795, 11.268816313125193, 14.161560459309353)">
    <path d="M 22.736 20.44 C 22.736 23.334 20.851 25.807 17.412 26.457 L 17.412 29.775 L 14.482 29.775 L 14.482 26.687 C 12.476 26.588 10.534 26.002 9.397 25.289 L 10.295 21.481 C 11.55 22.231 13.314 22.914 15.259 22.914 C 16.963 22.914 18.13 22.196 18.13 20.895 C 18.13 19.658 17.173 18.874 14.959 18.063 C 11.76 16.89 9.576 15.265 9.576 12.112 C 9.576 9.246 11.431 7.005 14.631 6.319 L 14.631 3.23 L 17.561 3.23 L 17.561 6.093 C 19.564 6.19 20.912 6.645 21.898 7.165 L 21.03 10.845 C 20.255 10.485 18.878 9.736 16.724 9.736 C 14.78 9.736 14.153 10.646 14.153 11.558 C 14.153 12.63 15.199 13.312 17.74 14.356 C 21.302 15.72 22.736 17.511 22.736 20.44 Z" style="stroke: rgb(17, 24, 39); fill: rgb(17, 24, 39);"/>
  </g>
</svg>