<?xml version="1.0" encoding="utf-8"?>
<svg width="40" height="41" viewBox="0 0 40 41" fill="none" xmlns="http://www.w3.org/2000/svg">
  <rect width="40" height="40" rx="20" fill="#CADEFC" x="0.1" y="0.649"/>
  <mask id="path-2-inside-1_370_14145" fill="white">
    <path d="M 27.283 11.991 C 27.548 11.672 28.022 11.626 28.324 11.91 C 29.92 13.412 31.077 15.325 31.665 17.446 C 32.319 19.808 32.234 22.314 31.422 24.626 C 30.609 26.939 29.108 28.947 27.12 30.381 C 25.132 31.815 22.753 32.606 20.302 32.647 C 17.851 32.688 15.447 31.978 13.412 30.612 C 11.377 29.246 9.809 27.289 8.919 25.005 C 8.029 22.721 7.86 20.22 8.434 17.837 C 8.95 15.698 10.043 13.746 11.587 12.192 C 11.879 11.898 12.355 11.928 12.63 12.237 C 12.905 12.547 12.874 13.019 12.585 13.316 C 11.269 14.665 10.336 16.347 9.892 18.188 C 9.39 20.273 9.538 22.462 10.316 24.461 C 11.095 26.459 12.467 28.171 14.248 29.367 C 16.028 30.562 18.132 31.183 20.277 31.147 C 22.421 31.111 24.503 30.419 26.243 29.165 C 27.982 27.91 29.296 26.153 30.007 24.129 C 30.718 22.106 30.792 19.913 30.219 17.846 C 29.714 16.021 28.725 14.371 27.364 13.067 C 27.065 12.78 27.019 12.309 27.283 11.991 Z"/>
  </mask>
  <path d="M 27.283 11.991 C 27.548 11.672 28.023 11.626 28.324 11.91 C 29.92 13.412 31.078 15.325 31.665 17.446 C 32.319 19.808 32.234 22.314 31.422 24.627 C 30.609 26.939 29.108 28.948 27.12 30.381 C 25.132 31.815 22.753 32.606 20.302 32.647 C 17.851 32.689 15.447 31.978 13.412 30.612 C 11.377 29.246 9.809 27.289 8.919 25.006 C 8.029 22.722 7.86 20.22 8.434 17.837 C 8.95 15.698 10.043 13.746 11.587 12.192 C 11.879 11.898 12.355 11.928 12.63 12.238 C 12.905 12.547 12.874 13.019 12.585 13.316 C 11.269 14.665 10.336 16.347 9.893 18.189 C 9.39 20.274 9.538 22.463 10.317 24.461 C 11.095 26.459 12.467 28.171 14.248 29.367 C 16.028 30.562 18.133 31.184 20.277 31.148 C 22.421 31.112 24.503 30.42 26.243 29.165 C 27.982 27.91 29.296 26.153 30.007 24.13 C 30.718 22.106 30.792 19.913 30.219 17.846 C 29.714 16.021 28.725 14.371 27.364 13.067 C 27.065 12.781 27.019 12.31 27.283 11.991 Z" stroke="#111827" stroke-width="3" mask="url(#path-2-inside-1_370_14145)"/>
  <path d="M 22.757 9.649 L 19.929 6.821 L 17.1 9.649" stroke="#111827" stroke-width="1.5" stroke-linecap="round" stroke-linejoin="round"/>
  <path d="M 19.636 14.72 L 19.636 7.649" stroke="#111827" stroke-width="1.5" stroke-linecap="round" stroke-linejoin="round"/>
  <path d="M 23.2 24.132 C 23.2 25.331 22.211 26.356 20.406 26.625 L 20.406 28 L 18.869 28 L 18.869 26.72 C 17.816 26.679 16.797 26.437 16.2 26.141 L 16.672 24.563 C 17.33 24.874 18.256 25.157 19.277 25.157 C 20.171 25.157 20.783 24.859 20.783 24.32 C 20.783 23.808 20.281 23.483 19.119 23.147 C 17.44 22.661 16.294 21.987 16.294 20.681 C 16.294 19.493 17.268 18.564 18.947 18.28 L 18.947 17 L 20.485 17 L 20.485 18.186 C 21.536 18.227 22.243 18.415 22.761 18.631 L 22.305 20.156 C 21.898 20.006 21.176 19.696 20.045 19.696 C 19.025 19.696 18.696 20.073 18.696 20.451 C 18.696 20.895 19.245 21.178 20.579 21.611 C 22.448 22.176 23.2 22.918 23.2 24.132 Z" style="stroke: rgb(17, 24, 39); fill: rgb(17, 24, 39);"/>
</svg>