<svg width="40" height="41" viewBox="0 0 40 41" fill="none" xmlns="http://www.w3.org/2000/svg">
<rect y="0.666504" width="40" height="40" rx="20" fill="#E5C6FF"/>
<mask id="path-2-inside-1_370_14194" fill="white">
<path d="M32 21C32 27.6274 26.6274 33 20 33C13.3726 33 8 27.6274 8 21C8 14.3726 13.3726 9 20 9C26.6274 9 32 14.3726 32 21ZM9.49992 21C9.49992 26.799 14.201 31.5001 20 31.5001C25.799 31.5001 30.5001 26.799 30.5001 21C30.5001 15.201 25.799 10.4999 20 10.4999C14.201 10.4999 9.49992 15.201 9.49992 21Z"/>
</mask>
<path d="M32 21C32 27.6274 26.6274 33 20 33C13.3726 33 8 27.6274 8 21C8 14.3726 13.3726 9 20 9C26.6274 9 32 14.3726 32 21ZM9.49992 21C9.49992 26.799 14.201 31.5001 20 31.5001C25.799 31.5001 30.5001 26.799 30.5001 21C30.5001 15.201 25.799 10.4999 20 10.4999C14.201 10.4999 9.49992 15.201 9.49992 21Z" stroke="#111827" stroke-width="3" mask="url(#path-2-inside-1_370_14194)"/>
<path d="M15.085 26V15.5H16.315L23.245 24.125H22.615V15.5H24.115V26H22.885L15.94 17.375H16.57V26H15.085ZM13.45 22.205V21.365H25.75V22.205H13.45ZM13.45 20.135V19.295H25.75V20.135H13.45Z" fill="black"/>
</svg>
