<svg width="16" height="13" viewBox="0 0 16 13" fill="none" xmlns="http://www.w3.org/2000/svg">
<path d="M1.33334 4.66659H14.6667V3.46659C14.6667 2.71985 14.6667 2.34648 14.5214 2.06127C14.3935 1.81038 14.1895 1.60641 13.9387 1.47858C13.6534 1.33325 13.2801 1.33325 12.5333 1.33325H3.46668C2.71994 1.33325 2.34657 1.33325 2.06136 1.47858C1.81047 1.60641 1.6065 1.81038 1.47867 2.06126C1.33334 2.34648 1.33334 2.71985 1.33334 3.46659V8.53325C1.33334 9.27999 1.33334 9.65336 1.47867 9.93857C1.6065 10.1895 1.81047 10.3934 2.06136 10.5213C2.34657 10.6666 2.71994 10.6666 3.46668 10.6666H7.33334M9.66668 11.9999L11.0167 11.7299C11.1344 11.7064 11.1932 11.6946 11.2481 11.6731C11.2968 11.654 11.3431 11.6292 11.386 11.5993C11.4344 11.5655 11.4768 11.5231 11.5617 11.4382L14.3333 8.66659C14.7015 8.2984 14.7015 7.70144 14.3333 7.33325C13.9652 6.96506 13.3682 6.96506 13 7.33325L10.2284 10.1049C10.1435 10.1898 10.1011 10.2322 10.0673 10.2806C10.0374 10.3235 10.0126 10.3698 9.99351 10.4185C9.97199 10.4734 9.96021 10.5322 9.93667 10.6499L9.66668 11.9999Z" stroke="#9CA3AF" stroke-width="1.5" stroke-linecap="round" stroke-linejoin="round"/>
</svg>
