<svg width="281" height="280" viewBox="0 0 281 280" fill="none" xmlns="http://www.w3.org/2000/svg">
<path d="M38.2381 182.261C42.2782 201.419 53.5053 207.309 62.5572 205.133C80.0622 200.924 123.589 200.611 163.335 227.362C215.976 262.792 235.043 227.373 223.758 185.947C212.473 144.521 213.337 104.875 238.271 87.5127C263.205 70.1499 241.739 31.9134 186.496 57.5062C150.796 74.0452 128.506 64.825 117.204 56.2322C106.553 48.1325 94.6338 39.5225 81.5108 42.1376C65.5871 45.3115 57.399 57.0159 74.7576 89.6916C99.3563 135.996 29.1823 139.317 38.2381 182.261Z" fill="#E5E7EB"/>
<path d="M143.065 177.814L144.549 179.574L144.103 193.318L83.8434 205.391C83.3988 205.48 82.941 205.481 82.496 205.394C82.0511 205.306 81.6277 205.132 81.2501 204.881C80.8725 204.63 80.5481 204.306 80.2955 203.93C80.0428 203.553 79.8668 203.131 79.7775 202.686L62.1505 114.705C62.0605 114.261 62.0592 113.803 62.1466 113.358C62.2341 112.914 62.4085 112.491 62.66 112.114C62.9115 111.737 63.235 111.413 63.612 111.161C63.9889 110.91 64.4119 110.735 64.8566 110.647L129.042 97.7793L126.233 107.567C126.233 107.567 131.369 117.254 132.363 118.826L127.64 139.254L141.591 153.068L137.167 170.785L143.065 177.814Z" fill="#011530"/>
<path d="M133.849 155.603L84.0167 165.59C83.8651 165.62 83.7668 165.767 83.7972 165.919L85.2684 173.26C85.2988 173.412 85.4464 173.51 85.598 173.48L135.431 163.493C135.582 163.463 135.681 163.316 135.65 163.164L134.179 155.823C134.149 155.671 134.001 155.573 133.849 155.603Z" fill="white"/>
<path d="M137.168 170.785L143.066 177.814L90.0691 188.431C89.6203 188.52 89.1545 188.427 88.7736 188.174C88.3927 187.92 88.1275 187.527 88.036 187.078L87.1365 182.575C87.091 182.352 87.0899 182.123 87.1334 181.9C87.1768 181.678 87.2639 181.466 87.3896 181.277C87.5153 181.088 87.6771 180.926 87.8658 180.799C88.0545 180.673 88.2662 180.586 88.4889 180.542L137.168 170.785Z" fill="white"/>
<path d="M244.894 99.0711L221.705 185.743C221.466 186.627 220.888 187.38 220.096 187.838C219.304 188.296 218.363 188.422 217.478 188.189L149.02 169.872L156.364 158.565L155.537 155.671L152.956 146.651L152.958 146.643L165.096 133.178L158.355 113.406L171.693 97.8692L171.091 83.6977L178.519 77.7324L242.459 94.838C243.342 95.0776 244.095 95.6577 244.551 96.4512C245.008 97.2447 245.131 98.1869 244.894 99.0711Z" fill="#011530"/>
<path d="M229.809 100.393L217.351 97.0589C214.363 96.2594 211.293 98.0333 210.494 101.021L207.16 113.479C206.361 116.466 208.135 119.536 211.122 120.336L223.58 123.669C226.568 124.469 229.638 122.695 230.437 119.707L233.771 107.25C234.57 104.262 232.796 101.192 229.809 100.393Z" fill="white"/>
<path d="M167.032 152.199L165.85 156.637C165.731 157.079 165.442 157.456 165.046 157.685C164.65 157.914 164.179 157.977 163.736 157.86L155.538 155.67L152.957 146.65L165.817 150.088C166.036 150.146 166.242 150.247 166.421 150.384C166.601 150.522 166.752 150.694 166.865 150.89C166.978 151.087 167.051 151.303 167.08 151.528C167.108 151.753 167.092 151.981 167.032 152.199Z" fill="white"/>
<path d="M140.35 92.4049C140.024 92.049 139.848 91.5803 139.86 91.0975C139.872 90.6147 140.071 90.1554 140.415 89.8163L153.111 76.7873C153.869 76.009 155.102 75.9906 155.822 76.7468L156.826 77.8009C157.546 78.5569 157.464 79.7836 156.646 80.4988L142.946 92.4737C142.587 92.7988 142.118 92.973 141.634 92.9602C141.15 92.9474 140.691 92.7484 140.35 92.4049Z" fill="#6D7280"/>
<path d="M132.849 87.936C132.708 87.8709 132.581 87.7785 132.475 87.6643C132.369 87.55 132.287 87.4161 132.233 87.2701C132.18 87.1241 132.155 86.9689 132.161 86.8134C132.167 86.6579 132.204 86.5051 132.269 86.3638L137.026 75.5166C137.159 75.2065 137.41 74.962 137.724 74.8369C138.037 74.7117 138.388 74.7161 138.698 74.8491L139.573 75.245C139.722 75.3141 139.856 75.4134 139.964 75.5365C140.073 75.6597 140.155 75.8041 140.206 75.9605C140.256 76.117 140.273 76.2822 140.256 76.4457C140.239 76.6092 140.189 76.7674 140.108 76.9103L134.476 87.3622C134.326 87.6447 134.076 87.8607 133.775 87.967C133.473 88.0734 133.143 88.0623 132.849 87.936Z" fill="#6D7280"/>
<path d="M124.954 89.6934C123.956 89.8688 122.998 89.02 122.782 87.7693L118.954 65.5614C118.725 64.2347 119.417 62.974 120.475 62.788L121.951 62.5288C123.009 62.3429 124.009 63.3065 124.149 64.6486L126.502 87.1158C126.635 88.3811 125.952 89.5182 124.954 89.6934Z" fill="#6D7280"/>
</svg>
