<svg width="16" height="16" viewBox="0 0 16 16" fill="none" xmlns="http://www.w3.org/2000/svg">
<path d="M11.9999 7.16671L9.33319 4.50004M1.6665 14.8334L3.92275 14.5827C4.19841 14.5521 4.33624 14.5367 4.46507 14.495C4.57936 14.458 4.68814 14.4058 4.78843 14.3396C4.90147 14.2651 4.99953 14.167 5.19565 13.9709L13.9999 5.16671C14.7362 4.43033 14.7362 3.23642 13.9999 2.50004C13.2635 1.76366 12.0696 1.76366 11.3332 2.50004L2.52899 11.3042C2.33287 11.5003 2.23481 11.5984 2.16026 11.7114C2.09413 11.8117 2.04185 11.9205 2.00485 12.0348C1.96314 12.1636 1.94783 12.3015 1.9172 12.5771L1.6665 14.8334Z" stroke="black" stroke-width="2" stroke-linecap="round" stroke-linejoin="round"/>
</svg>
