<svg width="41" height="40" viewBox="0 0 41 40" fill="none" xmlns="http://www.w3.org/2000/svg">
<rect x="0.666656" width="40" height="40" rx="20" fill="#FFEDAE"/>
<path d="M29 19.9412V14.8C29 13.1198 29 12.2798 28.673 11.638C28.3854 11.0735 27.9265 10.6146 27.362 10.327C26.7203 10 25.8802 10 24.2 10H17.8C16.1199 10 15.2798 10 14.6381 10.327C14.0736 10.6146 13.6146 11.0735 13.327 11.638C13 12.2798 13 13.1198 13 14.8V25.2C13 26.8802 13 27.7202 13.327 28.362C13.6146 28.9265 14.0736 29.3854 14.6381 29.673C15.2798 30 16.1199 30 17.8 30H23M23 19H17M19 23H17M25 15H17M24 25H30" stroke="black" stroke-width="2" stroke-linecap="round" stroke-linejoin="round"/>
</svg>
