<svg width="40" height="40" viewBox="0 0 40 40" fill="none" xmlns="http://www.w3.org/2000/svg">
<rect width="40" height="40" rx="20" fill="#FFDADB"/>
<path d="M28.1667 15.2778L19.6667 20.0001M19.6667 20.0001L11.1667 15.2778M19.6667 20.0001L19.6667 29.5001M21.6667 28.889L20.4438 29.5684C20.1602 29.726 20.0184 29.8047 19.8682 29.8356C19.7353 29.863 19.5982 29.863 19.4653 29.8356C19.3151 29.8047 19.1733 29.726 18.8897 29.5684L11.4897 25.4573C11.1902 25.2909 11.0404 25.2077 10.9314 25.0893C10.8349 24.9847 10.7619 24.8606 10.7172 24.7254C10.6667 24.5726 10.6667 24.4013 10.6667 24.0586V15.9415C10.6667 15.5989 10.6667 15.4276 10.7172 15.2748C10.7619 15.1396 10.8349 15.0155 10.9314 14.9108C11.0404 14.7925 11.1902 14.7093 11.4897 14.5429L18.8897 10.4318C19.1733 10.2742 19.3151 10.1954 19.4653 10.1645C19.5982 10.1372 19.7353 10.1372 19.8682 10.1645C20.0184 10.1954 20.1602 10.2742 20.4438 10.4318L27.8438 14.5429C28.1433 14.7093 28.2931 14.7925 28.4021 14.9108C28.4986 15.0155 28.5716 15.1396 28.6163 15.2748C28.6667 15.4276 28.6667 15.5989 28.6667 15.9415L28.6667 20.5001M15.1667 12.5001L24.1667 17.5001M26.6667 29.0001V23.0001M23.6667 26.0001H29.6667" stroke="#111827" stroke-width="1.5" stroke-linecap="round" stroke-linejoin="round"/>
</svg>
