<svg width="16" height="16" viewBox="0 0 16 16" fill="none" xmlns="http://www.w3.org/2000/svg">
<g clip-path="url(#clip0_4242_77)">
<path d="M6.66667 14.6666H9.33333C12.6667 14.6666 14 13.3333 14 9.99992V5.99992C14 2.66659 12.6667 1.33325 9.33333 1.33325H6.66667C3.33333 1.33325 2 2.66659 2 5.99992V9.99992C2 13.3333 3.33333 14.6666 6.66667 14.6666Z" stroke="#9CA3AF" stroke-width="1.5" stroke-linecap="round" stroke-linejoin="round"/>
<path d="M11 5.05322V5.71989C11 6.26656 10.5533 6.71989 10 6.71989H6C5.45333 6.71989 5 6.27322 5 5.71989V5.05322C5 4.50656 5.44667 4.05322 6 4.05322H10C10.5533 4.05322 11 4.49989 11 5.05322Z" stroke="#9CA3AF" stroke-width="1.5" stroke-linecap="round" stroke-linejoin="round"/>
<path d="M5.42408 9.33333H5.43178" stroke="#9CA3AF" stroke-width="1.5" stroke-linecap="round" stroke-linejoin="round"/>
<path d="M7.99683 9.33333H8.00454" stroke="#9CA3AF" stroke-width="1.5" stroke-linecap="round" stroke-linejoin="round"/>
<path d="M10.5696 9.33333H10.5773" stroke="#9CA3AF" stroke-width="1.5" stroke-linecap="round" stroke-linejoin="round"/>
<path d="M5.42408 11.6666H5.43178" stroke="#9CA3AF" stroke-width="1.5" stroke-linecap="round" stroke-linejoin="round"/>
<path d="M7.99683 11.6666H8.00454" stroke="#9CA3AF" stroke-width="1.5" stroke-linecap="round" stroke-linejoin="round"/>
<path d="M10.5696 11.6666H10.5773" stroke="#9CA3AF" stroke-width="1.5" stroke-linecap="round" stroke-linejoin="round"/>
</g>
<defs>
<clipPath id="clip0_4242_77">
<rect width="16" height="16" fill="white"/>
</clipPath>
</defs>
</svg>
