<svg width="24" height="24" viewBox="0 0 24 24" fill="none" xmlns="http://www.w3.org/2000/svg">
<path d="M11.7767 21H3.31774C4.30185 19.7508 4.83485 18.2056 4.83019 16.6154V3H17.8799V10.1799C17.8799 10.2794 17.9194 10.3748 17.9898 10.4451C18.0601 10.5154 18.1555 10.5549 18.2549 10.5549C18.3544 10.5549 18.4498 10.5154 18.5201 10.4451C18.5904 10.3748 18.6299 10.2794 18.6299 10.1799V2.625C18.6299 2.57575 18.6203 2.52698 18.6014 2.48148C18.5826 2.43598 18.555 2.39463 18.5201 2.35981C18.4853 2.32498 18.444 2.29736 18.3985 2.27852C18.353 2.25968 18.3042 2.24999 18.2549 2.25H4.45519C4.40594 2.24999 4.35717 2.25968 4.31167 2.27852C4.26617 2.29736 4.22482 2.32498 4.19 2.35981C4.15517 2.39463 4.12755 2.43598 4.10871 2.48148C4.08987 2.52698 4.08018 2.57575 4.08019 2.625V16.6154C4.0825 17.4504 3.91917 18.2776 3.59965 19.0491C3.28013 19.8205 2.81077 20.521 2.21874 21.1099C2.16629 21.1623 2.13057 21.2291 2.1161 21.3019C2.10162 21.3746 2.10905 21.45 2.13743 21.5185C2.16581 21.587 2.21387 21.6456 2.27554 21.6868C2.33721 21.728 2.40971 21.75 2.48388 21.75H11.7767C11.8761 21.75 11.9715 21.7105 12.0418 21.6402C12.1122 21.5698 12.1517 21.4745 12.1517 21.375C12.1517 21.2755 12.1122 21.1802 12.0418 21.1098C11.9715 21.0395 11.8761 21 11.7767 21Z" fill="black"/>
<path d="M15.6562 6.97339H7.05371C6.95425 6.97339 6.85887 7.0129 6.78855 7.08322C6.71822 7.15355 6.67871 7.24893 6.67871 7.34839C6.67871 7.44784 6.71822 7.54323 6.78855 7.61355C6.85887 7.68388 6.95425 7.72339 7.05371 7.72339H15.6562C15.7557 7.72339 15.851 7.68388 15.9214 7.61355C15.9917 7.54323 16.0312 7.44784 16.0312 7.34839C16.0312 7.24893 15.9917 7.15355 15.9214 7.08322C15.851 7.0129 15.7557 6.97339 15.6562 6.97339Z" fill="black"/>
<path d="M16.0312 9.88916C16.0312 9.83991 16.0215 9.79114 16.0027 9.74564C15.9839 9.70014 15.9562 9.65879 15.9214 9.62397C15.8866 9.58914 15.8452 9.56152 15.7997 9.54268C15.7542 9.52384 15.7055 9.51415 15.6562 9.51416H7.05371C6.95425 9.51416 6.85887 9.55367 6.78855 9.624C6.71822 9.69432 6.67871 9.7897 6.67871 9.88916C6.67871 9.98862 6.71822 10.084 6.78855 10.1543C6.85887 10.2247 6.95425 10.2642 7.05371 10.2642H15.6562C15.7055 10.2642 15.7542 10.2545 15.7997 10.2356C15.8452 10.2168 15.8866 10.1892 15.9214 10.1544C15.9562 10.1195 15.9839 10.0782 16.0027 10.0327C16.0215 9.98718 16.0312 9.93841 16.0312 9.88916Z" fill="black"/>
<path d="M12.2922 12.4299C12.2922 12.3807 12.2825 12.3319 12.2637 12.2864C12.2448 12.2409 12.2172 12.1996 12.1824 12.1647C12.1475 12.1299 12.1062 12.1023 12.0607 12.0835C12.0152 12.0646 11.9664 12.0549 11.9172 12.0549H7.05371C6.95425 12.0549 6.85887 12.0944 6.78855 12.1648C6.71822 12.2351 6.67871 12.3305 6.67871 12.4299C6.67871 12.5294 6.71822 12.6248 6.78855 12.6951C6.85887 12.7654 6.95425 12.8049 7.05371 12.8049H11.9172C11.9664 12.8049 12.0152 12.7953 12.0607 12.7764C12.1062 12.7576 12.1475 12.73 12.1824 12.6951C12.2172 12.6603 12.2448 12.619 12.2637 12.5735C12.2825 12.528 12.2922 12.4792 12.2922 12.4299Z" fill="black"/>
<path d="M7.05371 14.5957C6.95425 14.5957 6.85887 14.6352 6.78855 14.7055C6.71822 14.7759 6.67871 14.8712 6.67871 14.9707C6.67871 15.0702 6.71822 15.1655 6.78855 15.2359C6.85887 15.3062 6.95425 15.3457 7.05371 15.3457H10.1125C10.2119 15.3457 10.3073 15.3062 10.3777 15.2359C10.448 15.1655 10.4875 15.0702 10.4875 14.9707C10.4875 14.8712 10.448 14.7759 10.3777 14.7055C10.3073 14.6352 10.2119 14.5957 10.1125 14.5957H7.05371Z" fill="black"/>
<path d="M20.4717 13.4747C19.8445 12.8464 19.0566 12.4025 18.1942 12.1917C17.3317 11.9809 16.428 12.0112 15.5816 12.2793C14.7352 12.5473 13.9788 13.0429 13.3951 13.7119C12.8113 14.3808 12.4226 15.1973 12.2716 16.0722L11.9736 15.7742C11.9033 15.7038 11.8079 15.6643 11.7085 15.6643C11.609 15.6643 11.5136 15.7038 11.4433 15.7742C11.373 15.8445 11.3335 15.9398 11.3335 16.0393C11.3335 16.1387 11.373 16.2341 11.4433 16.3044L12.3062 17.1673C12.3767 17.2375 12.4722 17.2769 12.5716 17.2769C12.6711 17.2769 12.7665 17.2375 12.837 17.1673L13.7001 16.3044C13.7704 16.2341 13.8099 16.1387 13.8099 16.0393C13.8099 15.9398 13.7704 15.8445 13.7001 15.7742C13.6298 15.7038 13.5344 15.6643 13.435 15.6643C13.3355 15.6643 13.2401 15.7038 13.1698 15.7742L13.0847 15.8593C13.3152 14.9874 13.8273 14.2161 14.5412 13.6651C15.2552 13.1141 16.1311 12.8142 17.0329 12.8121C17.9348 12.81 18.8121 13.1057 19.5286 13.6533C20.2451 14.201 20.7608 14.9699 20.9955 15.8407C21.2301 16.7115 21.1707 17.6354 20.8265 18.4689C20.4822 19.3025 19.8723 19.999 19.0915 20.4504C18.3107 20.9017 17.4028 21.0826 16.5086 20.965C15.6145 20.8474 14.7842 20.4378 14.1467 19.7999C14.0764 19.7296 13.981 19.6901 13.8816 19.6901C13.7821 19.6901 13.6867 19.7296 13.6164 19.7999C13.5461 19.8702 13.5066 19.9656 13.5066 20.065C13.5066 20.1645 13.5461 20.2599 13.6164 20.3302C14.5257 21.2385 15.7584 21.7486 17.0436 21.7483C18.3289 21.7479 19.5614 21.2372 20.4701 20.3284C21.3789 19.4196 21.8896 18.1871 21.8899 16.9019C21.8902 15.6167 21.3801 14.3839 20.4717 13.4747Z" fill="black"/>
<path d="M17.0444 13.6556C16.9952 13.6556 16.9464 13.6653 16.9009 13.6842C16.8554 13.703 16.8141 13.7306 16.7792 13.7654C16.7444 13.8003 16.7168 13.8416 16.698 13.8871C16.6791 13.9326 16.6694 13.9814 16.6694 14.0306V16.9025C16.67 17.002 16.7096 17.0973 16.7796 17.168L18.1387 18.527C18.2091 18.5965 18.3043 18.6354 18.4033 18.6351C18.5023 18.6348 18.5972 18.5953 18.6672 18.5253C18.7372 18.4553 18.7767 18.3604 18.7771 18.2614C18.7774 18.1623 18.7385 18.0672 18.6689 17.9967L17.4194 16.7472V14.0306C17.4194 13.9814 17.4098 13.9326 17.3909 13.8871C17.3721 13.8416 17.3445 13.8003 17.3096 13.7654C17.2748 13.7306 17.2335 13.703 17.188 13.6842C17.1425 13.6653 17.0937 13.6556 17.0444 13.6556Z" fill="black"/>
</svg>
