<svg width="24" height="24" viewBox="0 0 24 24" fill="none" xmlns="http://www.w3.org/2000/svg">
<path d="M19.0828 15.5578H18.8063L17.0906 9.51562C17.0484 9.36562 16.9078 9.25781 16.7531 9.25781H9.32812V7.86094H10.8422C11.0344 7.86094 11.1938 7.70156 11.1938 7.50937V5.46094C11.1938 5.26875 11.0344 5.10938 10.8422 5.10938H7.10625C6.91406 5.10938 6.75469 5.26875 6.75469 5.46094V7.50937C6.75469 7.70156 6.91406 7.86094 7.10625 7.86094H8.625V9.25781H7.24688C7.0875 9.25781 6.95156 9.36094 6.90937 9.51562L5.19844 15.5578H4.92188C4.34063 15.5578 3.86719 16.0312 3.86719 16.6125V17.8359C3.86719 18.4172 4.34063 18.8906 4.92188 18.8906H19.0828C19.6641 18.8906 20.1375 18.4172 20.1375 17.8359V16.6125C20.1375 16.0312 19.6641 15.5578 19.0828 15.5578ZM7.45781 5.81719H10.4906V7.1625H7.45781V5.81719ZM7.51406 9.96563H16.4906L18.075 15.5578H5.925L7.51406 9.96563ZM19.4344 17.8312C19.4344 18.0234 19.275 18.1828 19.0828 18.1828H4.91719C4.725 18.1828 4.56563 18.0234 4.56563 17.8312V16.6078C4.56563 16.4156 4.725 16.2562 4.91719 16.2562H18.5344H19.0734C19.2656 16.2562 19.425 16.4156 19.425 16.6078V17.8312H19.4344Z" fill="black"/>
<path d="M10.6594 11.0953H8.17969C7.9875 11.0953 7.82812 11.2547 7.82812 11.4469V13.9266C7.82812 14.1188 7.9875 14.2781 8.17969 14.2781H10.6594C10.8516 14.2781 11.0109 14.1188 11.0109 13.9266V11.4469C11.0109 11.25 10.8562 11.0953 10.6594 11.0953ZM10.3078 13.575H8.53125V11.7985H10.3078V13.575Z" fill="black"/>
<path d="M15.7361 10.8984H12.333C12.1408 10.8984 11.9814 11.0578 11.9814 11.25C11.9814 11.4422 12.1408 11.6016 12.333 11.6016H15.7361C15.9283 11.6016 16.0877 11.4422 16.0877 11.25C16.0877 11.0578 15.9283 10.8984 15.7361 10.8984Z" fill="black"/>
<path d="M12.7593 12.0844C12.6655 12.0844 12.5765 12.1219 12.5108 12.1875C12.4452 12.2531 12.4077 12.3422 12.4077 12.4359C12.4077 12.5297 12.4452 12.6187 12.5108 12.6844C12.5765 12.75 12.6655 12.7875 12.7593 12.7875C12.853 12.7875 12.9421 12.75 13.0077 12.6844C13.0733 12.6187 13.1108 12.5297 13.1108 12.4359C13.1108 12.3422 13.0733 12.2531 13.0077 12.1875C12.9421 12.1219 12.853 12.0844 12.7593 12.0844Z" fill="black"/>
<path d="M14.0342 12.0844C13.9404 12.0844 13.8514 12.1219 13.7857 12.1875C13.7201 12.2531 13.6826 12.3422 13.6826 12.4359C13.6826 12.5297 13.7201 12.6187 13.7857 12.6844C13.8514 12.75 13.9404 12.7875 14.0342 12.7875C14.1279 12.7875 14.217 12.75 14.2826 12.6844C14.3482 12.6187 14.3857 12.5297 14.3857 12.4359C14.3857 12.3422 14.3482 12.2531 14.2826 12.1875C14.217 12.1219 14.1232 12.0844 14.0342 12.0844Z" fill="black"/>
<path d="M15.3047 12.0844C15.2109 12.0844 15.1219 12.1219 15.0563 12.1875C14.9906 12.2531 14.9531 12.3422 14.9531 12.4359C14.9531 12.5297 14.9906 12.6187 15.0563 12.6844C15.1219 12.75 15.2109 12.7875 15.3047 12.7875C15.3984 12.7875 15.4875 12.75 15.5531 12.6844C15.6187 12.6187 15.6562 12.5297 15.6562 12.4359C15.6562 12.3422 15.6187 12.2531 15.5531 12.1875C15.4875 12.1219 15.3984 12.0844 15.3047 12.0844Z" fill="black"/>
<path d="M12.7593 13.5469C12.6655 13.5469 12.5765 13.5844 12.5108 13.65C12.4452 13.7156 12.4077 13.8047 12.4077 13.8984C12.4077 13.9922 12.4452 14.0812 12.5108 14.1469C12.5765 14.2125 12.6655 14.25 12.7593 14.25C12.853 14.25 12.9421 14.2125 13.0077 14.1469C13.0733 14.0812 13.1108 13.9922 13.1108 13.8984C13.1108 13.8047 13.0733 13.7156 13.0077 13.65C12.9421 13.5844 12.853 13.5469 12.7593 13.5469Z" fill="black"/>
<path d="M14.0342 13.5469C13.9404 13.5469 13.8514 13.5844 13.7857 13.65C13.7201 13.7156 13.6826 13.8047 13.6826 13.8984C13.6826 13.9922 13.7201 14.0812 13.7857 14.1469C13.8514 14.2125 13.9404 14.25 14.0342 14.25C14.1279 14.25 14.217 14.2125 14.2826 14.1469C14.3482 14.0812 14.3857 13.9922 14.3857 13.8984C14.3857 13.8047 14.3482 13.7156 14.2826 13.65C14.217 13.5844 14.1232 13.5469 14.0342 13.5469Z" fill="black"/>
<path d="M15.3047 13.5469C15.2109 13.5469 15.1219 13.5844 15.0563 13.65C14.9906 13.7156 14.9531 13.8047 14.9531 13.8984C14.9531 13.9922 14.9906 14.0812 15.0563 14.1469C15.1219 14.2125 15.2109 14.25 15.3047 14.25C15.3984 14.25 15.4875 14.2125 15.5531 14.1469C15.6187 14.0812 15.6562 13.9922 15.6562 13.8984C15.6562 13.8047 15.6187 13.7156 15.5531 13.65C15.4875 13.5844 15.3984 13.5469 15.3047 13.5469Z" fill="black"/>
</svg>
