<svg width="16" height="14" viewBox="0 0 16 14" fill="none" xmlns="http://www.w3.org/2000/svg">
<path d="M8.00001 9.66667V13M8.00001 9.66667L12 13M8.00001 9.66667L4.00001 13M14 1V6.46667C14 7.58677 14 8.14682 13.782 8.57465C13.5903 8.95097 13.2843 9.25693 12.908 9.44868C12.4802 9.66667 11.9201 9.66667 10.8 9.66667H5.20001C4.07991 9.66667 3.51985 9.66667 3.09203 9.44868C2.71571 9.25693 2.40974 8.95097 2.218 8.57465C2.00001 8.14682 2.00001 7.58677 2.00001 6.46667V1M5.33334 5V7M8.00001 3.66667V7M10.6667 6.33333V7M14.6667 1H1.33334" stroke="#9CA3AF" stroke-width="1.5" stroke-linecap="round" stroke-linejoin="round"/>
</svg>
