<!DOCTYPE svg PUBLIC "-//W3C//DTD SVG 1.1//EN" "http://www.w3.org/Graphics/SVG/1.1/DTD/svg11.dtd">
<!-- Uploaded to: SVG Repo, www.svgrepo.com, Transformed by: SVG Repo Mixer Tools -->
<svg width="64px" height="64px" viewBox="0 0 1024 1024" fill="#000000" class="icon" version="1.1" xmlns="http://www.w3.org/2000/svg">
<g id="SVGRepo_bgCarrier" stroke-width="0"/>
<g id="SVGRepo_tracerCarrier" stroke-linecap="round" stroke-linejoin="round"/>
<g id="SVGRepo_iconCarrier">
<path d="M512 1023.93c-4.422 0-8-3.578-8-8s3.578-7.998 8-7.998c202.878 0 367.952-165.056 367.952-367.954a7.994 7.994 0 0 1 8-7.998 7.994 7.994 0 0 1 7.996 7.998c0.002 211.708-172.24 383.952-383.948 383.952z" fill=""/>
<path d="M512 1023.93c-211.708 0-383.952-172.244-383.952-383.952a7.994 7.994 0 0 1 8-7.998 7.994 7.994 0 0 1 7.998 7.998c0 202.896 165.064 367.954 367.954 367.954 4.42 0 8 3.576 8 7.998s-3.578 8-8 8z" fill=""/>
<path d="M887.954 647.978c-4.422 0-8-3.578-8-8 0-235.718-168.042-426.334-200.304-460.736-29.606 25.878-88.254 55.594-133.434 10.452-44.962-45.002-32.23-126.89-23.238-164.478C447.408 72.678 144.048 285.384 144.048 639.978c0 4.422-3.578 8-7.998 8-4.422 0-8-3.578-8-8 0-412.594 400.06-636.714 404.102-638.932a8.042 8.042 0 0 1 8.968 0.868 7.994 7.994 0 0 1 2.468 8.646c-0.376 1.164-37.48 116.36 13.938 167.822 49.304 49.268 114.11-13.35 116.828-16.038a8.01 8.01 0 0 1 11.246 0.008c2.11 2.086 210.348 211.418 210.348 477.624a7.992 7.992 0 0 1-7.994 8.002z" fill=""/>
<path d="M328.024 368.014a7.988 7.988 0 0 1-7.654-10.31c40.542-134.084 128.366-178.984 132.084-180.828a8.026 8.026 0 0 1 7.912 0.46 8.02 8.02 0 0 1 3.632 7.054c-0.024 0.624-2.102 63.538 45.314 105.65a8.006 8.006 0 0 1 0.672 11.296 8.02 8.02 0 0 1-11.294 0.672c-39.2-34.816-48.212-80.944-50.198-104.002-24.348 16.514-82.732 64.85-112.814 164.324a7.996 7.996 0 0 1-7.654 5.684zM676.512 483.92c-4.422 0-8.094-3.578-8.094-8 0-4.42 3.5-7.998 7.938-7.998h0.156a8.004 8.004 0 0 1 7.996 7.998c0 4.424-3.594 8-7.996 8zM348.436 811.988c-4.414 0-8.078-3.578-8.078-8 0-4.42 3.5-7.998 7.92-7.998h0.156c4.42 0 8 3.578 8 7.998 0 4.422-3.578 8-7.998 8zM572.492 423.898c-4.406 0-8.062-3.578-8.062-8 0-4.42 3.5-7.998 7.906-7.998h0.156c4.438 0 8 3.578 8 7.998 0 4.422-3.562 8-8 8zM452.422 872.028c-4.414 0-8.078-3.578-8.078-8 0-4.42 3.5-7.998 7.922-7.998h0.156a7.994 7.994 0 0 1 7.998 7.998c0 4.422-3.576 8-7.998 8zM452.422 423.882c-4.414 0-8.078-3.578-8.078-8 0-4.42 3.5-7.998 7.922-7.998h0.156a7.994 7.994 0 0 1 7.998 7.998c0 4.422-3.576 8-7.998 8zM572.492 872.012c-4.406 0-8.062-3.578-8.062-8 0-4.42 3.5-7.998 7.906-7.998h0.156c4.438 0 8 3.578 8 7.998 0 4.422-3.562 8-8 8zM348.436 483.936c-4.414 0-8.078-3.578-8.078-8 0-4.42 3.5-7.998 7.92-7.998h0.156c4.42 0 8 3.578 8 7.998 0 4.424-3.578 8-7.998 8zM676.48 811.972c-4.406 0-8.062-3.578-8.062-8 0-4.42 3.5-7.998 7.906-7.998h0.156a7.984 7.984 0 0 1 7.996 7.998c0 4.422-3.562 8-7.996 8zM288.396 587.908c-4.414 0-8.078-3.578-8.078-8 0-4.42 3.5-7.998 7.92-7.998h0.156c4.42 0 8 3.578 8 7.998a7.992 7.992 0 0 1-7.998 8zM736.536 707.986c-4.422 0-8.094-3.578-8.094-8 0-4.42 3.5-7.998 7.938-7.998h0.156a8.004 8.004 0 0 1 7.996 7.998c0 4.422-3.594 8-7.996 8zM512.494 647.932c-4.414 0-8.078-3.578-8.078-8 0-4.42 3.5-7.998 7.922-7.998h0.156a7.998 7.998 0 1 1 0 15.998zM288.396 708.002c-4.414 0-8.078-3.578-8.078-8 0-4.42 3.5-7.998 7.92-7.998h0.156c4.42 0 8 3.578 8 7.998a7.992 7.992 0 0 1-7.998 8zM736.504 587.908c-4.406 0-8.062-3.578-8.062-8 0-4.42 3.5-7.998 7.906-7.998h0.156a7.984 7.984 0 0 1 7.996 7.998c0 4.422-3.562 8-7.996 8z" fill=""/>
<path d="M511.986 943.924c-81.186 0-157.52-31.622-214.926-89.036-57.406-57.398-89.02-133.748-89.012-214.958 0-81.192 31.614-157.518 89.012-214.91 57.43-57.43 133.772-89.05 214.972-89.05 81.19 0 157.51 31.612 214.924 89.02 57.414 57.422 89.036 133.764 89.036 214.956 0 81.178-31.636 157.512-89.066 214.942-57.414 57.414-133.75 89.036-214.94 89.036z m0.046-591.954c-76.928 0-149.254 29.958-203.662 84.364-54.376 54.368-84.324 126.67-84.324 203.598-0.008 76.944 29.942 149.262 84.324 203.646 54.392 54.382 126.704 84.348 203.616 84.348 76.928 0 149.246-29.964 203.628-84.348 54.414-54.4 84.378-126.734 84.378-203.646s-29.95-149.23-84.348-203.628c-54.382-54.386-126.684-84.334-203.612-84.334z" fill=""/>
<path d="M512.016 911.896c-72.648 0-140.944-28.292-192.304-79.662-51.36-51.352-79.646-119.656-79.654-192.302 0-72.646 28.278-140.942 79.622-192.288 51.368-51.368 119.672-79.662 192.328-79.662 72.64 0 140.94 28.286 192.312 79.646 106.016 106.034 106.016 278.59-0.016 384.636-51.354 51.356-119.64 79.632-192.288 79.632z m-0.008-527.916c-68.382 0-132.664 26.63-181.016 74.974-48.322 48.322-74.936 112.596-74.936 180.976 0.008 68.382 26.628 132.654 74.966 180.992 48.336 48.354 112.618 74.974 180.992 74.974 68.382 0 132.64-26.622 180.976-74.944 99.8-99.814 99.8-262.214 0.016-362.016-48.334-48.334-112.624-74.956-180.998-74.956z" fill=""/>
<path d="M512.016 671.944a31.818 31.818 0 0 1-22.63-9.388c-12.474-12.468-12.466-32.762 0.008-45.244 12.084-12.076 33.168-12.108 45.258 0 12.468 12.466 12.468 32.776-0.016 45.244a31.788 31.788 0 0 1-22.62 9.388z m0.008-48.01a15.94 15.94 0 0 0-11.32 4.688c-6.242 6.234-6.242 16.388-0.008 22.622 6.054 6.046 16.568 6.078 22.624 0 6.238-6.232 6.238-16.386 0.008-22.622a15.84 15.84 0 0 0-11.304-4.688z" fill=""/>
<path d="M528.98 630.964a7.996 7.996 0 0 1-5.652-13.654l113.094-113.096a8 8 0 1 1 11.312 11.312l-113.098 113.094a7.964 7.964 0 0 1-5.656 2.344zM512.016 772.382c-4.422 0-8-3.576-8-7.998v-100.456c0-4.422 3.578-8 8-8 4.42 0 8 3.578 8 8v100.456a7.994 7.994 0 0 1-8 7.998zM715.614 444.332a8.002 8.002 0 0 1-5.656-13.654l5.688-5.686a8 8 0 1 1 11.312 11.312l-5.688 5.686a7.982 7.982 0 0 1-5.656 2.342zM302.716 857.232a7.994 7.994 0 0 1-5.656-13.654l5.648-5.64a8.006 8.006 0 0 1 11.318 0 8 8 0 0 1-0.008 11.31l-5.648 5.64a7.964 7.964 0 0 1-5.654 2.344zM655.98 398.572a7.852 7.852 0 0 1-4-1.078 7.99 7.99 0 0 1-2.918-10.928l4.028-6.968a7.956 7.956 0 0 1 10.922-2.914 7.988 7.988 0 0 1 2.922 10.928l-4.032 6.968a7.992 7.992 0 0 1-6.922 3.992zM364.02 904.274a8.03 8.03 0 0 1-3.984-1.062 8.014 8.014 0 0 1-2.938-10.938l4-6.936c2.188-3.812 7.084-5.124 10.92-2.938a8.012 8.012 0 0 1 2.938 10.936l-4 6.938a7.998 7.998 0 0 1-6.936 4zM586.554 369.81a8.01 8.01 0 0 1-7.75-10.084l2.094-7.764a7.996 7.996 0 0 1 9.808-5.64 8.01 8.01 0 0 1 5.656 9.81l-2.094 7.764a8.02 8.02 0 0 1-7.714 5.914zM435.41 933.848c-0.688 0-1.39-0.094-2.086-0.282a7.99 7.99 0 0 1-5.648-9.796l2.078-7.732a8.02 8.02 0 0 1 9.804-5.64 7.992 7.992 0 0 1 5.648 9.796l-2.078 7.732a8.016 8.016 0 0 1-7.718 5.922zM512.016 359.984H512a7.994 7.994 0 0 1-7.984-8.014l0.016-8.03a7.996 7.996 0 0 1 8-7.984h0.016a7.994 7.994 0 0 1 7.984 8.014l-0.016 8.03a7.996 7.996 0 0 1-8 7.984zM512.032 943.924c-4.422 0-8-3.578-8-7.998v-8a7.994 7.994 0 0 1 8-7.998c4.42 0 8 3.576 8 7.998v8a7.994 7.994 0 0 1-8 7.998zM437.488 369.794a7.996 7.996 0 0 1-7.718-5.936l-2.062-7.734a7.992 7.992 0 0 1 5.664-9.788A7.972 7.972 0 0 1 443.16 352l2.062 7.734a7.992 7.992 0 0 1-7.734 10.06zM588.618 933.832a8.01 8.01 0 0 1-7.718-5.938l-2.062-7.716a8.024 8.024 0 0 1 5.672-9.796c4.234-1.062 8.652 1.406 9.792 5.672l2.062 7.716a8.024 8.024 0 0 1-5.672 9.796 8.612 8.612 0 0 1-2.074 0.266zM368.058 398.604a7.97 7.97 0 0 1-6.952-4.038l-3.984-6.984a7.978 7.978 0 0 1 2.984-10.904c3.82-2.21 8.724-0.86 10.904 2.984l3.984 6.984a7.978 7.978 0 0 1-2.984 10.904 7.9 7.9 0 0 1-3.952 1.054zM660.042 904.258a7.974 7.974 0 0 1-6.938-4l-3.996-6.922a7.98 7.98 0 0 1 2.918-10.92c3.796-2.25 8.704-0.906 10.922 2.922l4 6.92a7.98 7.98 0 0 1-2.922 10.922 7.918 7.918 0 0 1-3.984 1.078zM308.416 444.332a7.958 7.958 0 0 1-5.662-2.35l-5.656-5.67c-3.118-3.124-3.118-8.196 0.016-11.312s8.194-3.116 11.31 0.016l5.656 5.67a7.994 7.994 0 0 1-5.664 13.646zM721.348 857.216a7.976 7.976 0 0 1-5.656-2.344l-5.656-5.656a8 8 0 0 1 11.312-11.31l5.656 5.656a7.996 7.996 0 0 1-5.656 13.654zM262.65 503.964a7.94 7.94 0 0 1-4.022-1.094l-6.906-4.03a7.992 7.992 0 1 1 8.06-13.81l6.906 4.03a7.99 7.99 0 0 1 2.876 10.936 7.99 7.99 0 0 1-6.914 3.968zM768.376 795.912a7.924 7.924 0 0 1-3.984-1.078l-6.922-4a7.996 7.996 0 1 1 8-13.842l6.918 4a7.98 7.98 0 0 1 2.922 10.92 7.976 7.976 0 0 1-6.934 4zM233.904 573.41a8.34 8.34 0 0 1-2.132-0.282l-7.716-2.124a8.004 8.004 0 0 1 4.248-15.436l7.718 2.124a8.002 8.002 0 0 1-2.118 15.718zM797.964 724.516c-0.704 0-1.406-0.094-2.094-0.282l-7.718-2.078a7.98 7.98 0 0 1-5.624-9.796 7.96 7.96 0 0 1 9.812-5.638l7.684 2.078a7.986 7.986 0 0 1 5.656 9.794 8.012 8.012 0 0 1-7.716 5.922zM224.084 647.932h-0.046l-8-0.046a8 8 0 0 1 0.048-15.998h0.046l8 0.046a8 8 0 0 1-0.048 15.998zM800.07 647.916a8 8 0 0 1-0.016-15.998l7.968-0.016h0.016a8 8 0 0 1 8 7.982 7.996 7.996 0 0 1-7.984 8.016l-7.968 0.016h-0.016zM226.17 724.484a8 8 0 0 1-7.726-5.968 7.99 7.99 0 0 1 5.696-9.764l7.708-2.032c4.29-1.172 8.648 1.422 9.774 5.702a7.994 7.994 0 0 1-5.696 9.766l-7.71 2.032a7.756 7.756 0 0 1-2.046 0.264zM790.246 573.348a7.998 7.998 0 0 1-7.734-5.954 7.994 7.994 0 0 1 5.672-9.78l7.718-2.046c4.246-1.156 8.636 1.406 9.778 5.686a8.006 8.006 0 0 1-5.688 9.782l-7.684 2.046a7.836 7.836 0 0 1-2.062 0.266zM255.73 795.85a8 8 0 0 1-3.968-14.95l6.936-3.954a8.024 8.024 0 0 1 10.914 3 7.996 7.996 0 0 1-2.992 10.904l-6.936 3.954a8.07 8.07 0 0 1-3.954 1.046zM761.468 503.872a8.006 8.006 0 0 1-6.954-4.022 7.99 7.99 0 0 1 2.954-10.914l6.938-3.968a7.982 7.982 0 0 1 10.902 2.96 7.98 7.98 0 0 1-2.968 10.914l-6.902 3.968a7.974 7.974 0 0 1-3.97 1.062z" fill=""/>
</g>
</svg>