<svg width="17" height="17" viewBox="0 0 17 17" fill="none" xmlns="http://www.w3.org/2000/svg">
<path d="M15.0067 7.48047V10.4738C15.0067 13.4671 13.8133 14.6672 10.8133 14.6672H7.22001C6.83334 14.6672 6.47999 14.6472 6.15332 14.6005" stroke="#011530" stroke-width="1.5" stroke-linecap="round" stroke-linejoin="round"/>
<path d="M3.02664 10.3472V7.48047" stroke="#011530" stroke-width="1.5" stroke-linecap="round" stroke-linejoin="round"/>
<path d="M9.02002 7.9987C10.24 7.9987 11.14 7.0054 11.02 5.7854L10.5733 1.33203H7.46001L7.01335 5.7854C6.89335 7.0054 7.80003 7.9987 9.02002 7.9987Z" stroke="#011530" stroke-width="1.5" stroke-linecap="round" stroke-linejoin="round"/>
<path d="M13.22 7.9987C14.5667 7.9987 15.5533 6.90535 15.42 5.56535L15.2333 3.73201C14.9933 1.99868 14.3267 1.33203 12.58 1.33203H10.5467L11.0133 6.00537C11.1333 7.10537 12.12 7.9987 13.22 7.9987Z" stroke="#011530" stroke-width="1.5" stroke-linecap="round" stroke-linejoin="round"/>
<path d="M4.77997 7.9987C5.87997 7.9987 6.8733 7.10537 6.97997 6.00537L7.12665 4.53206L7.44664 1.33203H5.41332C3.66665 1.33203 3 1.99868 2.76 3.73201L2.57331 5.56535C2.43998 6.90535 3.43331 7.9987 4.77997 7.9987Z" stroke="#011530" stroke-width="1.5" stroke-linecap="round" stroke-linejoin="round"/>
<path d="M6.99999 12.6667C6.99999 13.1667 6.85998 13.64 6.61331 14.04C6.48665 14.2534 6.33331 14.4467 6.15331 14.6C6.13331 14.6267 6.11333 14.6467 6.08666 14.6667C5.61999 15.0867 5.00666 15.3333 4.33332 15.3333C3.51999 15.3333 2.7933 14.9666 2.3133 14.3933C2.29997 14.3733 2.28001 14.36 2.26667 14.34C2.18667 14.2467 2.11333 14.1467 2.05333 14.04C1.80667 13.64 1.66666 13.1667 1.66666 12.6667C1.66666 11.8267 2.05332 11.0733 2.66666 10.5867C2.77999 10.4933 2.89998 10.4133 3.02664 10.3467C3.41331 10.1267 3.85999 10 4.33332 10C4.99999 10 5.59997 10.24 6.06664 10.6466C6.14664 10.7066 6.21999 10.78 6.28665 10.8534C6.72665 11.3334 6.99999 11.9667 6.99999 12.6667Z" stroke="#011530" stroke-width="1.5" stroke-miterlimit="10" stroke-linecap="round" stroke-linejoin="round"/>
<path d="M5.32665 12.6523H3.34" stroke="#011530" stroke-width="1.5" stroke-miterlimit="10" stroke-linecap="round" stroke-linejoin="round"/>
<path d="M4.33331 11.6797V13.673" stroke="#011530" stroke-width="1.5" stroke-miterlimit="10" stroke-linecap="round" stroke-linejoin="round"/>
</svg>
