<!DOCTYPE svg PUBLIC "-//W3C//DTD SVG 1.1//EN" "http://www.w3.org/Graphics/SVG/1.1/DTD/svg11.dtd">

<svg height="40px" width="40px" version="1.1" id="Layer_1" xmlns="http://www.w3.org/2000/svg" xmlns:xlink="http://www.w3.org/1999/xlink" viewBox="0 0 504.123 504.123" xml:space="preserve" fill="#000000">

<g id="bgCarrier" stroke-width="0"/>

<g id="tracerCarrier" stroke-linecap="round" stroke-linejoin="round"/>

<g id="iconCarrier"> <circle style="fill:#324A5E;" cx="252.062" cy="252.062" r="252.062"/> <path style="fill:#F9B54C;" d="M148.48,252.062H94.523c0,87.04,70.498,157.538,157.538,157.538v-53.957 C194.954,355.643,148.48,309.169,148.48,252.062z"/> <path style="fill:#54C0EB;" d="M252.062,355.643V409.6c87.04,0,157.538-70.498,157.538-157.538h-53.957 C355.643,309.169,309.169,355.643,252.062,355.643z"/> <path style="fill:#F1543F;" d="M252.062,148.48V94.523c-87.04,0-157.538,70.498-157.538,157.538h53.957 C148.48,194.954,194.954,148.48,252.062,148.48z"/> <path style="fill:#ACB3BA;" d="M301.292,102.4l-46.08,46.08c14.572,0.394,28.357,3.938,40.566,9.452l39.778-39.778 C324.923,111.852,313.502,106.338,301.292,102.4z"/> <g> <path style="fill:#E6E9EE;" d="M252.062,94.523v53.957c1.182,0,1.969,0,3.151,0l46.08-46.08 C285.932,97.28,269.391,94.523,252.062,94.523z"/> <path style="fill:#E6E9EE;" d="M335.557,118.548l-39.778,39.778c11.028,5.12,20.874,12.209,29.538,20.48l38.203-38.203 C354.855,132.332,345.797,124.849,335.557,118.548z"/> </g> <g> <path style="fill:#ACB3BA;" d="M363.52,140.603l-38.203,38.203c8.665,8.665,15.36,18.511,20.48,29.538l39.778-39.778 C379.274,158.326,371.791,149.268,363.52,140.603z"/> <path style="fill:#ACB3BA;" d="M355.643,248.911c0,1.182,0,1.969,0,3.151H409.6c0-17.329-2.757-33.871-7.877-49.231 L355.643,248.911z"/> </g> <path style="fill:#E6E9EE;" d="M385.575,168.566l-39.778,39.778c5.908,12.603,9.058,25.994,9.452,40.566l46.474-46.08 C397.785,190.622,392.271,179.2,385.575,168.566z"/> <path style="fill:#FFFFFF;" d="M248.123,328.862v-13.391c-16.935-1.575-31.902-8.271-45.686-20.086l13.391-16.148 c10.24,9.058,20.874,14.572,31.902,16.148v-35.84c-13.785-3.151-24.025-7.877-30.72-12.997c-6.695-5.12-9.846-13.391-9.846-24.025 c0-10.634,3.545-19.298,11.028-26.388c7.483-6.695,17.329-10.634,29.145-11.028v-9.452h11.815v9.452 c13.391,1.182,26.388,5.514,38.597,13.785l-12.209,16.935c-8.271-5.908-16.935-9.452-26.388-10.634v34.658h0.394 c14.178,3.151,24.812,7.877,31.114,13.391c6.695,5.514,9.846,13.785,9.846,24.812c0,10.634-3.938,19.692-11.422,26.388 c-7.483,6.695-17.723,10.634-30.326,11.028v13.391L248.123,328.862L248.123,328.862z M235.126,209.132 c-3.151,2.757-4.726,6.302-4.726,10.24s1.182,7.483,3.545,9.846c2.363,2.363,7.089,4.726,14.178,7.089v-31.902 C242.609,204.8,238.277,206.375,235.126,209.132z M273.723,290.658c3.545-2.757,5.12-6.302,5.12-10.634 c0-4.332-1.182-7.877-3.938-10.24c-2.757-2.363-7.877-4.726-15.36-7.089v33.477C265.846,294.991,270.572,293.415,273.723,290.658z"/> </g>

</svg>