<svg width="40" height="40" viewBox="0 0 40 40" fill="none" xmlns="http://www.w3.org/2000/svg">
<rect width="40" height="40" rx="20" fill="#CBF1F5"/>
<path d="M28.5 15.2778L20 20.0001M20 20.0001L11.5 15.2778M20 20.0001L20 29.5001M29 24.0586V15.9415C29 15.5989 29 15.4276 28.9495 15.2748C28.9049 15.1396 28.8318 15.0155 28.7354 14.9108C28.6263 14.7925 28.4766 14.7093 28.177 14.5429L20.777 10.4318C20.4934 10.2742 20.3516 10.1954 20.2015 10.1645C20.0685 10.1372 19.9315 10.1372 19.7986 10.1645C19.6484 10.1954 19.5066 10.2742 19.223 10.4318L11.823 14.5429C11.5234 14.7093 11.3737 14.7925 11.2646 14.9108C11.1682 15.0155 11.0951 15.1396 11.0505 15.2748C11 15.4276 11 15.5989 11 15.9415V24.0586C11 24.4013 11 24.5726 11.0505 24.7254C11.0951 24.8606 11.1682 24.9847 11.2646 25.0893C11.3737 25.2077 11.5234 25.2909 11.823 25.4573L19.223 29.5684C19.5066 29.726 19.6484 29.8047 19.7986 29.8356C19.9315 29.863 20.0685 29.863 20.2015 29.8356C20.3516 29.8047 20.4934 29.726 20.777 29.5684L28.177 25.4573C28.4766 25.2909 28.6263 25.2077 28.7354 25.0893C28.8318 24.9847 28.9049 24.8606 28.9495 24.7254C29 24.5726 29 24.4013 29 24.0586Z" stroke="black" stroke-width="1.5" stroke-linecap="round" stroke-linejoin="round"/>
<path d="M24.5 17.5L15.5 12.5" stroke="black" stroke-width="1.5" stroke-linecap="round" stroke-linejoin="round"/>
</svg>
