<svg width="24" height="25" viewBox="0 0 24 25" fill="none" xmlns="http://www.w3.org/2000/svg">
<path d="M3.34 17.5001C2.91727 16.7691 2.58866 15.9875 2.362 15.1741C2.85531 14.9232 3.26959 14.5407 3.55903 14.069C3.84846 13.5972 4.00176 13.0546 4.00197 12.5012C4.00218 11.9477 3.84928 11.405 3.5602 10.9331C3.27112 10.4611 2.85712 10.0783 2.364 9.82707C2.81604 8.19255 3.67673 6.70002 4.865 5.49007C5.32909 5.79179 5.86762 5.95923 6.42098 5.97385C6.97434 5.98847 7.52095 5.8497 8.00033 5.5729C8.47971 5.2961 8.87315 4.89207 9.13713 4.40551C9.4011 3.91895 9.52531 3.36884 9.496 2.81607C11.1381 2.39169 12.8612 2.39238 14.503 2.81807C14.474 3.37083 14.5984 3.92086 14.8626 4.40728C15.1268 4.89369 15.5204 5.29754 15.9998 5.57413C16.4793 5.85071 17.0259 5.98925 17.5793 5.97442C18.1326 5.95958 18.671 5.79195 19.135 5.49007C19.714 6.08007 20.228 6.75107 20.66 7.50007C21.093 8.24907 21.417 9.03007 21.638 9.82607C21.1447 10.077 20.7304 10.4594 20.441 10.9312C20.1515 11.4029 19.9982 11.9455 19.998 12.499C19.9978 13.0524 20.1507 13.5951 20.4398 14.0671C20.7289 14.539 21.1429 14.9218 21.636 15.1731C21.184 16.8076 20.3233 18.3001 19.135 19.5101C18.6709 19.2083 18.1324 19.0409 17.579 19.0263C17.0257 19.0117 16.479 19.1504 15.9997 19.4272C15.5203 19.704 15.1268 20.1081 14.8629 20.5946C14.5989 21.0812 14.4747 21.6313 14.504 22.1841C12.8619 22.6084 11.1388 22.6078 9.497 22.1821C9.52605 21.6293 9.4016 21.0793 9.13742 20.5929C8.87324 20.1064 8.47964 19.7026 8.00017 19.426C7.5207 19.1494 6.97405 19.0109 6.42073 19.0257C5.8674 19.0406 5.32896 19.2082 4.865 19.5101C4.27399 18.907 3.76159 18.2317 3.34 17.5001ZM9 17.6961C10.0656 18.3107 10.8668 19.2971 11.25 20.4661C11.749 20.5131 12.25 20.5141 12.749 20.4671C13.1324 19.2979 13.934 18.3115 15 17.6971C16.0652 17.0808 17.3205 16.8795 18.525 17.1321C18.815 16.7241 19.065 16.2891 19.273 15.8341C18.4524 14.9175 17.9991 13.7303 18 12.5001C18 11.2401 18.47 10.0631 19.273 9.16607C19.0635 8.71122 18.8125 8.2767 18.523 7.86807C17.3193 8.12038 16.0648 7.91954 15 7.30407C13.9344 6.68944 13.1332 5.70305 12.75 4.53407C12.251 4.48707 11.75 4.48607 11.251 4.53307C10.8676 5.70221 10.066 6.68863 9 7.30307C7.93478 7.91938 6.67948 8.12059 5.475 7.86807C5.18556 8.27635 4.93513 8.71093 4.727 9.16607C5.54757 10.0826 6.00088 11.2699 6 12.5001C6 13.7601 5.53 14.9371 4.727 15.8341C4.93647 16.2889 5.18754 16.7234 5.477 17.1321C6.68072 16.8798 7.93521 17.0806 9 17.6961ZM12 15.5001C11.2044 15.5001 10.4413 15.184 9.87868 14.6214C9.31607 14.0588 9 13.2957 9 12.5001C9 11.7044 9.31607 10.9414 9.87868 10.3787C10.4413 9.81614 11.2044 9.50007 12 9.50007C12.7956 9.50007 13.5587 9.81614 14.1213 10.3787C14.6839 10.9414 15 11.7044 15 12.5001C15 13.2957 14.6839 14.0588 14.1213 14.6214C13.5587 15.184 12.7956 15.5001 12 15.5001ZM12 13.5001C12.2652 13.5001 12.5196 13.3947 12.7071 13.2072C12.8946 13.0196 13 12.7653 13 12.5001C13 12.2348 12.8946 11.9805 12.7071 11.793C12.5196 11.6054 12.2652 11.5001 12 11.5001C11.7348 11.5001 11.4804 11.6054 11.2929 11.793C11.1054 11.9805 11 12.2348 11 12.5001C11 12.7653 11.1054 13.0196 11.2929 13.2072C11.4804 13.3947 11.7348 13.5001 12 13.5001Z" fill="#03053D"/>
</svg>
