<svg width="16" height="16" viewBox="0 0 24 24" fill="none" xmlns="http://www.w3.org/2000/svg">
<path d="M3.3403 17C2.91758 16.269 2.58897 15.4875 2.3623 14.674C2.85561 14.4231 3.2699 14.0406 3.55933 13.5689C3.84877 13.0972 4.00207 12.5546 4.00228 12.0011C4.00248 11.4477 3.84959 10.905 3.56051 10.433C3.27143 9.96106 2.85742 9.57828 2.3643 9.32701C2.81634 7.69249 3.67703 6.19996 4.8653 4.99001C5.3294 5.29173 5.86792 5.45917 6.42128 5.47379C6.97464 5.48841 7.52126 5.34964 8.00063 5.07284C8.48001 4.79604 8.87346 4.392 9.13743 3.90545C9.4014 3.41889 9.52561 2.86878 9.4963 2.31601C11.1384 1.89163 12.8615 1.89232 14.5033 2.31801C14.4743 2.87077 14.5987 3.4208 14.8629 3.90721C15.1271 4.39363 15.5207 4.79748 16.0001 5.07407C16.4796 5.35065 17.0262 5.48919 17.5796 5.47436C18.1329 5.45952 18.6713 5.29189 19.1353 4.99001C19.7143 5.58001 20.2283 6.25101 20.6603 7.00001C21.0933 7.74901 21.4173 8.53001 21.6383 9.32601C21.145 9.57691 20.7307 9.95938 20.4413 10.4311C20.1518 10.9028 19.9985 11.4454 19.9983 11.9989C19.9981 12.5523 20.151 13.0951 20.4401 13.567C20.7292 14.039 21.1432 14.4217 21.6363 14.673C21.1843 16.3075 20.3236 17.8001 19.1353 19.01C18.6712 18.7083 18.1327 18.5408 17.5793 18.5262C17.026 18.5116 16.4794 18.6504 16 18.9272C15.5206 19.204 15.1272 19.608 14.8632 20.0946C14.5992 20.5811 14.475 21.1312 14.5043 21.684C12.8622 22.1084 11.1391 22.1077 9.4973 21.682C9.52635 21.1292 9.4019 20.5792 9.13773 20.0928C8.87355 19.6064 8.47995 19.2025 8.00048 18.9259C7.52101 18.6494 6.97436 18.5108 6.42103 18.5257C5.8677 18.5405 5.32927 18.7081 4.8653 19.01C4.2743 18.407 3.7619 17.7316 3.3403 17V17ZM9.0003 17.196C10.0659 17.8106 10.8672 18.797 11.2503 19.966C11.7493 20.013 12.2503 20.014 12.7493 19.967C13.1327 18.7979 13.9343 17.8114 15.0003 17.197C16.0655 16.5807 17.3208 16.3795 18.5253 16.632C18.8153 16.224 19.0653 15.789 19.2733 15.334C18.4527 14.4174 17.9994 13.2302 18.0003 12C18.0003 10.74 18.4703 9.56301 19.2733 8.66601C19.0638 8.21115 18.8128 7.77664 18.5233 7.36801C17.3196 7.62032 16.0651 7.41948 15.0003 6.80401C13.9347 6.18938 13.1335 5.20299 12.7503 4.03401C12.2513 3.98701 11.7503 3.98601 11.2513 4.03301C10.8679 5.20215 10.0663 6.18857 9.0003 6.80301C7.93509 7.41932 6.67978 7.62053 5.4753 7.36801C5.18587 7.77629 4.93544 8.21087 4.7273 8.66601C5.54788 9.58257 6.00119 10.7698 6.0003 12C6.0003 13.26 5.5303 14.437 4.7273 15.334C4.93678 15.7889 5.18784 16.2234 5.4773 16.632C6.68102 16.3797 7.93551 16.5805 9.0003 17.196ZM12.0003 15C11.2047 15 10.4416 14.6839 9.87898 14.1213C9.31637 13.5587 9.0003 12.7957 9.0003 12C9.0003 11.2044 9.31637 10.4413 9.87898 9.87869C10.4416 9.31608 11.2047 9.00001 12.0003 9.00001C12.796 9.00001 13.559 9.31608 14.1216 9.87869C14.6842 10.4413 15.0003 11.2044 15.0003 12C15.0003 12.7957 14.6842 13.5587 14.1216 14.1213C13.559 14.6839 12.796 15 12.0003 15ZM12.0003 13C12.2655 13 12.5199 12.8946 12.7074 12.7071C12.8949 12.5196 13.0003 12.2652 13.0003 12C13.0003 11.7348 12.8949 11.4804 12.7074 11.2929C12.5199 11.1054 12.2655 11 12.0003 11C11.7351 11 11.4807 11.1054 11.2932 11.2929C11.1057 11.4804 11.0003 11.7348 11.0003 12C11.0003 12.2652 11.1057 12.5196 11.2932 12.7071C11.4807 12.8946 11.7351 13 12.0003 13V13Z" fill="#9CA3AF"/>
</svg>
