<svg width="20" height="20" viewBox="0 0 20 20" fill="none" xmlns="http://www.w3.org/2000/svg">
<path d="M5.58334 7.71655L10 10.2749L14.3833 7.73322" stroke="#9CA3AF" stroke-width="1.5" stroke-linecap="round" stroke-linejoin="round"/>
<path d="M10 14.8083V10.2666" stroke="#9CA3AF" stroke-width="1.5" stroke-linecap="round" stroke-linejoin="round"/>
<path d="M8.96666 5.24163L6.29999 6.72496C5.69999 7.05829 5.19998 7.89996 5.19998 8.59163V11.4166C5.19998 12.1083 5.69165 12.95 6.29999 13.2833L8.96666 14.7666C9.53333 15.0833 10.4667 15.0833 11.0417 14.7666L13.7083 13.2833C14.3083 12.95 14.8083 12.1083 14.8083 11.4166V8.5833C14.8083 7.89163 14.3167 7.04996 13.7083 6.71663L11.0417 5.23329C10.4667 4.91663 9.53333 4.91663 8.96666 5.24163Z" stroke="#9CA3AF" stroke-width="1.5" stroke-linecap="round" stroke-linejoin="round"/>
<path d="M18.3333 12.5C18.3333 15.725 15.725 18.3333 12.5 18.3333L13.375 16.875" stroke="#9CA3AF" stroke-width="1.5" stroke-linecap="round" stroke-linejoin="round"/>
<path d="M1.66666 7.50008C1.66666 4.27508 4.27499 1.66675 7.49999 1.66675L6.625 3.12508" stroke="#9CA3AF" stroke-width="1.5" stroke-linecap="round" stroke-linejoin="round"/>
</svg>
