<svg width="16" height="16" viewBox="0 0 16 16" fill="none" xmlns="http://www.w3.org/2000/svg">
<g clip-path="url(#clip0_4242_60)">
<path d="M5.33325 1.33325V3.33325" stroke="#9CA3AF" stroke-width="1.5" stroke-miterlimit="10" stroke-linecap="round" stroke-linejoin="round"/>
<path d="M10.6667 1.33325V3.33325" stroke="#9CA3AF" stroke-width="1.5" stroke-miterlimit="10" stroke-linecap="round" stroke-linejoin="round"/>
<path d="M14 5.66659V9.08659C13.4067 8.61325 12.6533 8.33325 11.8333 8.33325C11.0133 8.33325 10.2467 8.6199 9.64667 9.10657C8.84 9.7399 8.33333 10.7333 8.33333 11.8333C8.33333 12.4866 8.52001 13.1133 8.84001 13.6333C9.08667 14.0399 9.40666 14.3933 9.78666 14.6666H5.33333C3 14.6666 2 13.3333 2 11.3333V5.66659C2 3.66659 3 2.33325 5.33333 2.33325H10.6667C13 2.33325 14 3.66659 14 5.66659Z" stroke="#9CA3AF" stroke-width="1.5" stroke-miterlimit="10" stroke-linecap="round" stroke-linejoin="round"/>
<path d="M4.66675 7.33325H8.66675" stroke="#9CA3AF" stroke-width="1.5" stroke-miterlimit="10" stroke-linecap="round" stroke-linejoin="round"/>
<path d="M4.66675 10.6667H6.41341" stroke="#9CA3AF" stroke-width="1.5" stroke-miterlimit="10" stroke-linecap="round" stroke-linejoin="round"/>
<path d="M15.3333 11.8333C15.3333 12.4866 15.1466 13.1133 14.8266 13.6333C14.6399 13.9533 14.4066 14.2333 14.1333 14.4599C13.5199 15.0066 12.7199 15.3333 11.8333 15.3333C11.0666 15.3333 10.3599 15.0866 9.78658 14.6666C9.40658 14.3933 9.08659 14.0399 8.83993 13.6333C8.51993 13.1133 8.33325 12.4866 8.33325 11.8333C8.33325 10.7333 8.83992 9.7399 9.64659 9.10657C10.2466 8.6199 11.0133 8.33325 11.8333 8.33325C12.6533 8.33325 13.4066 8.61326 13.9999 9.08659C14.8133 9.72659 15.3333 10.7199 15.3333 11.8333Z" stroke="#9CA3AF" stroke-width="1.5" stroke-miterlimit="10" stroke-linecap="round" stroke-linejoin="round"/>
<path d="M11.8334 13.5001C11.8334 12.5801 12.5801 11.8334 13.5001 11.8334C12.5801 11.8334 11.8334 11.0867 11.8334 10.1667C11.8334 11.0867 11.0867 11.8334 10.1667 11.8334C11.0867 11.8334 11.8334 12.5801 11.8334 13.5001Z" stroke="#9CA3AF" stroke-width="1.5" stroke-linecap="round" stroke-linejoin="round"/>
</g>
<defs>
<clipPath id="clip0_4242_60">
<rect width="16" height="16" fill="white"/>
</clipPath>
</defs>
</svg>
