<svg width="16" height="16" viewBox="0 0 16 16" fill="none" xmlns="http://www.w3.org/2000/svg">
<g clip-path="url(#clip0_4246_115)">
<path d="M8.00008 8.00004C9.84103 8.00004 11.3334 6.50766 11.3334 4.66671C11.3334 2.82576 9.84103 1.33337 8.00008 1.33337C6.15913 1.33337 4.66675 2.82576 4.66675 4.66671C4.66675 6.50766 6.15913 8.00004 8.00008 8.00004Z" stroke="#9CA3AF" stroke-width="1.5" stroke-linecap="round" stroke-linejoin="round"/>
<path d="M12.8065 10.4933L10.4465 12.8534C10.3532 12.9467 10.2665 13.12 10.2465 13.2467L10.1199 14.1467C10.0732 14.4733 10.2999 14.7 10.6265 14.6533L11.5265 14.5267C11.6532 14.5067 11.8332 14.42 11.9199 14.3267L14.2799 11.9667C14.6865 11.56 14.8799 11.0867 14.2799 10.4867C13.6865 9.89334 13.2132 10.0867 12.8065 10.4933Z" stroke="#9CA3AF" stroke-width="1.5" stroke-miterlimit="10" stroke-linecap="round" stroke-linejoin="round"/>
<path d="M12.4666 10.8334C12.6666 11.5534 13.2265 12.1134 13.9465 12.3134" stroke="#9CA3AF" stroke-width="1.5" stroke-miterlimit="10" stroke-linecap="round" stroke-linejoin="round"/>
<path d="M2.27344 14.6667C2.27344 12.0867 4.84012 10 8.00012 10C8.69346 10 9.3601 10.1 9.9801 10.2867" stroke="#9CA3AF" stroke-width="1.5" stroke-linecap="round" stroke-linejoin="round"/>
</g>
<defs>
<clipPath id="clip0_4246_115">
<rect width="16" height="16" fill="white"/>
</clipPath>
</defs>
</svg>
