<svg width="14px" height="14px" viewBox="-7.98 0 48.891 48.891" xmlns="http://www.w3.org/2000/svg" fill="#000000">

<g id="bgCarrier" stroke-width="0"/>

<g id="tracerCarrier" stroke-linecap="round" stroke-linejoin="round"/>

<g id="iconCarrier"> <g id="tax_returns" data-name="tax returns" transform="translate(-234.036 -34.49)"> <path id="Path_11" data-name="Path 11" d="M266.464,34.99H234.536V74.9l7.982,7.982h23.946V34.99Z" fill="#f2f7fd" fill-rule="evenodd"/> <path id="Path_12" data-name="Path 12" d="M246.509,34.99H234.536V74.9l7.982,7.982h23.946V34.99H254.491m-3.492,0h-1M238.527,62.926h15.964m-15.964-3.991h23.946m-23.946-3.991h23.946m0,23.946h-7.982M234.536,74.9h7.982v7.982m13.968-39.909,5.987,6.391m-5.987-.4,5.987-5.986m-8.98,4.988h-5.986m0,1,2.993-5.986,2.993,5.986m-14.966-5.986h5.987m-2.994,0v5.986" fill="none" stroke="#03053D" stroke-linecap="round" stroke-linejoin="round" stroke-width="3"/> </g> </g>

</svg>