<svg width="14" height="14" viewBox="0 0 14 14" fill="none" xmlns="http://www.w3.org/2000/svg">
<g clip-path="url(#clip0_2375_57386)">
<path d="M8.16634 8.31368V9.53284C7.63838 9.34618 7.07333 9.28893 6.51866 9.36589C5.96399 9.44285 5.43587 9.65178 4.97868 9.97513C4.52148 10.2985 4.14854 10.7268 3.89119 11.2242C3.63383 11.7215 3.49957 12.2734 3.49967 12.8333L2.33301 12.8328C2.33283 12.1204 2.49571 11.4175 2.80918 10.7779C3.12265 10.1383 3.57839 9.57889 4.14147 9.14261C4.70455 8.70634 5.36003 8.40475 6.05768 8.26097C6.75533 8.11718 7.47664 8.13501 8.16634 8.31309V8.31368ZM6.99967 7.58334C5.06592 7.58334 3.49967 6.01709 3.49967 4.08334C3.49967 2.14959 5.06592 0.583344 6.99967 0.583344C8.93342 0.583344 10.4997 2.14959 10.4997 4.08334C10.4997 6.01709 8.93342 7.58334 6.99967 7.58334ZM6.99967 6.41668C8.28884 6.41668 9.33301 5.37251 9.33301 4.08334C9.33301 2.79418 8.28884 1.75001 6.99967 1.75001C5.71051 1.75001 4.66634 2.79418 4.66634 4.08334C4.66634 5.37251 5.71051 6.41668 6.99967 6.41668ZM10.4997 9.91668V8.16668H11.6663V9.91668H13.4163V11.0833H11.6663V12.8333H10.4997V11.0833H8.74967V9.91668H10.4997Z" fill="#03053D"/>
</g>
<defs>
<clipPath id="clip0_2375_57386">
<rect width="14" height="14" fill="white"/>
</clipPath>
</defs>
</svg>
