<svg width="16" height="16" viewBox="0 0 16 16" fill="none" xmlns="http://www.w3.org/2000/svg">
<path d="M10.3333 12L11.6667 13.3333L14.3333 10.6667M7.66667 10H5C3.75749 10 3.13623 10 2.64618 10.203C1.99277 10.4736 1.47364 10.9928 1.20299 11.6462C1 12.1362 1 12.7575 1 14M10 2.19384C10.9773 2.58943 11.6667 3.54754 11.6667 4.66667C11.6667 5.78579 10.9773 6.7439 10 7.13949M8.66667 4.66667C8.66667 6.13943 7.47276 7.33333 6 7.33333C4.52724 7.33333 3.33333 6.13943 3.33333 4.66667C3.33333 3.19391 4.52724 2 6 2C7.47276 2 8.66667 3.19391 8.66667 4.66667Z" stroke="#011530" stroke-width="1.5" stroke-linecap="round" stroke-linejoin="round"/>
</svg>
