<svg width="16" height="14" viewBox="0 0 16 14" fill="none" xmlns="http://www.w3.org/2000/svg">
<path d="M10.3333 11L11.6667 12.3333L14.3333 9.66667M7.66667 9H5C3.75749 9 3.13623 9 2.64618 9.20299C1.99277 9.47364 1.47364 9.99277 1.20299 10.6462C1 11.1362 1 11.7575 1 13M10 1.19384C10.9773 1.58943 11.6667 2.54754 11.6667 3.66667C11.6667 4.78579 10.9773 5.7439 10 6.13949M8.66667 3.66667C8.66667 5.13943 7.47276 6.33333 6 6.33333C4.52724 6.33333 3.33333 5.13943 3.33333 3.66667C3.33333 2.19391 4.52724 1 6 1C7.47276 1 8.66667 2.19391 8.66667 3.66667Z" stroke="#9CA3AF" stroke-width="1.5" stroke-linecap="round" stroke-linejoin="round"/>
</svg>
