<svg width="24" height="24" viewBox="0 0 24 24" fill="none" xmlns="http://www.w3.org/2000/svg">
<path d="M17.8045 18.8516L17.2449 18.9089L17.4035 20.4572C17.4159 20.5778 17.4028 20.6996 17.3651 20.8148C17.3274 20.9299 17.266 21.0359 17.1848 21.1259C17.1036 21.2159 17.0044 21.2878 16.8937 21.337C16.7829 21.3862 16.6631 21.4117 16.5419 21.4116H16.3062L14.5766 19.7917C14.1774 19.4166 13.65 19.2082 13.1022 19.209H6.03537C5.4876 19.2082 4.9602 19.4166 4.56092 19.7916L2.83134 21.4116H2.58493C2.46374 21.4116 2.3439 21.3862 2.23315 21.337C2.1224 21.2878 2.02322 21.2158 1.94201 21.1259C1.86079 21.0359 1.79936 20.9299 1.76168 20.8147C1.724 20.6996 1.71091 20.5778 1.72326 20.4572L2.98932 8.09947C3.01067 7.88595 3.11073 7.68801 3.27001 7.54422C3.42929 7.40042 3.63638 7.32105 3.85097 7.32157H6.62728V8.56782C6.39424 8.63554 6.19345 8.78509 6.06182 8.98897C5.93019 9.19286 5.87654 9.4374 5.91075 9.67767C5.94495 9.91793 6.0647 10.1378 6.24801 10.2968C6.43131 10.4559 6.66585 10.5435 6.90853 10.5435C7.15122 10.5435 7.38576 10.4559 7.56906 10.2968C7.75236 10.1378 7.87211 9.91793 7.90632 9.67767C7.94052 9.4374 7.88688 9.19286 7.75525 8.98897C7.62361 8.78509 7.42283 8.63554 7.18978 8.56782V7.32157H11.937V8.56782C11.704 8.63554 11.5032 8.78509 11.3716 8.98897C11.2399 9.19286 11.1863 9.4374 11.2205 9.67767C11.2547 9.91793 11.3744 10.1378 11.5577 10.2968C11.741 10.4559 11.9756 10.5435 12.2183 10.5435C12.461 10.5435 12.6955 10.4559 12.8788 10.2968C13.0621 10.1378 13.1819 9.91793 13.2161 9.67767C13.2503 9.4374 13.1966 9.19286 13.065 8.98897C12.9334 8.78509 12.7326 8.63554 12.4995 8.56782V7.32157H15.2758C15.4907 7.32116 15.698 7.4008 15.8574 7.54497C16.0167 7.68914 16.1167 7.88749 16.1377 8.10135L16.2182 8.8389L16.7774 8.77783L16.6971 8.04216C16.6618 7.68997 16.4968 7.36349 16.2341 7.12631C15.9713 6.88912 15.6298 6.75821 15.2758 6.75907H12.4995V5.88094C12.4995 5.10224 12.1902 4.35542 11.6396 3.80479C11.0889 3.25416 10.3421 2.94482 9.5634 2.94482C8.7847 2.94482 8.03788 3.25416 7.48725 3.80479C6.93662 4.35542 6.62728 5.10224 6.62728 5.88094V6.75907H3.85097C3.49703 6.75822 3.15544 6.88913 2.89272 7.12631C2.63 7.3635 2.46497 7.68997 2.42975 8.04216L1.16369 20.3999C1.14331 20.5987 1.1649 20.7996 1.22704 20.9896C1.28918 21.1796 1.39051 21.3545 1.52446 21.5028C1.65842 21.6512 1.82202 21.7698 2.00469 21.851C2.18737 21.9322 2.38504 21.9742 2.58494 21.9741H16.5419C16.7418 21.9741 16.9394 21.9322 17.1221 21.851C17.3048 21.7698 17.4684 21.6512 17.6023 21.5028C17.7363 21.3545 17.8376 21.1796 17.8998 20.9896C17.9619 20.7997 17.9835 20.5987 17.9631 20.3999L17.8045 18.8516ZM7.35387 9.53495C7.35387 9.62303 7.32775 9.70914 7.27882 9.78238C7.22989 9.85561 7.16033 9.9127 7.07895 9.94641C6.99758 9.98012 6.90803 9.98894 6.82164 9.97175C6.73525 9.95457 6.65589 9.91216 6.59361 9.84987C6.53133 9.78759 6.48891 9.70823 6.47173 9.62184C6.45454 9.53545 6.46336 9.4459 6.49707 9.36453C6.53078 9.28315 6.58787 9.21359 6.66111 9.16466C6.73434 9.11573 6.82045 9.08961 6.90853 9.08961C7.0266 9.08975 7.1398 9.13671 7.22328 9.2202C7.30677 9.30368 7.35373 9.41688 7.35387 9.53495ZM12.6636 9.53495C12.6636 9.62303 12.6375 9.70914 12.5886 9.78238C12.5396 9.85561 12.4701 9.9127 12.3887 9.94641C12.3073 9.98012 12.2178 9.98894 12.1314 9.97175C12.045 9.95457 11.9656 9.91216 11.9033 9.84987C11.8411 9.78759 11.7986 9.70823 11.7815 9.62184C11.7643 9.53545 11.7731 9.4459 11.8068 9.36453C11.8405 9.28315 11.8976 9.21359 11.9708 9.16466C12.0441 9.11573 12.1302 9.08961 12.2183 9.08961C12.3363 9.08975 12.4495 9.13671 12.533 9.2202C12.6165 9.30368 12.6635 9.41688 12.6636 9.53495ZM7.18978 5.88094C7.18978 5.25142 7.43986 4.64768 7.885 4.20254C8.33014 3.7574 8.93388 3.50732 9.5634 3.50732C10.1929 3.50732 10.7967 3.7574 11.2418 4.20254C11.6869 4.64768 11.937 5.25142 11.937 5.88094V6.75907H7.18978V5.88094Z" fill="black"/>
<path d="M22.4885 18.9086L20.1469 16.5669C20.8348 15.7895 21.1966 14.7768 21.157 13.7395C21.1175 12.7022 20.6796 11.72 19.9345 10.9973C19.1893 10.2745 18.1943 9.86676 17.1562 9.85882C16.1182 9.85088 15.117 10.2434 14.3609 10.9546C13.6048 11.6659 13.152 12.6413 13.0966 13.6779C13.0412 14.7145 13.3874 15.7325 14.0634 16.5204C14.7393 17.3082 15.6929 17.8052 16.7259 17.908C17.7589 18.0108 18.7917 17.7115 19.6096 17.0723L21.9562 19.4188L22.4885 18.9086ZM14.7691 16.2483C14.2243 15.7035 13.8853 14.9867 13.8098 14.22C13.7343 13.4532 13.9269 12.684 14.355 12.0434C14.783 11.4028 15.4199 10.9304 16.1572 10.7068C16.8945 10.4831 17.6865 10.522 18.3983 10.8169C19.1101 11.1117 19.6977 11.6442 20.0609 12.3237C20.4241 13.0032 20.5404 13.7876 20.3901 14.5432C20.2398 15.2989 19.8321 15.979 19.2366 16.4678C18.641 16.9566 17.8944 17.2237 17.1239 17.2237C16.6864 17.2249 16.253 17.1393 15.8488 16.9719C15.4446 16.8045 15.0777 16.5585 14.7691 16.2483Z" fill="black"/>
<path d="M19.0445 13.3663C18.4067 12.5788 17.7326 12.1856 17.0403 12.1941C16.6496 12.1996 15.8804 12.3575 15.1193 13.3534C15.0101 13.4963 14.9523 13.6718 14.9552 13.8516C14.9581 14.0313 15.0216 14.2049 15.1353 14.3441C15.7654 15.1222 16.4311 15.5165 17.1145 15.5165C17.1228 15.5165 17.1311 15.5164 17.1395 15.5163C17.5302 15.5108 18.2994 15.3529 19.0606 14.357C19.1697 14.2141 19.2275 14.0386 19.2246 13.8589C19.2217 13.6791 19.1582 13.5056 19.0445 13.3663ZM17.0899 14.6199C16.9343 14.6199 16.7821 14.5737 16.6527 14.4872C16.5233 14.4008 16.4224 14.2779 16.3629 14.1341C16.3033 13.9903 16.2877 13.8321 16.3181 13.6794C16.3485 13.5268 16.4234 13.3866 16.5335 13.2765C16.6435 13.1665 16.7837 13.0915 16.9364 13.0612C17.089 13.0308 17.2472 13.0464 17.391 13.106C17.5348 13.1655 17.6577 13.2664 17.7442 13.3958C17.8306 13.5252 17.8768 13.6773 17.8768 13.833C17.8768 13.9363 17.8564 14.0386 17.8169 14.1341C17.7773 14.2296 17.7194 14.3163 17.6463 14.3894C17.5732 14.4625 17.4865 14.5204 17.391 14.56C17.2956 14.5995 17.1932 14.6199 17.0899 14.6199Z" fill="black"/>
</svg>
