<svg xmlns="http://www.w3.org/2000/svg" version="1.1" width="150" height="150" viewBox="0 0 150 150"><rect x="0" y="0" width="150" height="150" fill="#ffffff"/><g transform="scale(1.852)"><g transform="translate(0,0)"><path fill-rule="evenodd" d="M8 0L8 1L10 1L10 0ZM11 0L11 1L12 1L12 2L8 2L8 5L9 5L9 6L8 6L8 7L9 7L9 6L10 6L10 7L11 7L11 5L14 5L14 7L15 7L15 6L16 6L16 9L17 9L17 5L18 5L18 8L20 8L20 11L19 11L19 10L18 10L18 11L19 11L19 12L18 12L18 13L21 13L21 12L22 12L22 11L23 11L23 10L21 10L21 6L22 6L22 7L23 7L23 9L29 9L29 10L28 10L28 11L27 11L27 10L25 10L25 11L24 11L24 12L25 12L25 13L22 13L22 15L21 15L21 14L16 14L16 13L15 13L15 12L17 12L17 10L16 10L16 11L14 11L14 10L11 10L11 12L12 12L12 13L15 13L15 14L16 14L16 15L14 15L14 16L15 16L15 17L18 17L18 19L17 19L17 20L14 20L14 22L12 22L12 23L10 23L10 24L8 24L8 23L9 23L9 21L10 21L10 22L11 22L11 21L10 21L10 19L9 19L9 17L10 17L10 18L11 18L11 16L12 16L12 17L13 17L13 19L14 19L14 17L13 17L13 14L12 14L12 15L11 15L11 13L9 13L9 12L8 12L8 13L7 13L7 12L6 12L6 11L9 11L9 10L10 10L10 9L11 9L11 8L8 8L8 9L7 9L7 8L6 8L6 9L7 9L7 10L5 10L5 9L4 9L4 8L0 8L0 9L1 9L1 10L0 10L0 12L1 12L1 14L0 14L0 17L1 17L1 19L0 19L0 20L1 20L1 22L0 22L0 23L1 23L1 24L0 24L0 28L1 28L1 29L0 29L0 33L1 33L1 34L2 34L2 35L0 35L0 37L1 37L1 38L0 38L0 42L1 42L1 41L2 41L2 42L3 42L3 44L2 44L2 43L0 43L0 44L1 44L1 45L2 45L2 46L3 46L3 47L4 47L4 46L5 46L5 47L7 47L7 46L8 46L8 48L2 48L2 49L1 49L1 52L0 52L0 62L1 62L1 61L3 61L3 62L2 62L2 63L3 63L3 62L4 62L4 63L5 63L5 62L6 62L6 63L7 63L7 62L9 62L9 61L8 61L8 60L6 60L6 59L7 59L7 58L8 58L8 57L9 57L9 58L10 58L10 59L9 59L9 60L10 60L10 59L11 59L11 60L12 60L12 59L13 59L13 60L15 60L15 62L12 62L12 63L13 63L13 64L11 64L11 62L10 62L10 63L8 63L8 64L9 64L9 65L8 65L8 66L6 66L6 65L7 65L7 64L6 64L6 65L5 65L5 66L4 66L4 64L2 64L2 65L1 65L1 64L0 64L0 65L1 65L1 66L0 66L0 67L1 67L1 69L0 69L0 70L1 70L1 73L4 73L4 72L2 72L2 71L4 71L4 70L6 70L6 71L5 71L5 72L6 72L6 73L7 73L7 72L8 72L8 71L9 71L9 73L8 73L8 74L9 74L9 75L10 75L10 74L11 74L11 72L10 72L10 71L9 71L9 68L8 68L8 66L9 66L9 65L10 65L10 64L11 64L11 65L12 65L12 66L10 66L10 67L13 67L13 66L14 66L14 65L16 65L16 66L15 66L15 67L16 67L16 68L13 68L13 69L12 69L12 68L11 68L11 71L12 71L12 75L11 75L11 76L10 76L10 77L8 77L8 81L10 81L10 79L11 79L11 80L12 80L12 79L13 79L13 81L14 81L14 80L16 80L16 81L18 81L18 80L19 80L19 81L21 81L21 79L22 79L22 77L24 77L24 78L23 78L23 79L24 79L24 81L25 81L25 80L27 80L27 81L30 81L30 79L25 79L25 77L29 77L29 78L30 78L30 77L31 77L31 76L32 76L32 77L33 77L33 78L36 78L36 79L37 79L37 77L35 77L35 76L39 76L39 77L38 77L38 78L39 78L39 79L40 79L40 78L39 78L39 77L40 77L40 75L39 75L39 72L38 72L38 69L39 69L39 71L40 71L40 72L41 72L41 73L43 73L43 74L41 74L41 75L43 75L43 76L41 76L41 79L43 79L43 78L42 78L42 77L43 77L43 76L44 76L44 77L45 77L45 78L47 78L47 77L48 77L48 78L49 78L49 77L50 77L50 78L51 78L51 79L50 79L50 80L49 80L49 81L51 81L51 80L52 80L52 81L53 81L53 80L52 80L52 79L53 79L53 78L51 78L51 77L54 77L54 78L56 78L56 79L58 79L58 80L54 80L54 81L59 81L59 80L60 80L60 81L61 81L61 79L62 79L62 78L63 78L63 79L64 79L64 80L66 80L66 81L68 81L68 79L66 79L66 78L69 78L69 76L70 76L70 77L71 77L71 78L70 78L70 79L71 79L71 78L72 78L72 80L69 80L69 81L72 81L72 80L74 80L74 81L76 81L76 80L77 80L77 79L76 79L76 80L74 80L74 79L73 79L73 78L72 78L72 77L75 77L75 78L77 78L77 77L78 77L78 79L79 79L79 78L80 78L80 77L79 77L79 76L80 76L80 75L79 75L79 73L78 73L78 72L77 72L77 71L80 71L80 72L81 72L81 70L79 70L79 69L80 69L80 66L77 66L77 65L78 65L78 64L79 64L79 63L78 63L78 62L79 62L79 60L78 60L78 59L77 59L77 58L74 58L74 59L73 59L73 60L72 60L72 57L71 57L71 55L69 55L69 54L68 54L68 55L67 55L67 56L66 56L66 55L65 55L65 54L64 54L64 53L65 53L65 52L68 52L68 53L70 53L70 54L72 54L72 55L73 55L73 54L74 54L74 53L75 53L75 55L76 55L76 56L77 56L77 57L78 57L78 58L79 58L79 59L81 59L81 57L80 57L80 56L78 56L78 55L79 55L79 53L80 53L80 52L81 52L81 51L77 51L77 49L79 49L79 50L81 50L81 49L79 49L79 48L81 48L81 45L80 45L80 44L81 44L81 43L79 43L79 44L78 44L78 42L79 42L79 41L80 41L80 42L81 42L81 41L80 41L80 40L79 40L79 38L80 38L80 37L81 37L81 36L80 36L80 35L81 35L81 34L79 34L79 33L78 33L78 34L77 34L77 30L78 30L78 31L80 31L80 32L81 32L81 31L80 31L80 29L81 29L81 28L79 28L79 24L80 24L80 23L81 23L81 21L80 21L80 20L78 20L78 21L77 21L77 22L74 22L74 21L76 21L76 18L75 18L75 19L74 19L74 18L73 18L73 19L72 19L72 18L71 18L71 15L72 15L72 14L76 14L76 13L70 13L70 14L69 14L69 13L68 13L68 14L66 14L66 13L65 13L65 12L64 12L64 11L67 11L67 9L69 9L69 11L68 11L68 12L69 12L69 11L70 11L70 12L72 12L72 11L73 11L73 12L74 12L74 11L75 11L75 12L77 12L77 16L78 16L78 17L79 17L79 15L78 15L78 13L79 13L79 14L80 14L80 13L79 13L79 12L78 12L78 11L75 11L75 10L77 10L77 9L78 9L78 10L80 10L80 12L81 12L81 8L80 8L80 9L79 9L79 8L76 8L76 9L74 9L74 8L72 8L72 7L73 7L73 6L72 6L72 5L71 5L71 6L70 6L70 7L71 7L71 8L70 8L70 9L69 9L69 8L68 8L68 7L69 7L69 5L70 5L70 4L71 4L71 2L72 2L72 4L73 4L73 1L70 1L70 3L69 3L69 2L67 2L67 1L69 1L69 0L67 0L67 1L65 1L65 2L66 2L66 3L68 3L68 7L67 7L67 4L65 4L65 5L66 5L66 7L65 7L65 6L64 6L64 3L63 3L63 2L64 2L64 0L62 0L62 1L61 1L61 0L60 0L60 1L59 1L59 0L56 0L56 1L58 1L58 2L56 2L56 4L55 4L55 5L54 5L54 4L53 4L53 3L52 3L52 2L53 2L53 1L51 1L51 0L50 0L50 2L48 2L48 1L46 1L46 2L45 2L45 1L44 1L44 0L40 0L40 2L39 2L39 1L38 1L38 0L35 0L35 1L34 1L34 0L32 0L32 2L31 2L31 3L30 3L30 4L33 4L33 5L32 5L32 8L33 8L33 9L34 9L34 8L33 8L33 6L34 6L34 7L35 7L35 10L34 10L34 11L33 11L33 10L32 10L32 9L31 9L31 6L30 6L30 9L29 9L29 3L28 3L28 2L30 2L30 1L31 1L31 0L28 0L28 2L27 2L27 1L25 1L25 0L24 0L24 3L25 3L25 4L23 4L23 2L22 2L22 3L20 3L20 1L23 1L23 0L20 0L20 1L17 1L17 2L16 2L16 1L15 1L15 0ZM14 1L14 2L13 2L13 4L14 4L14 3L15 3L15 4L16 4L16 5L17 5L17 4L18 4L18 3L19 3L19 4L20 4L20 3L19 3L19 2L18 2L18 3L16 3L16 2L15 2L15 1ZM35 1L35 2L34 2L34 3L33 3L33 2L32 2L32 3L33 3L33 4L34 4L34 5L35 5L35 7L36 7L36 9L38 9L38 12L37 12L37 11L36 11L36 10L35 10L35 11L34 11L34 12L35 12L35 15L34 15L34 14L33 14L33 11L32 11L32 10L29 10L29 11L30 11L30 12L32 12L32 13L28 13L28 12L26 12L26 13L27 13L27 14L23 14L23 15L22 15L22 16L21 16L21 15L19 15L19 17L21 17L21 18L22 18L22 19L20 19L20 18L19 18L19 19L18 19L18 20L17 20L17 22L18 22L18 20L21 20L21 21L19 21L19 23L17 23L17 24L16 24L16 27L15 27L15 28L16 28L16 29L15 29L15 31L16 31L16 29L17 29L17 28L18 28L18 27L19 27L19 29L18 29L18 30L17 30L17 34L16 34L16 36L15 36L15 35L14 35L14 34L15 34L15 33L16 33L16 32L15 32L15 33L14 33L14 34L13 34L13 33L12 33L12 34L13 34L13 35L14 35L14 36L15 36L15 37L16 37L16 36L17 36L17 37L18 37L18 36L17 36L17 34L21 34L21 35L20 35L20 36L19 36L19 39L20 39L20 42L19 42L19 41L18 41L18 43L16 43L16 42L15 42L15 43L16 43L16 44L18 44L18 45L16 45L16 48L15 48L15 47L14 47L14 48L15 48L15 50L14 50L14 49L13 49L13 50L11 50L11 49L12 49L12 48L13 48L13 46L15 46L15 44L14 44L14 43L12 43L12 45L13 45L13 46L11 46L11 47L12 47L12 48L9 48L9 49L10 49L10 50L9 50L9 51L10 51L10 50L11 50L11 51L12 51L12 53L11 53L11 54L9 54L9 53L10 53L10 52L9 52L9 53L8 53L8 55L10 55L10 56L9 56L9 57L10 57L10 58L11 58L11 59L12 59L12 58L13 58L13 59L14 59L14 58L15 58L15 59L16 59L16 58L17 58L17 61L18 61L18 64L19 64L19 65L17 65L17 64L16 64L16 65L17 65L17 66L19 66L19 65L20 65L20 68L19 68L19 67L18 67L18 69L16 69L16 70L15 70L15 69L13 69L13 70L12 70L12 71L14 71L14 72L16 72L16 73L17 73L17 74L16 74L16 75L15 75L15 74L14 74L14 73L13 73L13 74L14 74L14 76L13 76L13 75L12 75L12 77L11 77L11 79L12 79L12 78L13 78L13 77L14 77L14 79L15 79L15 77L14 77L14 76L18 76L18 77L17 77L17 78L16 78L16 80L18 80L18 79L19 79L19 80L20 80L20 79L21 79L21 78L19 78L19 77L20 77L20 76L18 76L18 72L19 72L19 71L20 71L20 69L22 69L22 68L23 68L23 70L24 70L24 68L26 68L26 70L27 70L27 71L29 71L29 72L32 72L32 73L29 73L29 74L31 74L31 75L32 75L32 76L33 76L33 75L34 75L34 76L35 76L35 72L37 72L37 70L36 70L36 69L38 69L38 66L39 66L39 68L40 68L40 69L41 69L41 72L44 72L44 74L43 74L43 75L44 75L44 76L45 76L45 75L44 75L44 74L45 74L45 71L44 71L44 70L46 70L46 72L47 72L47 70L48 70L48 72L49 72L49 71L50 71L50 70L51 70L51 68L52 68L52 67L51 67L51 65L52 65L52 66L53 66L53 67L54 67L54 68L53 68L53 71L51 71L51 72L54 72L54 71L55 71L55 73L54 73L54 74L53 74L53 75L54 75L54 74L55 74L55 75L57 75L57 76L54 76L54 77L56 77L56 78L60 78L60 79L61 79L61 77L64 77L64 78L66 78L66 77L64 77L64 75L65 75L65 76L66 76L66 74L64 74L64 73L63 73L63 71L64 71L64 68L63 68L63 67L62 67L62 66L63 66L63 65L64 65L64 67L66 67L66 68L65 68L65 71L67 71L67 73L68 73L68 74L67 74L67 75L68 75L68 76L67 76L67 77L68 77L68 76L69 76L69 75L68 75L68 74L70 74L70 76L71 76L71 75L72 75L72 74L70 74L70 73L69 73L69 72L70 72L70 70L72 70L72 72L71 72L71 73L72 73L72 72L75 72L75 71L77 71L77 70L78 70L78 69L79 69L79 67L77 67L77 66L75 66L75 65L76 65L76 64L77 64L77 63L76 63L76 64L75 64L75 61L76 61L76 62L78 62L78 60L76 60L76 59L74 59L74 61L73 61L73 63L72 63L72 62L70 62L70 61L69 61L69 62L70 62L70 64L71 64L71 63L72 63L72 65L71 65L71 67L70 67L70 68L69 68L69 67L68 67L68 69L70 69L70 70L68 70L68 71L67 71L67 66L68 66L68 65L69 65L69 66L70 66L70 65L69 65L69 63L68 63L68 64L66 64L66 63L65 63L65 60L66 60L66 62L68 62L68 59L67 59L67 60L66 60L66 59L65 59L65 58L67 58L67 57L66 57L66 56L65 56L65 57L64 57L64 55L63 55L63 57L64 57L64 59L63 59L63 58L62 58L62 54L63 54L63 53L64 53L64 52L61 52L61 51L62 51L62 49L63 49L63 51L66 51L66 50L64 50L64 49L65 49L65 47L64 47L64 45L65 45L65 46L66 46L66 45L67 45L67 44L68 44L68 47L69 47L69 48L70 48L70 49L68 49L68 48L67 48L67 47L66 47L66 48L67 48L67 49L68 49L68 50L69 50L69 51L71 51L71 53L72 53L72 51L71 51L71 50L70 50L70 49L72 49L72 48L77 48L77 47L78 47L78 48L79 48L79 47L80 47L80 46L79 46L79 45L78 45L78 46L77 46L77 45L75 45L75 44L73 44L73 43L69 43L69 42L71 42L71 39L73 39L73 40L74 40L74 43L75 43L75 40L76 40L76 41L77 41L77 42L76 42L76 44L77 44L77 42L78 42L78 41L79 41L79 40L78 40L78 41L77 41L77 40L76 40L76 37L77 37L77 38L79 38L79 37L80 37L80 36L79 36L79 35L76 35L76 34L75 34L75 35L72 35L72 36L69 36L69 38L70 38L70 39L69 39L69 41L68 41L68 38L67 38L67 40L66 40L66 38L65 38L65 36L67 36L67 37L68 37L68 35L70 35L70 34L69 34L69 33L67 33L67 34L68 34L68 35L65 35L65 34L66 34L66 33L65 33L65 34L64 34L64 32L62 32L62 30L60 30L60 29L59 29L59 28L63 28L63 29L64 29L64 30L66 30L66 32L67 32L67 31L68 31L68 32L69 32L69 30L70 30L70 29L71 29L71 27L72 27L72 26L71 26L71 24L72 24L72 23L73 23L73 22L72 22L72 20L71 20L71 19L69 19L69 21L70 21L70 22L68 22L68 21L67 21L67 20L64 20L64 18L65 18L65 19L68 19L68 18L70 18L70 16L68 16L68 15L67 15L67 16L66 16L66 14L65 14L65 13L63 13L63 12L62 12L62 11L60 11L60 12L59 12L59 11L57 11L57 14L58 14L58 12L59 12L59 13L61 13L61 14L59 14L59 16L63 16L63 17L62 17L62 18L63 18L63 20L62 20L62 19L61 19L61 20L62 20L62 21L61 21L61 23L60 23L60 24L59 24L59 22L60 22L60 17L57 17L57 15L56 15L56 12L55 12L55 13L54 13L54 14L52 14L52 13L51 13L51 12L54 12L54 11L53 11L53 10L54 10L54 9L55 9L55 11L56 11L56 10L57 10L57 9L58 9L58 10L59 10L59 9L60 9L60 10L62 10L62 9L64 9L64 6L63 6L63 5L62 5L62 4L63 4L63 3L62 3L62 4L61 4L61 3L60 3L60 2L61 2L61 1L60 1L60 2L59 2L59 3L58 3L58 4L56 4L56 5L55 5L55 7L54 7L54 6L53 6L53 7L54 7L54 8L53 8L53 10L52 10L52 11L50 11L50 9L49 9L49 10L47 10L47 9L48 9L48 8L47 8L47 7L48 7L48 6L47 6L47 7L46 7L46 5L47 5L47 4L46 4L46 5L45 5L45 4L43 4L43 3L42 3L42 2L43 2L43 1L42 1L42 2L41 2L41 3L39 3L39 2L38 2L38 4L34 4L34 3L37 3L37 1ZM54 1L54 3L55 3L55 1ZM26 2L26 4L27 4L27 2ZM44 2L44 3L45 3L45 2ZM46 2L46 3L48 3L48 2ZM50 2L50 3L49 3L49 4L52 4L52 3L51 3L51 2ZM9 3L9 5L10 5L10 4L12 4L12 3ZM22 4L22 5L23 5L23 7L24 7L24 5L23 5L23 4ZM38 4L38 5L39 5L39 4ZM60 4L60 5L59 5L59 6L58 6L58 5L56 5L56 7L55 7L55 9L56 9L56 8L58 8L58 7L59 7L59 6L60 6L60 8L61 8L61 9L62 9L62 7L63 7L63 6L62 6L62 7L61 7L61 4ZM19 5L19 7L20 7L20 5ZM25 5L25 8L28 8L28 5ZM36 5L36 7L37 7L37 5ZM40 5L40 7L39 7L39 6L38 6L38 8L39 8L39 10L40 10L40 11L42 11L42 12L41 12L41 13L43 13L43 14L40 14L40 13L39 13L39 12L38 12L38 13L37 13L37 12L36 12L36 11L35 11L35 12L36 12L36 13L37 13L37 15L38 15L38 16L39 16L39 17L40 17L40 18L42 18L42 17L40 17L40 15L41 15L41 16L42 16L42 15L45 15L45 14L46 14L46 15L47 15L47 17L45 17L45 16L43 16L43 20L44 20L44 18L45 18L45 19L47 19L47 20L45 20L45 21L42 21L42 19L41 19L41 21L40 21L40 20L39 20L39 18L37 18L37 19L34 19L34 18L36 18L36 17L33 17L33 16L31 16L31 21L30 21L30 15L31 15L31 14L30 14L30 15L29 15L29 14L28 14L28 15L29 15L29 17L28 17L28 16L27 16L27 15L25 15L25 16L26 16L26 18L29 18L29 20L28 20L28 19L27 19L27 21L26 21L26 22L27 22L27 21L30 21L30 22L31 22L31 23L28 23L28 24L27 24L27 23L25 23L25 19L22 19L22 20L24 20L24 23L25 23L25 24L24 24L24 25L22 25L22 24L19 24L19 25L17 25L17 26L19 26L19 25L22 25L22 26L20 26L20 29L19 29L19 30L21 30L21 27L22 27L22 26L23 26L23 28L22 28L22 29L23 29L23 30L22 30L22 31L24 31L24 32L23 32L23 33L22 33L22 36L20 36L20 37L23 37L23 36L24 36L24 37L26 37L26 39L27 39L27 40L26 40L26 41L27 41L27 42L30 42L30 45L29 45L29 43L28 43L28 44L27 44L27 43L26 43L26 42L25 42L25 41L24 41L24 40L23 40L23 39L22 39L22 38L21 38L21 39L22 39L22 41L21 41L21 42L20 42L20 43L18 43L18 44L20 44L20 45L21 45L21 46L20 46L20 47L19 47L19 48L20 48L20 49L22 49L22 52L23 52L23 53L21 53L21 54L19 54L19 53L17 53L17 54L19 54L19 56L17 56L17 57L18 57L18 60L20 60L20 62L21 62L21 63L23 63L23 68L24 68L24 66L25 66L25 67L26 67L26 68L28 68L28 69L30 69L30 70L31 70L31 71L32 71L32 70L31 70L31 69L30 69L30 67L29 67L29 68L28 68L28 65L29 65L29 66L30 66L30 65L31 65L31 68L33 68L33 69L36 69L36 67L37 67L37 66L36 66L36 63L35 63L35 60L36 60L36 61L38 61L38 63L37 63L37 65L38 65L38 63L39 63L39 66L40 66L40 63L41 63L41 64L42 64L42 65L41 65L41 69L42 69L42 70L44 70L44 66L45 66L45 68L46 68L46 66L47 66L47 69L48 69L48 70L49 70L49 69L50 69L50 67L49 67L49 65L51 65L51 64L52 64L52 65L55 65L55 67L57 67L57 66L56 66L56 65L55 65L55 64L56 64L56 63L57 63L57 65L60 65L60 69L57 69L57 68L55 68L55 70L58 70L58 71L57 71L57 73L56 73L56 74L57 74L57 75L58 75L58 76L57 76L57 77L60 77L60 76L59 76L59 74L60 74L60 75L63 75L63 74L60 74L60 73L59 73L59 72L61 72L61 71L62 71L62 70L61 70L61 71L60 71L60 69L61 69L61 66L62 66L62 65L63 65L63 64L65 64L65 65L66 65L66 66L67 66L67 65L66 65L66 64L65 64L65 63L64 63L64 60L62 60L62 58L59 58L59 57L57 57L57 56L56 56L56 55L60 55L60 52L59 52L59 53L58 53L58 52L57 52L57 51L58 51L58 50L60 50L60 49L59 49L59 48L58 48L58 50L57 50L57 51L56 51L56 50L55 50L55 49L53 49L53 47L55 47L55 48L56 48L56 49L57 49L57 47L58 47L58 46L59 46L59 47L60 47L60 48L61 48L61 49L62 49L62 48L61 48L61 45L62 45L62 46L63 46L63 45L62 45L62 44L61 44L61 43L60 43L60 45L59 45L59 44L58 44L58 43L59 43L59 42L60 42L60 41L61 41L61 42L62 42L62 43L64 43L64 44L65 44L65 45L66 45L66 44L67 44L67 43L66 43L66 42L65 42L65 41L63 41L63 40L62 40L62 39L63 39L63 38L64 38L64 40L65 40L65 38L64 38L64 35L63 35L63 37L62 37L62 34L61 34L61 31L60 31L60 30L58 30L58 31L59 31L59 32L60 32L60 33L59 33L59 34L58 34L58 33L57 33L57 34L56 34L56 35L54 35L54 36L53 36L53 37L51 37L51 34L52 34L52 35L53 35L53 34L52 34L52 33L53 33L53 32L51 32L51 33L50 33L50 32L49 32L49 30L50 30L50 31L54 31L54 32L55 32L55 33L56 33L56 32L55 32L55 29L54 29L54 28L53 28L53 26L54 26L54 27L55 27L55 28L56 28L56 27L55 27L55 26L54 26L54 25L55 25L55 24L56 24L56 26L57 26L57 25L58 25L58 22L59 22L59 21L58 21L58 20L57 20L57 22L56 22L56 20L55 20L55 19L53 19L53 17L54 17L54 18L55 18L55 17L54 17L54 16L56 16L56 15L55 15L55 14L54 14L54 16L53 16L53 15L52 15L52 14L51 14L51 13L49 13L49 15L47 15L47 13L48 13L48 12L49 12L49 11L47 11L47 12L46 12L46 11L45 11L45 13L44 13L44 11L43 11L43 5L42 5L42 7L41 7L41 5ZM44 5L44 7L45 7L45 5ZM49 5L49 8L52 8L52 5ZM12 6L12 7L13 7L13 6ZM26 6L26 7L27 7L27 6ZM50 6L50 7L51 7L51 6ZM57 6L57 7L58 7L58 6ZM71 6L71 7L72 7L72 6ZM40 7L40 8L41 8L41 9L40 9L40 10L41 10L41 9L42 9L42 8L41 8L41 7ZM66 7L66 8L65 8L65 10L66 10L66 8L67 8L67 7ZM12 8L12 9L13 9L13 8ZM14 8L14 9L15 9L15 8ZM45 8L45 9L47 9L47 8ZM3 9L3 11L2 11L2 16L1 16L1 17L2 17L2 19L1 19L1 20L3 20L3 19L4 19L4 20L5 20L5 22L4 22L4 21L3 21L3 23L2 23L2 24L1 24L1 25L2 25L2 26L1 26L1 27L2 27L2 29L1 29L1 31L2 31L2 32L1 32L1 33L3 33L3 35L4 35L4 36L3 36L3 37L2 37L2 36L1 36L1 37L2 37L2 38L1 38L1 40L2 40L2 41L4 41L4 40L2 40L2 38L4 38L4 36L9 36L9 34L10 34L10 35L11 35L11 36L10 36L10 38L9 38L9 37L8 37L8 38L7 38L7 37L6 37L6 38L5 38L5 39L6 39L6 40L5 40L5 43L4 43L4 45L5 45L5 44L7 44L7 45L6 45L6 46L7 46L7 45L8 45L8 46L9 46L9 47L10 47L10 46L9 46L9 42L10 42L10 40L11 40L11 41L12 41L12 40L13 40L13 41L14 41L14 40L15 40L15 39L17 39L17 40L18 40L18 38L12 38L12 37L11 37L11 36L12 36L12 35L11 35L11 30L10 30L10 29L11 29L11 28L12 28L12 27L13 27L13 28L14 28L14 26L15 26L15 25L14 25L14 23L12 23L12 26L11 26L11 27L10 27L10 25L11 25L11 24L10 24L10 25L9 25L9 30L8 30L8 29L6 29L6 30L5 30L5 29L4 29L4 28L3 28L3 25L4 25L4 24L3 24L3 23L5 23L5 24L7 24L7 23L5 23L5 22L8 22L8 19L6 19L6 18L7 18L7 17L6 17L6 16L8 16L8 17L9 17L9 16L10 16L10 15L6 15L6 14L7 14L7 13L6 13L6 12L5 12L5 15L6 15L6 16L5 16L5 17L4 17L4 13L3 13L3 12L4 12L4 11L5 11L5 10L4 10L4 9ZM8 9L8 10L9 10L9 9ZM70 9L70 11L71 11L71 10L72 10L72 9ZM73 9L73 10L74 10L74 9ZM63 10L63 11L64 11L64 10ZM12 11L12 12L14 12L14 11ZM8 13L8 14L9 14L9 13ZM62 13L62 14L61 14L61 15L63 15L63 16L65 16L65 15L64 15L64 14L63 14L63 13ZM38 14L38 15L39 15L39 14ZM70 14L70 15L71 15L71 14ZM16 15L16 16L18 16L18 15ZM74 15L74 16L72 16L72 17L75 17L75 15ZM23 16L23 17L24 17L24 16ZM48 16L48 17L47 17L47 18L49 18L49 19L48 19L48 20L47 20L47 21L45 21L45 24L44 24L44 22L42 22L42 21L41 21L41 23L43 23L43 24L42 24L42 25L41 25L41 24L40 24L40 23L39 23L39 20L35 20L35 21L33 21L33 19L32 19L32 21L31 21L31 22L32 22L32 23L31 23L31 25L30 25L30 24L29 24L29 26L30 26L30 28L31 28L31 29L30 29L30 30L28 30L28 29L24 29L24 30L26 30L26 31L25 31L25 32L24 32L24 33L25 33L25 34L27 34L27 35L24 35L24 34L23 34L23 35L24 35L24 36L26 36L26 37L27 37L27 35L29 35L29 33L27 33L27 32L28 32L28 31L29 31L29 32L31 32L31 33L33 33L33 32L34 32L34 29L32 29L32 28L33 28L33 27L34 27L34 28L35 28L35 27L34 27L34 26L35 26L35 24L34 24L34 23L36 23L36 24L38 24L38 25L40 25L40 26L42 26L42 27L41 27L41 28L40 28L40 27L39 27L39 28L37 28L37 26L36 26L36 29L35 29L35 31L36 31L36 33L37 33L37 32L41 32L41 29L42 29L42 33L45 33L45 35L44 35L44 34L42 34L42 35L41 35L41 34L40 34L40 33L38 33L38 34L37 34L37 35L35 35L35 36L34 36L34 35L31 35L31 34L30 34L30 37L29 37L29 36L28 36L28 38L31 38L31 40L32 40L32 37L33 37L33 38L35 38L35 36L36 36L36 37L37 37L37 39L36 39L36 40L34 40L34 41L32 41L32 42L33 42L33 44L32 44L32 43L31 43L31 45L30 45L30 48L29 48L29 51L30 51L30 52L29 52L29 53L27 53L27 54L26 54L26 53L25 53L25 56L26 56L26 58L28 58L28 59L29 59L29 60L28 60L28 61L25 61L25 62L23 62L23 63L24 63L24 64L27 64L27 65L26 65L26 67L27 67L27 65L28 65L28 61L29 61L29 63L30 63L30 62L31 62L31 61L30 61L30 60L31 60L31 59L32 59L32 61L33 61L33 59L34 59L34 60L35 60L35 59L34 59L34 58L35 58L35 57L34 57L34 55L35 55L35 56L36 56L36 57L38 57L38 61L40 61L40 62L42 62L42 63L43 63L43 59L46 59L46 60L47 60L47 62L49 62L49 64L50 64L50 63L51 63L51 62L52 62L52 61L53 61L53 60L54 60L54 61L55 61L55 62L56 62L56 61L57 61L57 62L58 62L58 63L59 63L59 64L60 64L60 65L61 65L61 62L63 62L63 61L62 61L62 60L61 60L61 59L60 59L60 60L59 60L59 58L58 58L58 59L57 59L57 58L56 58L56 57L54 57L54 56L53 56L53 55L50 55L50 54L52 54L52 53L50 53L50 54L49 54L49 53L48 53L48 52L47 52L47 51L48 51L48 49L46 49L46 50L44 50L44 49L45 49L45 48L44 48L44 49L42 49L42 48L43 48L43 47L44 47L44 46L43 46L43 45L45 45L45 47L46 47L46 48L47 48L47 46L48 46L48 48L49 48L49 47L53 47L53 46L54 46L54 45L55 45L55 44L56 44L56 45L58 45L58 44L57 44L57 43L56 43L56 40L54 40L54 39L53 39L53 38L51 38L51 37L50 37L50 33L49 33L49 35L47 35L47 34L48 34L48 32L47 32L47 33L46 33L46 32L45 32L45 29L44 29L44 28L45 28L45 27L46 27L46 28L47 28L47 30L46 30L46 31L47 31L47 30L48 30L48 28L47 28L47 27L48 27L48 26L47 26L47 25L46 25L46 24L47 24L47 23L49 23L49 24L50 24L50 23L51 23L51 22L50 22L50 21L49 21L49 22L48 22L48 20L50 20L50 19L51 19L51 20L52 20L52 19L51 19L51 18L52 18L52 16ZM3 17L3 18L4 18L4 17ZM32 17L32 18L33 18L33 17ZM50 17L50 18L51 18L51 17ZM67 17L67 18L68 18L68 17ZM80 17L80 18L79 18L79 19L80 19L80 18L81 18L81 17ZM56 18L56 19L57 19L57 18ZM58 18L58 19L59 19L59 18ZM77 18L77 19L78 19L78 18ZM5 19L5 20L6 20L6 21L7 21L7 20L6 20L6 19ZM54 20L54 21L52 21L52 22L54 22L54 21L55 21L55 20ZM73 20L73 21L74 21L74 20ZM15 21L15 22L16 22L16 21ZM21 21L21 22L22 22L22 23L23 23L23 21ZM32 21L32 22L33 22L33 23L32 23L32 24L33 24L33 23L34 23L34 22L33 22L33 21ZM37 21L37 22L38 22L38 21ZM62 21L62 22L63 22L63 23L61 23L61 25L59 25L59 26L61 26L61 25L62 25L62 27L64 27L64 28L65 28L65 29L67 29L67 30L69 30L69 29L67 29L67 28L69 28L69 27L70 27L70 26L69 26L69 25L67 25L67 26L66 26L66 24L63 24L63 23L67 23L67 24L71 24L71 23L72 23L72 22L70 22L70 23L68 23L68 22L67 22L67 21L66 21L66 22L63 22L63 21ZM79 21L79 22L78 22L78 24L77 24L77 25L78 25L78 24L79 24L79 22L80 22L80 21ZM46 22L46 23L47 23L47 22ZM52 23L52 24L53 24L53 25L54 25L54 24L53 24L53 23ZM74 23L74 24L75 24L75 23ZM62 24L62 25L63 25L63 26L65 26L65 25L63 25L63 24ZM5 25L5 28L8 28L8 25ZM25 25L25 28L28 28L28 25ZM31 25L31 28L32 28L32 26L34 26L34 25ZM43 25L43 27L42 27L42 29L43 29L43 28L44 28L44 27L45 27L45 26L46 26L46 27L47 27L47 26L46 26L46 25L45 25L45 26L44 26L44 25ZM49 25L49 28L52 28L52 25ZM73 25L73 28L76 28L76 25ZM80 25L80 26L81 26L81 25ZM6 26L6 27L7 27L7 26ZM26 26L26 27L27 27L27 26ZM50 26L50 27L51 27L51 26ZM67 26L67 27L69 27L69 26ZM74 26L74 27L75 27L75 26ZM77 26L77 27L78 27L78 26ZM16 27L16 28L17 28L17 27ZM58 27L58 28L57 28L57 29L58 29L58 28L59 28L59 27ZM77 28L77 29L78 29L78 30L79 30L79 28ZM12 29L12 32L13 32L13 30L14 30L14 29ZM36 29L36 31L37 31L37 29ZM38 29L38 30L39 30L39 31L40 31L40 30L39 30L39 29ZM51 29L51 30L54 30L54 29ZM72 29L72 30L73 30L73 31L70 31L70 33L71 33L71 32L73 32L73 33L72 33L72 34L73 34L73 33L74 33L74 32L73 32L73 31L75 31L75 32L76 32L76 29L75 29L75 30L73 30L73 29ZM2 30L2 31L3 31L3 33L5 33L5 35L7 35L7 34L6 34L6 33L8 33L8 31L7 31L7 30L6 30L6 31L5 31L5 30ZM30 30L30 31L31 31L31 30ZM56 30L56 31L57 31L57 30ZM4 31L4 32L5 32L5 31ZM6 31L6 32L7 32L7 31ZM18 31L18 32L19 32L19 33L21 33L21 31L20 31L20 32L19 32L19 31ZM26 31L26 32L27 32L27 31ZM34 33L34 34L35 34L35 33ZM38 34L38 35L39 35L39 36L37 36L37 37L38 37L38 39L37 39L37 41L34 41L34 44L35 44L35 42L36 42L36 44L38 44L38 45L35 45L35 46L36 46L36 47L33 47L33 45L32 45L32 47L31 47L31 48L30 48L30 49L32 49L32 50L34 50L34 51L35 51L35 53L32 53L32 52L31 52L31 55L29 55L29 54L30 54L30 53L29 53L29 54L28 54L28 55L27 55L27 57L28 57L28 58L32 58L32 59L33 59L33 58L32 58L32 57L29 57L29 56L32 56L32 55L34 55L34 54L36 54L36 56L37 56L37 55L38 55L38 56L39 56L39 57L40 57L40 59L39 59L39 60L41 60L41 59L42 59L42 58L44 58L44 57L42 57L42 56L41 56L41 55L45 55L45 58L46 58L46 59L47 59L47 60L48 60L48 61L49 61L49 62L50 62L50 61L52 61L52 60L51 60L51 58L52 58L52 59L55 59L55 60L57 60L57 61L58 61L58 62L60 62L60 61L61 61L61 60L60 60L60 61L59 61L59 60L57 60L57 59L55 59L55 58L52 58L52 56L51 56L51 58L50 58L50 56L48 56L48 58L46 58L46 57L47 57L47 56L46 56L46 54L47 54L47 55L48 55L48 54L47 54L47 53L46 53L46 51L47 51L47 50L46 50L46 51L45 51L45 53L44 53L44 52L43 52L43 51L41 51L41 49L39 49L39 48L42 48L42 45L43 45L43 44L45 44L45 45L49 45L49 44L46 44L46 43L48 43L48 41L49 41L49 43L50 43L50 41L51 41L51 44L52 44L52 41L51 41L51 40L53 40L53 39L51 39L51 38L50 38L50 41L49 41L49 37L47 37L47 38L45 38L45 37L44 37L44 36L42 36L42 37L44 37L44 38L41 38L41 37L40 37L40 35L39 35L39 34ZM46 35L46 36L47 36L47 35ZM57 35L57 36L58 36L58 35ZM59 35L59 38L58 38L58 37L57 37L57 38L56 38L56 36L55 36L55 37L54 37L54 38L56 38L56 39L57 39L57 38L58 38L58 41L57 41L57 42L59 42L59 39L60 39L60 40L61 40L61 39L62 39L62 37L61 37L61 36L60 36L60 35ZM31 36L31 37L32 37L32 36ZM72 36L72 37L71 37L71 38L73 38L73 39L75 39L75 37L73 37L73 36ZM77 36L77 37L78 37L78 36ZM39 37L39 39L38 39L38 41L37 41L37 42L38 42L38 43L40 43L40 44L39 44L39 45L38 45L38 46L39 46L39 47L38 47L38 48L37 48L37 47L36 47L36 48L37 48L37 49L38 49L38 48L39 48L39 47L41 47L41 45L42 45L42 43L40 43L40 42L39 42L39 39L40 39L40 41L41 41L41 38L40 38L40 37ZM6 38L6 39L7 39L7 38ZM24 38L24 39L25 39L25 38ZM47 38L47 40L48 40L48 38ZM8 39L8 40L6 40L6 41L7 41L7 42L6 42L6 43L8 43L8 40L10 40L10 39ZM11 39L11 40L12 40L12 39ZM13 39L13 40L14 40L14 39ZM28 39L28 40L27 40L27 41L28 41L28 40L29 40L29 39ZM42 39L42 40L45 40L45 39ZM22 41L22 43L23 43L23 45L24 45L24 43L25 43L25 42L23 42L23 41ZM30 41L30 42L31 42L31 41ZM42 41L42 42L43 42L43 43L46 43L46 41ZM62 41L62 42L63 42L63 41ZM67 41L67 42L68 42L68 41ZM72 41L72 42L73 42L73 41ZM53 42L53 43L54 43L54 44L55 44L55 42ZM64 42L64 43L65 43L65 44L66 44L66 43L65 43L65 42ZM21 44L21 45L22 45L22 44ZM26 44L26 45L25 45L25 46L26 46L26 48L27 48L27 46L28 46L28 47L29 47L29 45L27 45L27 44ZM40 44L40 45L41 45L41 44ZM50 45L50 46L51 46L51 45ZM52 45L52 46L53 46L53 45ZM69 45L69 47L71 47L71 48L72 48L72 47L71 47L71 45ZM73 45L73 47L75 47L75 46L74 46L74 45ZM0 46L0 47L1 47L1 46ZM17 46L17 47L18 47L18 46ZM21 46L21 47L22 47L22 46ZM55 46L55 47L56 47L56 46ZM76 46L76 47L77 47L77 46ZM24 47L24 48L23 48L23 49L24 49L24 48L25 48L25 47ZM32 47L32 49L33 49L33 47ZM63 47L63 49L64 49L64 47ZM16 48L16 49L17 49L17 52L18 52L18 51L21 51L21 50L18 50L18 49L17 49L17 48ZM2 49L2 50L3 50L3 52L1 52L1 55L2 55L2 56L1 56L1 57L2 57L2 58L1 58L1 59L2 59L2 60L3 60L3 61L4 61L4 60L5 60L5 59L4 59L4 60L3 60L3 58L4 58L4 56L3 56L3 55L4 55L4 54L5 54L5 55L6 55L6 56L5 56L5 58L7 58L7 57L8 57L8 56L7 56L7 55L6 55L6 54L7 54L7 53L3 53L3 52L4 52L4 50L3 50L3 49ZM5 49L5 52L8 52L8 49ZM25 49L25 52L28 52L28 49ZM34 49L34 50L35 50L35 51L36 51L36 53L37 53L37 52L40 52L40 53L38 53L38 55L39 55L39 56L40 56L40 55L39 55L39 54L41 54L41 52L40 52L40 50L39 50L39 51L37 51L37 50L35 50L35 49ZM49 49L49 52L52 52L52 49ZM73 49L73 52L76 52L76 49ZM6 50L6 51L7 51L7 50ZM26 50L26 51L27 51L27 50ZM50 50L50 51L51 51L51 50ZM53 50L53 52L54 52L54 53L53 53L53 54L55 54L55 55L56 55L56 54L58 54L58 53L56 53L56 51L54 51L54 50ZM74 50L74 51L75 51L75 50ZM14 51L14 52L13 52L13 54L11 54L11 57L12 57L12 55L13 55L13 57L14 57L14 55L13 55L13 54L15 54L15 58L16 58L16 54L15 54L15 53L16 53L16 51ZM23 51L23 52L24 52L24 51ZM14 52L14 53L15 53L15 52ZM77 52L77 53L79 53L79 52ZM2 53L2 55L3 55L3 53ZM42 53L42 54L43 54L43 53ZM61 53L61 54L62 54L62 53ZM22 54L22 55L21 55L21 58L22 58L22 57L24 57L24 55L23 55L23 54ZM22 55L22 56L23 56L23 55ZM28 55L28 56L29 56L29 55ZM68 55L68 58L69 58L69 55ZM2 56L2 57L3 57L3 56ZM6 56L6 57L7 57L7 56ZM19 56L19 59L20 59L20 60L21 60L21 62L22 62L22 61L24 61L24 60L23 60L23 59L22 59L22 60L21 60L21 59L20 59L20 56ZM60 56L60 57L61 57L61 56ZM70 57L70 60L71 60L71 57ZM79 57L79 58L80 58L80 57ZM24 58L24 59L25 59L25 60L26 60L26 59L25 59L25 58ZM36 58L36 60L37 60L37 58ZM48 58L48 60L49 60L49 59L50 59L50 58ZM44 60L44 63L45 63L45 64L46 64L46 65L47 65L47 66L48 66L48 63L46 63L46 62L45 62L45 60ZM80 60L80 62L81 62L81 60ZM6 61L6 62L7 62L7 61ZM16 62L16 63L17 63L17 62ZM26 62L26 63L27 63L27 62ZM32 62L32 63L31 63L31 64L32 64L32 63L34 63L34 65L35 65L35 63L34 63L34 62ZM53 62L53 64L55 64L55 63L54 63L54 62ZM14 63L14 64L13 64L13 65L14 65L14 64L15 64L15 63ZM19 63L19 64L20 64L20 63ZM43 64L43 65L42 65L42 66L43 66L43 65L44 65L44 64ZM73 64L73 65L72 65L72 66L73 66L73 67L74 67L74 65L75 65L75 64ZM80 64L80 65L81 65L81 64ZM2 65L2 66L3 66L3 68L2 68L2 69L1 69L1 70L4 70L4 69L5 69L5 67L4 67L4 66L3 66L3 65ZM32 65L32 67L33 67L33 65ZM34 66L34 68L35 68L35 67L36 67L36 66ZM58 66L58 68L59 68L59 66ZM6 67L6 68L7 68L7 69L6 69L6 70L7 70L7 71L6 71L6 72L7 72L7 71L8 71L8 70L7 70L7 69L8 69L8 68L7 68L7 67ZM21 67L21 68L22 68L22 67ZM42 67L42 69L43 69L43 67ZM48 67L48 69L49 69L49 67ZM71 67L71 68L70 68L70 69L71 69L71 68L72 68L72 69L73 69L73 71L75 71L75 70L74 70L74 69L73 69L73 68L72 68L72 67ZM76 67L76 69L77 69L77 67ZM3 68L3 69L4 69L4 68ZM17 70L17 71L16 71L16 72L17 72L17 71L19 71L19 70ZM21 70L21 72L20 72L20 73L19 73L19 74L20 74L20 75L21 75L21 77L22 77L22 75L21 75L21 74L22 74L22 73L24 73L24 72L23 72L23 71L22 71L22 70ZM34 70L34 71L35 71L35 70ZM58 71L58 72L59 72L59 71ZM68 71L68 72L69 72L69 71ZM21 72L21 73L22 73L22 72ZM65 72L65 73L66 73L66 72ZM25 73L25 76L28 76L28 73ZM32 73L32 75L33 75L33 74L34 74L34 73ZM36 73L36 74L37 74L37 73ZM46 73L46 74L47 74L47 75L46 75L46 77L47 77L47 76L48 76L48 74L47 74L47 73ZM49 73L49 76L52 76L52 73ZM57 73L57 74L58 74L58 73ZM73 73L73 76L76 76L76 73ZM80 73L80 74L81 74L81 73ZM26 74L26 75L27 75L27 74ZM50 74L50 75L51 75L51 74ZM74 74L74 75L75 75L75 74ZM77 74L77 75L78 75L78 74ZM23 75L23 76L24 76L24 75ZM29 75L29 77L30 77L30 75ZM17 78L17 79L18 79L18 78ZM31 79L31 80L32 80L32 79ZM33 79L33 81L34 81L34 80L35 80L35 81L36 81L36 80L35 80L35 79ZM45 79L45 81L46 81L46 80L48 80L48 79ZM80 79L80 80L81 80L81 79ZM37 80L37 81L38 81L38 80ZM39 80L39 81L41 81L41 80ZM42 80L42 81L43 81L43 80ZM62 80L62 81L63 81L63 80ZM78 80L78 81L79 81L79 80ZM0 0L0 7L7 7L7 0ZM1 1L1 6L6 6L6 1ZM2 2L2 5L5 5L5 2ZM74 0L74 7L81 7L81 0ZM75 1L75 6L80 6L80 1ZM76 2L76 5L79 5L79 2ZM0 74L0 81L7 81L7 74ZM1 75L1 80L6 80L6 75ZM2 76L2 79L5 79L5 76Z" fill="#000000"/></g></g></svg>